<?xml version="1.0" encoding="utf-8"?>
<!-- Generator: Adobe Illustrator 14.0.0, SVG Export Plug-In . SVG Version: 6.00 Build 43363)  -->
<!DOCTYPE svg PUBLIC "-//W3C//DTD SVG 1.1//EN" "http://www.w3.org/Graphics/SVG/1.1/DTD/svg11.dtd">
<svg version="1.1" id="Layer_1" xmlns="http://www.w3.org/2000/svg" xmlns:xlink="http://www.w3.org/1999/xlink" x="0px" y="0px"
	 width="400px" height="400px" viewBox="0 0 400 400" enable-background="new 0 0 400 400" xml:space="preserve">
<rect fill="#FFFFFF" stroke="#B3B3B3" stroke-width="4" width="400" height="400"/>
<g>
	<path fill="#002F50" d="M112.205,145.349c2.136,0.464,3.12,1.245,3.12,2.724c0,1.656-1.368,2.724-3.271,2.724
		c-1.52,0-2.766-0.507-3.915-1.533l0.671-0.794c0.999,0.903,1.958,1.355,3.285,1.355c1.286,0,2.135-0.67,2.135-1.643
		c0-0.903-0.479-1.41-2.491-1.833c-2.203-0.479-3.217-1.192-3.217-2.779c0-1.533,1.328-2.629,3.149-2.629
		c1.396,0,2.395,0.398,3.366,1.178l-0.629,0.834c-0.891-0.725-1.78-1.041-2.766-1.041c-1.245,0-2.039,0.685-2.039,1.56
		C109.604,144.391,110.098,144.897,112.205,145.349"/>
	<rect x="119.678" y="141.079" fill="#002F50" width="1.081" height="9.581"/>
	<polygon fill="#002F50" points="132.667,141.078 133.721,141.078 133.721,150.659 132.858,150.659 126.671,142.803 
		126.671,150.659 125.618,150.659 125.618,141.078 126.631,141.078 132.667,148.757 	"/>
	<path fill="#002F50" d="M142.863,150.824c-2.764,0-4.804-2.176-4.804-4.941c0-2.738,2.025-4.969,4.845-4.969
		c1.738,0,2.778,0.616,3.736,1.52l-0.738,0.794c-0.808-0.767-1.712-1.314-3.012-1.314c-2.121,0-3.709,1.71-3.709,3.941
		c0,2.231,1.602,3.969,3.709,3.969c1.314,0,2.176-0.506,3.093-1.383l0.713,0.699C145.696,150.153,144.602,150.824,142.863,150.824"
		/>
	<polygon fill="#002F50" points="157.563,142.064 151.719,142.064 151.719,145.335 156.946,145.335 156.946,146.32 151.719,146.32 
		151.719,149.674 157.632,149.674 157.632,150.659 150.638,150.659 150.638,141.078 157.563,141.078 	"/>
	<polygon fill="#002F50" points="244.151,141.171 245.025,141.171 245.025,150.82 243.851,150.82 243.851,142.293 241.863,142.854 
		241.577,141.979 	"/>
	<path fill="#002F50" d="M255.88,150.985c-1.37,0-2.364-0.506-3.252-1.178l0.691-0.834c0.859,0.684,1.656,1.026,2.591,1.026
		c1.896,0,3.177-1.751,3.131-4.202c-0.572,0.835-1.521,1.533-2.981,1.533c-2.167,0-3.673-1.245-3.673-2.984
		c0-1.834,1.551-3.271,3.794-3.271c1.204,0,2.094,0.37,2.771,0.985c0.828,0.752,1.309,1.793,1.309,3.723
		C260.26,148.835,258.484,150.985,255.88,150.985 M256.136,142.033c-1.581,0-2.529,1.054-2.529,2.259
		c0,1.231,1.055,2.107,2.59,2.107c1.61,0,2.619-1.067,2.619-2.176C258.815,142.991,257.717,142.033,256.136,142.033"/>
	<path fill="#002F50" d="M270.513,150.985c-1.369,0-2.363-0.506-3.251-1.178l0.691-0.834c0.858,0.684,1.657,1.026,2.59,1.026
		c1.897,0,3.177-1.751,3.132-4.202c-0.572,0.835-1.521,1.533-2.98,1.533c-2.168,0-3.673-1.245-3.673-2.984
		c0-1.834,1.55-3.271,3.793-3.271c1.204,0,2.093,0.37,2.77,0.985c0.829,0.752,1.311,1.793,1.311,3.723
		C274.895,148.835,273.118,150.985,270.513,150.985 M270.769,142.033c-1.58,0-2.528,1.054-2.528,2.259
		c0,1.231,1.054,2.107,2.589,2.107c1.611,0,2.62-1.067,2.62-2.176C273.449,142.991,272.351,142.033,270.769,142.033"/>
	<polygon fill="#002F50" points="281.414,141.239 288.564,141.239 288.564,142.047 283.778,150.82 282.453,150.82 287.21,142.225 
		281.414,142.225 	"/>
	<path fill="#002F50" d="M43.316,213.296h-2.641c-0.583,0-0.831,0.239-0.831,0.8v35.721c0,1.018,0.129,1.172,0.988,1.172h2.561
		c0.748,0,0.909-0.17,0.909-0.951v-35.941C44.303,213.406,44.068,213.296,43.316,213.296 M42.05,202.736
		c-1.394,0-2.527,1.12-2.527,2.498c0,1.381,1.134,2.504,2.527,2.504c1.395,0,2.529-1.123,2.529-2.504
		C44.579,203.856,43.444,202.736,42.05,202.736 M148.029,212.555c-4.848,0-10.807,2.133-13.674,6.809v-17.639
		c0-0.582-0.128-0.877-0.834-0.877h-2.948c-0.626,0-0.678,0.415-0.678,0.877v48.092c0,0.877,0,1.172,0.834,1.172h2.792
		c0.709,0,0.834-0.307,0.834-0.951v-23.246c1.506-6.363,6.475-10.193,13.287-10.193c6.467,0,10.028,3.41,10.028,9.604v23.615
		c0,0.814,0.079,1.172,0.833,1.172h2.716c0.779,0,0.911-0.385,0.911-1.246V225.98C162.131,214.3,153.295,212.555,148.029,212.555
		 M124.975,247.658l-0.172-0.557c-0.129-0.494-0.31-0.777-0.55-0.865c-0.107-0.037-0.276-0.055-0.475,0.088
		c-0.811,0.514-2.781,1.287-4.842,1.287c-2.239,0-4.91-0.961-4.91-5.543v-24.732h7.392c0.437,0,1.067-0.313,1.067-0.875v-2.659
		c0-0.506-0.436-0.506-0.987-0.506h-7.472v-8.425c0-0.922-0.168-1.096-1.063-1.096h-2.483c-0.713,0-0.833,0.293-0.833,0.951v8.569
		h-4.678c-0.392,0-0.678,0.337-0.678,0.8v2.291c0,0.709,0.191,0.949,0.756,0.949h4.6v25.324c0,5.951,4.438,9.066,8.823,9.066
		c2.099,0,3.94-0.41,6.356-1.414c0.507-0.182,0.687-0.287,0.687-0.6c0-0.133-0.032-0.305-0.086-0.533
		C125.426,249.174,124.975,247.658,124.975,247.658 M71.169,212.555c-5.552,0-10.62,2.567-13.443,6.711v-5.094
		c0-0.79-0.186-0.876-0.913-0.876H54.1c-0.587,0-0.758,0.164-0.758,0.729v35.867c0,0.795,0.066,1.096,0.758,1.096h3.18
		c0.522,0,0.522-0.357,0.522-0.951v-23.316c1.324-6.133,6.512-10.123,13.21-10.123c6.705,0,10.105,3.258,10.105,9.68v23.76
		c0,0.813,0.281,0.951,0.912,0.951h2.793c0.757,0,0.757-0.443,0.757-1.246v-24.131C85.579,217.314,80.326,212.555,71.169,212.555
		 M246.849,212.555c-6.349,0-11.554,2.525-14.451,6.918v-5.228c0-0.646-0.065-0.949-0.677-0.949h-3.025
		c-0.578,0-0.679,0.259-0.679,0.8v46.844c0,0.539,0.05,0.951,0.679,0.951h2.87c0.751,0,0.832-0.354,0.832-1.102v-16.184
		c3.358,4.537,8.372,7.049,14.219,7.049c11.729,0,19.609-8.064,19.609-20.064C266.226,220.383,258.258,212.555,246.849,212.555
		 M246.849,247.76c-8.507,0-14.681-6.676-14.681-15.877c0-9.615,5.487-15.359,14.681-15.359c8.365,0,14.918,6.684,14.918,15.215
		C261.767,241.473,255.91,247.76,246.849,247.76 M360.059,249.84c-0.003-0.004-16.571-21.043-17.736-22.523
		c1.17-1.266,11.176-12.102,11.994-13.161c0.006-0.009,0.129-0.163,0.129-0.163l0.146-0.336c0-0.36-0.374-0.36-0.598-0.36h-3.569
		c-0.444,0-0.733,0.088-1.17,0.591c-5.109,5.533-14.404,15.518-17.55,18.797v-30.889c0-0.723-0.115-0.948-0.833-0.948h-2.947
		c-0.584,0-0.678,0.259-0.678,0.877v48.092c0,0.814,0.079,1.172,0.833,1.172h2.87c0.755,0,0.755-0.379,0.755-0.951v-11.5
		c0.11-0.117,7.06-7.539,7.378-7.879c0.299,0.375,15.285,19.145,15.285,19.145c0.268,0.381,1.031,1.186,1.643,1.186h3.569
		c0.462,0,0.751-0.012,0.862-0.232c0.024-0.047,0.036-0.098,0.036-0.148C360.478,250.41,360.308,250.178,360.059,249.84
		 M304.88,212.555c-5.549,0-10.617,2.568-13.443,6.713v-5.096c0-0.79-0.185-0.876-0.911-0.876h-2.715
		c-0.584,0-0.754,0.164-0.754,0.729v35.867c0,0.795,0.065,1.096,0.754,1.096h3.183c0.523,0,0.523-0.357,0.523-0.951v-23.316
		c1.325-6.133,6.512-10.123,13.208-10.123c6.707,0,10.107,3.258,10.107,9.68v23.76c0,0.813,0.28,0.951,0.91,0.951h2.795
		c0.755,0,0.755-0.443,0.755-1.246v-24.131C319.292,217.314,314.039,212.555,304.88,212.555 M275.992,202.828
		c-1.394,0-2.527,1.121-2.527,2.5s1.134,2.5,2.527,2.5c1.395,0,2.528-1.121,2.528-2.5S277.387,202.828,275.992,202.828
		 M188.684,212.188c-12.146,0-20.307,8.063-20.307,20.065c0,12.143,8.183,19.99,20.848,19.99c5.099,0,9.207-1.4,13.319-4.545
		c-0.005,0.006,0.215-0.326,0.215-0.326l-0.231-0.512l-0.094-0.117c-0.743-1.061-0.997-1.324-1.752-2.102l-0.132-0.137
		c-0.24-0.232-0.681-0.313-0.919-0.08c-1.008,0.916-4.739,3.924-10.247,3.924c-10.813,0-16.079-7.539-16.453-14.629h31.969
		c0.491,0,1.095-0.051,1.407-0.451l0.005-0.006c0.754-1.035,0.817-1.707,0.817-3.518
		C207.129,222.666,201.267,212.188,188.684,212.188 M173.031,229.752c0.666-7.723,7.448-13.746,15.574-13.746
		c8.651,0,13.57,6.879,14.031,13.746H173.031z M277.029,213.296h-2.639c-0.582,0-0.83,0.239-0.83,0.8v35.721
		c0,1.029,0.119,1.172,0.986,1.172h2.561c0.747,0,0.908-0.17,0.908-0.951v-35.941C278.016,213.406,277.781,213.296,277.029,213.296"
		/>
	<path fill="#FF7FA9" d="M196.617,140.219c0.049-0.044,0.094-0.09,0.145-0.133c1.11-2.565,1.835-5.461,2.023-8.55
		c0.021-0.344,0.031-0.684,0.04-1.024c-3.057-4.174-3.655-9.954,1.062-9.954c4.606,0,3.214,7.536,0.996,10.646
		c0.007,0.066,0.009,0.131,0.016,0.197c0.267,2.771,0.959,5.382,1.969,7.727c1.836-2.234,3.936-4.411,6.286-6.46
		c3.612-3.153,7.444-5.676,11.243-7.543c-5.176-5.321-12.405-8.637-20.398-8.637c-8.109,0-15.432,3.415-20.62,8.875
		c3.572,1.783,7.152,4.224,10.516,7.302C192.478,135.029,194.723,137.584,196.617,140.219 M221.778,126.648
		c-2.371,3.521-5.399,6.984-9.03,10.149c-2.249,1.962-4.583,3.68-6.94,5.15c0.022,0.042,0.041,0.087,0.062,0.13
		c2.431,1.091,5.149,1.843,8.058,2.123c0.078,0.007,0.155,0.01,0.233,0.018c4.185-3.127,10.063-3.776,10.063,0.979
		c0,4.521-7.259,3.264-10.47,1.12c-2.871,0.18-5.571,0.817-7.995,1.8c2.427,1.503,4.826,3.303,7.122,5.405
		c3.446,3.154,6.292,6.639,8.492,10.208c4.411-5.017,7.095-11.587,7.095-18.777C228.467,137.988,225.948,131.602,221.778,126.648
		 M202.56,150.298l-0.002,0.001c-0.921,2.241-1.553,4.708-1.806,7.325c-0.049,0.506-0.078,1.006-0.099,1.504
		c2.978,4.165,3.51,9.828-1.16,9.828c-4.719,0-3.141-7.905-0.832-10.863c-0.007-0.202-0.01-0.401-0.022-0.604
		c-0.174-2.819-0.786-5.474-1.735-7.865c-2.045,2.756-4.516,5.45-7.382,7.947c-3.278,2.862-6.744,5.185-10.186,6.93
		c5.191,5.487,12.532,8.92,20.662,8.92c7.764,0,14.808-3.126,19.949-8.183c-3.614-1.788-7.243-4.249-10.646-7.364
		C206.707,155.503,204.455,152.941,202.56,150.298 M186.171,153.73c2.935-2.563,6.02-4.679,9.104-6.35
		c-0.033-0.066-0.064-0.133-0.095-0.2c-2.15-0.756-4.493-1.248-6.958-1.4c-0.77-0.047-1.529-0.058-2.279-0.041
		c-4.188,3.167-10.122,3.85-10.122-0.932c0-4.582,7.449-3.229,10.593-1.035c0.553-0.019,1.11-0.048,1.674-0.104
		c1.931-0.187,3.781-0.583,5.52-1.145c-2.484-1.523-4.941-3.355-7.291-5.505c-3.385-3.099-6.197-6.519-8.382-10.022
		c-3.997,4.902-6.399,11.154-6.399,17.958c0,6.793,2.395,13.035,6.379,17.934C180.111,159.712,182.886,156.592,186.171,153.73"/>
	<path fill="#FF7FA9" d="M166.809,145.126c0,18.206,14.813,33.018,33.021,33.018c18.206,0,33.017-14.812,33.017-33.018
		s-14.811-33.018-33.017-33.018C181.622,112.108,166.809,126.92,166.809,145.126 M168.739,145.126
		c0-17.142,13.946-31.088,31.09-31.088c17.141,0,31.086,13.946,31.086,31.088s-13.945,31.088-31.086,31.088
		C182.686,176.214,168.739,162.268,168.739,145.126"/>
	<path fill="#002F50" d="M43.585,279.361h0.595l3.878,8.389H47.38l-1.059-2.332h-4.914l-1.059,2.332h-0.643L43.585,279.361z
		 M46.06,284.857l-2.189-4.818l-2.201,4.818H46.06z"/>
	<polygon fill="#002F50" points="58.741,279.422 59.36,279.422 59.36,287.189 64.25,287.189 64.25,287.75 58.741,287.75 	"/>
	<rect x="68.865" y="279.422" fill="#002F50" width="0.619" height="8.328"/>
	<polygon fill="#002F50" points="74.72,279.422 75.338,279.422 75.338,287.189 80.228,287.189 80.228,287.75 74.72,287.75 	"/>
	<polygon fill="#002F50" points="84.761,279.422 85.379,279.422 85.379,287.189 90.269,287.189 90.269,287.75 84.761,287.75 	"/>
	<polygon fill="#002F50" points="97.514,284.453 93.944,279.422 94.718,279.422 97.835,283.895 100.964,279.422 101.702,279.422 
		98.133,284.443 98.133,287.75 97.514,287.75 	"/>
	<path fill="#002F50" d="M112.242,279.422h3.022c0.46,0,0.877,0.057,1.255,0.172c0.377,0.115,0.702,0.281,0.976,0.5
		s0.485,0.484,0.637,0.797c0.15,0.314,0.226,0.672,0.226,1.076v0.023c0,0.438-0.088,0.822-0.262,1.154
		c-0.174,0.334-0.41,0.611-0.708,0.834c-0.297,0.221-0.643,0.389-1.035,0.5s-0.807,0.166-1.243,0.166h-2.248v3.105h-0.619V279.422z
		 M115.146,284.086c0.389,0,0.742-0.049,1.059-0.145c0.317-0.096,0.589-0.234,0.815-0.412c0.226-0.18,0.402-0.396,0.529-0.652
		c0.126-0.256,0.19-0.539,0.19-0.85v-0.025c0-0.334-0.063-0.625-0.185-0.879c-0.123-0.25-0.296-0.459-0.518-0.627
		c-0.223-0.168-0.488-0.297-0.797-0.385c-0.31-0.088-0.651-0.131-1.023-0.131h-2.355v4.105H115.146z"/>
	<path fill="#002F50" d="M126.15,287.881c-0.5,0-0.958-0.078-1.375-0.232c-0.416-0.154-0.777-0.385-1.082-0.689
		c-0.305-0.307-0.541-0.682-0.708-1.125c-0.166-0.443-0.25-0.959-0.25-1.547v-4.865h0.619v4.807c0,0.99,0.248,1.754,0.743,2.289
		s1.188,0.805,2.076,0.805c0.421,0,0.801-0.064,1.143-0.191c0.34-0.127,0.632-0.318,0.874-0.572c0.242-0.252,0.428-0.57,0.56-0.949
		c0.131-0.383,0.196-0.822,0.196-1.322v-4.865h0.618v4.795c0,0.594-0.083,1.119-0.25,1.576c-0.166,0.455-0.4,0.838-0.702,1.146
		c-0.301,0.311-0.66,0.545-1.076,0.703S126.657,287.881,126.15,287.881"/>
	<polygon fill="#002F50" points="134.585,279.422 135.204,279.422 135.204,287.189 140.094,287.189 140.094,287.75 134.585,287.75 	
		"/>
	<rect x="144.71" y="279.422" fill="#002F50" width="0.618" height="8.328"/>
	<polygon fill="#002F50" points="152.871,279.98 149.968,279.98 149.968,279.422 156.393,279.422 156.393,279.98 153.49,279.98 
		153.49,287.75 152.871,287.75 	"/>
	<polygon fill="#002F50" points="160.521,287.404 166.22,279.98 160.723,279.98 160.723,279.42 167.1,279.42 167.1,279.768 
		161.401,287.189 167.1,287.189 167.1,287.75 160.521,287.75 	"/>
	<polygon fill="#002F50" points="171.812,279.422 177.736,279.422 177.736,279.98 172.431,279.98 172.431,283.277 177.201,283.277 
		177.201,283.836 172.431,283.836 172.431,287.189 177.796,287.189 177.796,287.75 171.812,287.75 	"/>
	<path fill="#002F50" d="M182.459,279.422h3.498c0.515,0,0.972,0.072,1.368,0.219c0.396,0.148,0.723,0.348,0.977,0.602
		c0.197,0.199,0.352,0.432,0.463,0.697s0.167,0.549,0.167,0.85v0.023c0,0.35-0.062,0.66-0.185,0.934s-0.294,0.51-0.512,0.709
		c-0.218,0.197-0.476,0.357-0.774,0.48c-0.297,0.125-0.619,0.209-0.969,0.258l2.748,3.557h-0.785l-2.653-3.451h-0.023h-2.701v3.451
		h-0.618V279.422z M185.886,283.74c0.35,0,0.672-0.043,0.971-0.131c0.296-0.088,0.552-0.213,0.766-0.377
		c0.215-0.162,0.384-0.361,0.507-0.596s0.184-0.504,0.184-0.807v-0.023c0-0.564-0.208-1.01-0.624-1.336s-1.006-0.49-1.768-0.49
		h-2.844v3.76H185.886z"/>
	<path fill="#002F50" d="M209.049,287.869c-0.666,0-1.267-0.111-1.803-0.334c-0.534-0.223-1.052-0.555-1.552-0.998l0.405-0.465
		c0.229,0.215,0.458,0.398,0.684,0.553s0.458,0.281,0.695,0.381c0.239,0.1,0.488,0.174,0.75,0.227
		c0.263,0.051,0.548,0.078,0.856,0.078c0.31,0,0.595-0.043,0.856-0.127c0.263-0.082,0.483-0.197,0.666-0.344
		s0.325-0.322,0.428-0.523c0.105-0.203,0.155-0.422,0.155-0.662v-0.023c0-0.221-0.034-0.42-0.1-0.594
		c-0.068-0.174-0.191-0.334-0.369-0.477c-0.179-0.143-0.42-0.271-0.72-0.387c-0.303-0.113-0.69-0.219-1.167-0.314
		c-0.5-0.104-0.928-0.225-1.285-0.363c-0.356-0.139-0.647-0.301-0.874-0.488c-0.227-0.186-0.391-0.402-0.493-0.648
		c-0.104-0.246-0.154-0.527-0.154-0.844v-0.023c0-0.309,0.066-0.598,0.202-0.863c0.135-0.266,0.32-0.498,0.558-0.695
		c0.239-0.199,0.52-0.354,0.845-0.465s0.683-0.166,1.072-0.166c0.603,0,1.124,0.084,1.563,0.25c0.44,0.166,0.872,0.42,1.292,0.762
		l-0.394,0.486c-0.397-0.34-0.795-0.582-1.195-0.725s-0.832-0.215-1.291-0.215c-0.309,0-0.59,0.041-0.839,0.125
		c-0.25,0.084-0.464,0.197-0.642,0.34c-0.18,0.143-0.315,0.309-0.412,0.498c-0.095,0.191-0.143,0.395-0.143,0.607v0.023
		c0,0.223,0.035,0.424,0.102,0.602c0.067,0.178,0.19,0.34,0.37,0.488c0.178,0.146,0.425,0.279,0.743,0.398
		c0.317,0.119,0.721,0.23,1.214,0.334c0.967,0.197,1.664,0.477,2.093,0.838c0.428,0.361,0.642,0.848,0.642,1.457v0.023
		c0,0.334-0.067,0.641-0.207,0.922c-0.14,0.283-0.329,0.521-0.571,0.721s-0.531,0.354-0.868,0.465
		C209.824,287.813,209.454,287.869,209.049,287.869"/>
	<rect x="216.604" y="279.422" fill="#002F50" width="0.619" height="8.328"/>
	<path fill="#002F50" d="M226.277,287.893c-0.659,0-1.248-0.113-1.768-0.34s-0.958-0.533-1.314-0.922
		c-0.357-0.389-0.631-0.842-0.822-1.361c-0.188-0.52-0.285-1.074-0.285-1.66v-0.023c0-0.563,0.098-1.105,0.292-1.623
		c0.194-0.52,0.472-0.979,0.833-1.375c0.36-0.396,0.796-0.715,1.304-0.951c0.506-0.238,1.07-0.357,1.689-0.357
		c0.34,0,0.652,0.023,0.933,0.07c0.282,0.049,0.543,0.119,0.786,0.215c0.241,0.096,0.472,0.209,0.689,0.346
		c0.217,0.135,0.43,0.289,0.637,0.463l-0.404,0.465c-0.325-0.285-0.697-0.523-1.112-0.715c-0.416-0.189-0.939-0.285-1.565-0.285
		c-0.508,0-0.971,0.1-1.393,0.297c-0.42,0.197-0.783,0.467-1.088,0.809c-0.306,0.34-0.542,0.736-0.708,1.188
		c-0.165,0.451-0.25,0.926-0.25,1.426v0.023c0,0.537,0.081,1.037,0.244,1.498c0.162,0.457,0.399,0.854,0.708,1.186
		c0.31,0.334,0.685,0.594,1.124,0.785c0.439,0.189,0.938,0.283,1.494,0.283c0.262,0,0.52-0.023,0.774-0.076
		c0.253-0.051,0.491-0.121,0.718-0.207s0.438-0.188,0.637-0.303c0.197-0.115,0.372-0.234,0.522-0.361v-2.383h-2.783v-0.559h3.38
		v3.203c-0.382,0.332-0.852,0.623-1.411,0.873S226.958,287.893,226.277,287.893"/>
	<polygon fill="#002F50" points="234.461,279.422 235.044,279.422 240.79,286.666 240.79,279.422 241.386,279.422 241.386,287.75 
		240.921,287.75 235.056,280.35 235.056,287.75 234.461,287.75 	"/>
	<path fill="#002F50" d="M249.701,279.361h0.595l3.879,8.389h-0.678l-1.059-2.332h-4.915l-1.059,2.332h-0.643L249.701,279.361z
		 M252.176,284.857l-2.189-4.818l-2.2,4.818H252.176z"/>
	<polygon fill="#002F50" points="260.92,279.98 258.017,279.98 258.017,279.422 264.441,279.422 264.441,279.98 261.539,279.98 
		261.539,287.75 260.92,287.75 	"/>
	<path fill="#002F50" d="M272.282,287.881c-0.499,0-0.957-0.078-1.374-0.232s-0.776-0.385-1.082-0.689
		c-0.306-0.307-0.541-0.682-0.709-1.125c-0.166-0.443-0.249-0.959-0.249-1.547v-4.865h0.619v4.807c0,0.99,0.247,1.754,0.744,2.289
		c0.494,0.535,1.187,0.805,2.074,0.805c0.422,0,0.802-0.064,1.144-0.191c0.34-0.127,0.633-0.318,0.873-0.572
		c0.242-0.252,0.429-0.57,0.56-0.949c0.131-0.383,0.197-0.822,0.197-1.322v-4.865h0.617v4.795c0,0.594-0.083,1.119-0.249,1.576
		c-0.167,0.455-0.401,0.838-0.702,1.146c-0.302,0.311-0.66,0.545-1.077,0.703C273.252,287.801,272.79,287.881,272.282,287.881"/>
	<path fill="#002F50" d="M280.718,279.422h3.497c0.516,0,0.971,0.072,1.367,0.219c0.396,0.148,0.722,0.348,0.977,0.602
		c0.198,0.199,0.354,0.432,0.464,0.697c0.111,0.266,0.166,0.549,0.166,0.85v0.023c0,0.35-0.062,0.66-0.184,0.934
		c-0.123,0.273-0.294,0.51-0.512,0.709c-0.219,0.197-0.477,0.357-0.773,0.48c-0.297,0.125-0.62,0.209-0.969,0.258l2.747,3.557
		h-0.785l-2.652-3.451h-0.023h-2.702v3.451h-0.617V279.422z M284.144,283.74c0.349,0,0.672-0.043,0.969-0.131
		s0.555-0.213,0.769-0.377c0.214-0.162,0.382-0.361,0.505-0.596s0.184-0.504,0.184-0.807v-0.023c0-0.564-0.207-1.01-0.624-1.336
		c-0.416-0.326-1.006-0.49-1.766-0.49h-2.845v3.76H284.144z"/>
	<polygon fill="#002F50" points="291.995,279.422 297.921,279.422 297.921,279.98 292.614,279.98 292.614,283.277 297.385,283.277 
		297.385,283.836 292.614,283.836 292.614,287.189 297.98,287.189 297.98,287.75 291.995,287.75 	"/>
	<path fill="#002F50" d="M311.71,287.869c-0.667,0-1.268-0.111-1.802-0.334c-0.536-0.223-1.055-0.555-1.554-0.998l0.404-0.465
		c0.229,0.215,0.458,0.398,0.685,0.553c0.226,0.154,0.458,0.281,0.695,0.381c0.238,0.1,0.487,0.174,0.75,0.227
		c0.263,0.051,0.548,0.078,0.856,0.078s0.594-0.043,0.856-0.127c0.262-0.082,0.484-0.197,0.667-0.344
		c0.181-0.146,0.324-0.322,0.429-0.523c0.103-0.203,0.154-0.422,0.154-0.662v-0.023c0-0.221-0.035-0.42-0.102-0.594
		c-0.068-0.174-0.19-0.334-0.368-0.477c-0.18-0.143-0.419-0.271-0.721-0.387c-0.302-0.113-0.69-0.219-1.165-0.314
		c-0.501-0.104-0.93-0.225-1.286-0.363c-0.357-0.139-0.647-0.301-0.873-0.488c-0.228-0.186-0.392-0.402-0.495-0.648
		c-0.103-0.246-0.154-0.527-0.154-0.844v-0.023c0-0.309,0.066-0.598,0.203-0.863c0.134-0.266,0.32-0.498,0.559-0.695
		c0.237-0.199,0.52-0.354,0.846-0.465c0.323-0.111,0.68-0.166,1.07-0.166c0.603,0,1.123,0.084,1.563,0.25
		c0.439,0.166,0.871,0.42,1.291,0.762l-0.394,0.486c-0.396-0.34-0.795-0.582-1.194-0.725c-0.4-0.143-0.832-0.215-1.292-0.215
		c-0.309,0-0.587,0.041-0.838,0.125s-0.465,0.197-0.643,0.34c-0.179,0.143-0.315,0.309-0.41,0.498
		c-0.096,0.191-0.143,0.395-0.143,0.607v0.023c0,0.223,0.033,0.424,0.102,0.602c0.066,0.178,0.189,0.34,0.368,0.488
		c0.178,0.146,0.427,0.279,0.744,0.398c0.316,0.119,0.722,0.23,1.213,0.334c0.968,0.197,1.665,0.477,2.093,0.838
		c0.429,0.361,0.645,0.848,0.645,1.457v0.023c0,0.334-0.07,0.641-0.209,0.922c-0.14,0.283-0.329,0.521-0.571,0.721
		s-0.531,0.354-0.868,0.465C312.485,287.813,312.113,287.869,311.71,287.869"/>
	<polygon fill="#002F50" points="321.488,279.98 318.585,279.98 318.585,279.422 325.01,279.422 325.01,279.98 322.107,279.98 
		322.107,287.75 321.488,287.75 	"/>
	<path fill="#002F50" d="M333.373,287.893c-0.634,0-1.206-0.117-1.718-0.352c-0.513-0.234-0.95-0.547-1.314-0.939
		c-0.365-0.393-0.647-0.848-0.845-1.363c-0.199-0.514-0.297-1.059-0.297-1.629v-0.023c0-0.572,0.1-1.117,0.302-1.637
		c0.203-0.52,0.486-0.977,0.852-1.375c0.365-0.395,0.806-0.711,1.319-0.943c0.517-0.234,1.091-0.352,1.727-0.352
		c0.626,0,1.196,0.117,1.713,0.352c0.517,0.232,0.956,0.547,1.321,0.939c0.363,0.393,0.646,0.846,0.844,1.363
		c0.198,0.514,0.298,1.057,0.298,1.629c0.007,0.008,0.007,0.016,0,0.023c0,0.57-0.102,1.117-0.304,1.637s-0.486,0.977-0.852,1.373
		c-0.363,0.396-0.808,0.711-1.326,0.945C334.573,287.775,334.001,287.893,333.373,287.893 M333.398,287.332
		c0.514,0,0.989-0.096,1.421-0.291c0.433-0.193,0.805-0.459,1.118-0.797c0.314-0.338,0.558-0.73,0.732-1.184
		c0.174-0.451,0.262-0.936,0.262-1.451v-0.023c0-0.516-0.089-1.002-0.269-1.459c-0.178-0.455-0.423-0.852-0.737-1.188
		c-0.314-0.338-0.688-0.605-1.123-0.805c-0.437-0.197-0.913-0.297-1.43-0.297c-0.514,0-0.988,0.098-1.42,0.291
		c-0.434,0.195-0.806,0.461-1.119,0.797c-0.313,0.338-0.558,0.732-0.731,1.186c-0.175,0.451-0.262,0.936-0.262,1.451v0.023
		c0,0.516,0.089,1.002,0.268,1.457c0.178,0.455,0.424,0.854,0.737,1.189c0.313,0.338,0.688,0.605,1.125,0.803
		C332.406,287.234,332.882,287.332,333.398,287.332"/>
	<path fill="#002F50" d="M342.356,279.422h3.499c0.514,0,0.971,0.072,1.367,0.219c0.396,0.148,0.722,0.348,0.976,0.602
		c0.198,0.199,0.353,0.432,0.464,0.697c0.11,0.266,0.167,0.549,0.167,0.85v0.023c0,0.35-0.062,0.66-0.184,0.934
		c-0.125,0.273-0.294,0.51-0.514,0.709c-0.217,0.197-0.475,0.357-0.773,0.48c-0.297,0.125-0.62,0.209-0.969,0.258l2.748,3.557
		h-0.785l-2.653-3.451h-0.023h-2.7v3.451h-0.619V279.422z M345.783,283.74c0.349,0,0.673-0.043,0.97-0.131s0.553-0.213,0.767-0.377
		c0.214-0.162,0.384-0.361,0.507-0.596c0.122-0.234,0.184-0.504,0.184-0.807v-0.023c0-0.564-0.209-1.01-0.624-1.336
		c-0.416-0.326-1.005-0.49-1.768-0.49h-2.843v3.76H345.783z"/>
	<polygon fill="#002F50" points="353.635,279.422 359.56,279.422 359.56,279.98 354.254,279.98 354.254,283.277 359.023,283.277 
		359.023,283.836 354.254,283.836 354.254,287.189 359.619,287.189 359.619,287.75 353.635,287.75 	"/>
	<path fill="#002F50" d="M194.414,281.91c-1.497,0-2.661-1.201-2.661-2.662c0-1.459,1.179-2.676,2.677-2.676
		c1.494,0,2.66,1.201,2.66,2.66C197.09,280.693,195.91,281.91,194.414,281.91 M194.43,276.779c-1.401,0-2.455,1.113-2.455,2.469
		s1.046,2.455,2.439,2.455c1.4,0,2.455-1.111,2.455-2.471C196.869,277.877,195.821,276.779,194.43,276.779 M194.863,279.381
		l0.899,1.135h-0.412l-0.854-1.084h-0.782v1.084h-0.317v-2.697h1.209c0.575,0,0.995,0.303,0.995,0.783
		C195.601,279.043,195.299,279.299,194.863,279.381 M194.591,278.121h-0.877v1.018h0.84c0.406,0,0.715-0.178,0.715-0.525
		C195.269,278.305,195.011,278.121,194.591,278.121"/>
</g>
</svg>
