<?xml version="1.0" encoding="utf-8"?>
<!-- Generator: Adobe Illustrator 14.0.0, SVG Export Plug-In . SVG Version: 6.00 Build 43363)  -->
<!DOCTYPE svg PUBLIC "-//W3C//DTD SVG 1.1//EN" "http://www.w3.org/Graphics/SVG/1.1/DTD/svg11.dtd">
<svg version="1.1" id="Layer_1" xmlns="http://www.w3.org/2000/svg" xmlns:xlink="http://www.w3.org/1999/xlink" x="0px" y="0px"
	 width="400px" height="400px" viewBox="0 0 400 400" enable-background="new 0 0 400 400" xml:space="preserve">
<rect fill="#FFFFFF" stroke="#B3B3B3" stroke-width="4" width="400" height="400"/>
<g>
	<g>
		<g>
			<g>
				<path fill="#95D697" d="M198.922,186.621c0,4.836-2.32,10.359-6.96,16.57c-4.642,6.21-8.89,9.313-12.744,9.313h-6.177
					c-1.373,0-2.94-0.72-4.705-2.159c-2.289-1.896-3.432-4.148-3.432-6.765c0-2.743,0.572-4.787,1.715-6.126
					c1.144-1.337,2.827-2.007,5.049-2.007v2.743c-1.045,0.785-2.093,1.568-3.137,2.353c-0.196,0.195-0.294,0.981-0.294,2.354
					c0,2.091,0.621,3.529,1.863,4.313c1.24,0.785,2.907,1.175,5,1.175c3.004,0,5.815-1.663,8.431-4.998
					c3.005-3.856,4.51-8.56,4.51-14.116v-16.963c-0.98-2.023-1.929-4.083-2.843-6.173c-2.616-4.708-5.686-8.531-9.215-11.473
					c-4.968-4.116-10.49-6.176-16.569-6.176c-6.144,0-12.19,1.961-18.137,5.883c-6.928,4.575-10.392,10.099-10.392,16.569
					c0,2.351,0.849,4.444,2.549,6.272c1.96,2.156,4.509,3.235,7.646,3.235c1.829,0,2.875-0.033,3.137-0.099
					c0.522-0.128,1.503-0.782,2.94-1.958h2.745v3.431c-1.765,2.482-3.774,4.46-6.028,5.929c-2.255,1.473-4.789,2.208-7.599,2.208
					c-2.744,0-5.72-1.208-8.921-3.628c-3.595-2.681-5.392-5.556-5.392-8.626v-6.081c0-5.358,3.824-11.01,11.471-16.959
					c8.169-6.404,16.6-9.607,25.293-9.607h6.863c7.581,0,14.902,2.843,21.96,8.528c7.581,6.081,11.372,13.007,11.372,20.785V186.621
					z M172.355,157.995c-0.262,0-1.079,1.37-2.451,4.117c-1.896,3.921-3.431,8.464-4.607,13.627
					c-1.635,7.385-2.452,15.75-2.452,25.097v6.176c-0.458,3.136-0.882,6.243-1.274,9.313c-1.177,7.517-2.387,13.301-3.627,17.352
					c-1.896,6.276-3.89,9.412-5.98,9.412h-6.863c-1.242,0-2.107-0.327-2.598-0.98c-0.491-0.653-0.736-1.241-0.736-1.766
					c1.045-2.938,2.124-6.765,3.235-11.47c2.288-9.411,4.608-20.099,6.961-32.059c1.307-6.599,2.482-11.795,3.529-15.585
					c1.961-6.93,4.15-12.515,6.569-16.764c3.071-5.358,6.502-8.431,10.293-9.217V157.995z"/>
				<path fill="#95D697" d="M278.723,164.046c0,0.723-0.211,1.638-0.637,2.747c-0.428,1.113-0.998,2.288-1.717,3.529h-3.137
					c0.521-3.79,1.047-6.437,1.568-7.939c0.525-1.046,1.047-2.093,1.568-3.14c-0.654-1.37-1.242-2.449-1.764-3.235
					c-3.4-4.705-8.07-7.059-14.02-7.059c-10.262,0-19.541,5.232-27.84,15.691c-6.408,8.042-11.768,18.372-16.078,30.986
					c-3.4,9.874-5.101,16.999-5.101,21.379v9.512c0,3.661,1.601,6.8,4.807,9.415c2.677,2.156,5.031,3.235,7.058,3.235
					c9.803,0,17.254-6.147,22.35-18.438c1.961-4.643,4.969-16.475,9.02-35.5c2.941-13.598,6.438-21.214,10.492-22.848h5.586
					c-0.328,2.288-1.615,8.646-3.873,19.072c-2.256,10.429-4,19.075-5.242,25.942c-1.832,10.196-2.746,17.879-2.746,23.046
					c0,1.308,0.293,2.681,0.885,4.117c0.586,1.438,1.336,2.159,2.254,2.159c1.631,0,3.559-1.242,5.785-3.729
					c5.553-6.14,8.885-9.375,10-9.705v3.235c-2.748,4.576-5.785,8.22-9.119,10.931c-3.334,2.714-6.604,4.07-9.805,4.07
					c-4.184,0-7.191-2.255-9.02-6.764c-1.242-3.27-2.449-6.537-3.629-9.805c-6.797,8.572-11.074,13.481-12.842,14.726
					c-3.201,2.292-6.83,3.435-10.881,3.435c-6.731,0-12.486-2.81-17.256-8.436c-4.313-5.101-6.469-10.462-6.469-16.084v-11.086
					c0-6.474,2.873-14.582,8.627-24.324c6.207-10.528,13.691-19.19,22.449-25.992c10.393-8.108,20.848-12.165,31.373-12.165
					c4.443,0,8.445,1.34,12.01,4.021c3.563,2.681,5.342,5.556,5.342,8.626V164.046z"/>
			</g>
		</g>
		<g>
			<path fill="#093251" d="M24.126,193.131c0-5.802,0-6.856-0.088-8.043c-0.088-1.274-0.308-1.888-1.582-2.065
				c-0.307-0.044-0.966-0.087-1.318-0.087c-0.132,0-0.308-0.177-0.308-0.309c0-0.22,0.176-0.307,0.616-0.307
				c1.758,0,4.174,0.087,4.482,0.087c0.835,0,3.735-0.087,5.493-0.087c4.966,0,6.724,1.538,7.384,2.109
				c0.879,0.791,1.934,2.461,1.934,4.483c0,5.362-4.043,8.922-9.977,8.922c-0.219,0-0.877,0-1.098-0.044
				c-0.176,0-0.396-0.177-0.396-0.352c0-0.306,0.22-0.396,1.011-0.396c4.175,0,7.163-2.637,7.163-6.021
				c0-1.231-0.131-3.647-2.197-5.67c-2.022-2.022-4.351-1.803-5.23-1.803c-0.659,0-1.758,0.177-2.153,0.264
				c-0.22,0.044-0.309,0.309-0.309,0.704v15.206c0,3.605,0,6.55,0.176,8.087c0.133,1.099,0.352,1.802,1.539,1.979
				c0.528,0.087,1.363,0.174,1.714,0.174c0.219,0,0.308,0.177,0.308,0.309c0,0.176-0.176,0.308-0.615,0.308
				c-2.11,0-4.658-0.132-4.835-0.132c-0.131,0-2.636,0.132-3.823,0.132c-0.396,0-0.615-0.087-0.615-0.308
				c0-0.132,0.088-0.309,0.308-0.309c0.352,0,0.835-0.087,1.187-0.174c0.747-0.177,0.835-0.88,1.011-1.979
				c0.22-1.537,0.22-4.482,0.22-8.087V193.131z"/>
			<path fill="#093251" d="M53.966,183.067c0.484-1.231,0.66-1.451,0.923-1.451c0.396,0,0.528,0.526,0.923,1.362
				c0.703,1.583,6.9,17.009,9.272,22.678c1.407,3.34,2.461,3.824,3.296,4.088c0.571,0.177,1.143,0.219,1.538,0.219
				c0.22,0,0.484,0.088,0.484,0.309s-0.439,0.308-0.879,0.308c-0.572,0-3.428,0-6.109-0.087c-0.747-0.045-1.363-0.045-1.363-0.265
				c0-0.177,0.088-0.177,0.264-0.265c0.219-0.087,0.615-0.396,0.352-1.01l-3.472-8.57c-0.089-0.176-0.132-0.219-0.352-0.219h-8.921
				c-0.176,0-0.309,0.087-0.396,0.306l-2.197,5.977c-0.352,0.923-0.572,1.845-0.572,2.506c0,0.746,0.659,1.01,1.319,1.01h0.351
				c0.309,0,0.396,0.132,0.396,0.309c0,0.221-0.22,0.308-0.571,0.308c-0.923,0-3.033-0.132-3.472-0.132
				c-0.396,0-2.329,0.132-3.912,0.132c-0.483,0-0.748-0.087-0.748-0.308c0-0.177,0.176-0.309,0.352-0.309
				c0.264,0,0.835-0.042,1.143-0.087c1.758-0.219,2.505-1.539,3.253-3.429L53.966,183.067z M58.274,198.625
				c0.176,0,0.176-0.088,0.131-0.265l-3.823-10.238c-0.22-0.573-0.44-0.573-0.66,0l-3.604,10.238c-0.044,0.177,0,0.265,0.132,0.265
				H58.274z"/>
			<path fill="#093251" d="M81.125,199.723c0,3.605,0,6.55,0.176,8.087c0.133,1.099,0.307,1.802,1.494,1.979
				c0.527,0.087,1.406,0.174,1.758,0.174c0.264,0,0.308,0.177,0.308,0.309c0,0.176-0.176,0.308-0.615,0.308
				c-2.11,0-4.571-0.132-4.791-0.132c-0.176,0-2.857,0.132-3.999,0.132c-0.44,0-0.616-0.087-0.616-0.308
				c0-0.132,0.087-0.264,0.308-0.264c0.351,0,0.791-0.087,1.142-0.177c0.792-0.174,1.011-0.922,1.143-2.021
				c0.176-1.537,0.176-4.482,0.176-8.087v-15.69l-5.582,0.089c-2.417,0.043-3.339,0.307-3.911,1.188
				c-0.44,0.658-0.484,0.922-0.616,1.185c-0.087,0.309-0.219,0.352-0.395,0.352c-0.087,0-0.264-0.088-0.264-0.307
				c0-0.396,0.792-3.736,0.835-4.043c0.088-0.221,0.264-0.703,0.396-0.703c0.263,0,0.659,0.307,1.713,0.439
				c1.1,0.132,2.593,0.175,3.032,0.175h14.592c1.274,0,2.154-0.087,2.769-0.175c0.571-0.089,0.922-0.177,1.099-0.177
				c0.175,0,0.175,0.219,0.175,0.44c0,1.143-0.131,3.823-0.131,4.262c0,0.307-0.176,0.484-0.352,0.484s-0.264-0.132-0.308-0.659
				l-0.043-0.396c-0.132-1.142-0.968-1.977-4.66-2.065l-4.834-0.089V199.723z"/>
			<path fill="#093251" d="M99.496,193.131c0-5.802,0-6.856-0.089-8.043c-0.087-1.274-0.308-1.888-1.582-2.065
				c-0.307-0.044-0.967-0.087-1.318-0.087c-0.132,0-0.308-0.177-0.308-0.309c0-0.22,0.176-0.307,0.616-0.307
				c1.758,0,4.351,0.087,4.571,0.087c0.395,0,3.647-0.087,4.834-0.087c2.461,0,5.186,0.219,7.208,1.626
				c0.967,0.703,2.68,2.505,2.68,5.099c0,2.768-1.142,5.449-4.747,8.525c3.165,3.956,5.846,7.338,8.087,9.668
				c2.065,2.109,3.34,2.461,4.307,2.593c0.747,0.132,1.143,0.132,1.362,0.132c0.221,0,0.352,0.177,0.352,0.309
				c0,0.221-0.22,0.308-0.923,0.308h-2.416c-2.198,0-3.165-0.22-4.132-0.748c-1.671-0.878-3.077-2.681-5.274-5.492
				c-1.625-2.022-3.34-4.439-4.175-5.45c-0.176-0.176-0.264-0.219-0.527-0.219l-4.922-0.089c-0.176,0-0.263,0.089-0.263,0.308v0.878
				c0,3.604,0,6.507,0.176,8.044c0.132,1.099,0.352,1.802,1.539,1.979c0.526,0.087,1.362,0.174,1.713,0.174
				c0.264,0,0.308,0.177,0.308,0.309c0,0.176-0.176,0.308-0.615,0.308c-2.109,0-4.571-0.132-4.748-0.132
				c-0.043,0-2.636,0.132-3.823,0.132c-0.396,0-0.616-0.087-0.616-0.308c0-0.132,0.088-0.309,0.308-0.309
				c0.352,0,0.835-0.087,1.187-0.174c0.747-0.177,0.834-0.88,1.011-1.979c0.22-1.537,0.22-4.482,0.22-8.087V193.131z
				 M102.835,196.296c0,0.219,0.087,0.351,0.263,0.483c0.571,0.308,2.549,0.572,4.264,0.572c0.922,0,1.977-0.045,2.9-0.661
				c1.319-0.878,2.329-2.855,2.329-5.713c0-4.658-2.549-7.338-6.68-7.338c-1.143,0-2.374,0.132-2.769,0.219
				c-0.177,0.088-0.308,0.22-0.308,0.439V196.296z"/>
			<path fill="#093251" d="M132.543,199.723c0,3.605,0,6.55,0.176,8.087c0.131,1.099,0.264,1.802,1.407,1.979
				c0.571,0.087,1.406,0.174,1.758,0.174c0.22,0,0.308,0.177,0.308,0.309c0,0.176-0.176,0.308-0.615,0.308
				c-2.154,0-4.658-0.132-4.835-0.132c-0.219,0-2.635,0.132-3.823,0.132c-0.396,0-0.615-0.087-0.615-0.308
				c0-0.132,0.088-0.309,0.308-0.309c0.351,0,0.835-0.087,1.187-0.174c0.747-0.177,0.879-0.88,1.011-1.979
				c0.175-1.537,0.22-4.482,0.22-8.087v-6.592c0-5.802,0-6.856-0.088-8.043c-0.087-1.274-0.396-1.845-1.23-2.021
				c-0.439-0.089-0.923-0.132-1.187-0.132c-0.175,0-0.307-0.177-0.307-0.309c0-0.22,0.176-0.307,0.615-0.307
				c1.275,0,3.691,0.087,3.911,0.087c0.177,0,2.682-0.087,3.868-0.087c0.44,0,0.616,0.087,0.616,0.307
				c0,0.132-0.176,0.309-0.308,0.309c-0.263,0-0.527,0-0.966,0.087c-1.055,0.22-1.274,0.748-1.363,2.065
				c-0.044,1.187-0.044,2.242-0.044,8.043V199.723z"/>
			<path fill="#093251" d="M145.814,207.063c-3.779-3.252-4.701-7.516-4.701-11.076c0-2.504,0.922-6.855,4.351-10.196
				c2.33-2.242,5.845-3.999,11.779-3.999c1.537,0,3.735,0.131,5.625,0.439c1.45,0.264,2.68,0.526,3.955,0.571
				c0.396,0,0.484,0.175,0.484,0.396c0,0.307-0.088,0.746-0.176,2.11c-0.043,1.229-0.043,3.294-0.088,3.823
				c-0.043,0.571-0.22,0.791-0.439,0.791c-0.265,0-0.308-0.264-0.308-0.791c0-1.451-0.616-2.945-1.626-3.736
				c-1.362-1.144-4.176-2.066-7.603-2.066c-4.966,0-7.34,1.319-8.702,2.593c-2.856,2.638-3.472,5.977-3.472,9.757
				c0,7.165,5.67,13.537,13.932,13.537c2.9,0,4.834-0.221,6.373-1.759c0.835-0.834,1.362-2.417,1.494-3.119
				c0.088-0.397,0.132-0.527,0.396-0.527c0.174,0,0.351,0.263,0.351,0.527c0,0.264-0.528,3.516-0.923,4.789
				c-0.219,0.703-0.307,0.835-0.966,1.1c-1.583,0.615-4.482,0.836-6.988,0.836C152.758,211.063,148.847,209.699,145.814,207.063z"/>
			<path fill="#093251" d="M180.138,199.723c0,3.605,0,6.55,0.175,8.087c0.132,1.099,0.264,1.802,1.406,1.979
				c0.572,0.087,1.406,0.174,1.758,0.174c0.22,0,0.307,0.177,0.307,0.309c0,0.176-0.174,0.308-0.614,0.308
				c-2.153,0-4.66-0.132-4.835-0.132c-0.22,0-2.638,0.132-3.824,0.132c-0.396,0-0.616-0.087-0.616-0.308
				c0-0.132,0.088-0.309,0.309-0.309c0.352,0,0.835-0.087,1.187-0.174c0.746-0.177,0.879-0.88,1.01-1.979
				c0.176-1.537,0.22-4.482,0.22-8.087v-6.592c0-5.802,0-6.856-0.088-8.043c-0.087-1.274-0.396-1.845-1.231-2.021
				c-0.439-0.089-0.922-0.132-1.186-0.132c-0.176,0-0.307-0.177-0.307-0.309c0-0.22,0.175-0.307,0.614-0.307
				c1.274,0,3.692,0.087,3.912,0.087c0.175,0,2.682-0.087,3.868-0.087c0.439,0,0.615,0.087,0.615,0.307
				c0,0.132-0.176,0.309-0.308,0.309c-0.264,0-0.527,0-0.966,0.087c-1.055,0.22-1.275,0.748-1.362,2.065
				c-0.043,1.187-0.043,2.242-0.043,8.043V199.723z"/>
			<path fill="#093251" d="M199.605,183.067c0.484-1.231,0.66-1.451,0.924-1.451c0.394,0,0.528,0.526,0.922,1.362
				c0.703,1.583,6.9,17.009,9.273,22.678c1.406,3.34,2.462,3.824,3.295,4.088c0.573,0.177,1.145,0.219,1.539,0.219
				c0.221,0,0.484,0.088,0.484,0.309s-0.44,0.308-0.879,0.308c-0.571,0-3.43,0-6.109-0.087c-0.746-0.045-1.363-0.045-1.363-0.265
				c0-0.177,0.089-0.177,0.264-0.265c0.222-0.087,0.615-0.396,0.354-1.01l-3.473-8.57c-0.088-0.176-0.133-0.219-0.352-0.219h-8.922
				c-0.177,0-0.307,0.087-0.396,0.306l-2.198,5.977c-0.352,0.923-0.572,1.845-0.572,2.506c0,0.746,0.66,1.01,1.319,1.01h0.352
				c0.307,0,0.396,0.132,0.396,0.309c0,0.221-0.219,0.308-0.571,0.308c-0.923,0-3.033-0.132-3.472-0.132
				c-0.395,0-2.33,0.132-3.911,0.132c-0.483,0-0.747-0.087-0.747-0.308c0-0.177,0.175-0.309,0.352-0.309
				c0.262,0,0.834-0.042,1.141-0.087c1.759-0.219,2.505-1.539,3.252-3.429L199.605,183.067z M203.912,198.625
				c0.178,0,0.178-0.088,0.133-0.265l-3.823-10.238c-0.221-0.573-0.44-0.573-0.66,0l-3.603,10.238c-0.045,0.177,0,0.265,0.13,0.265
				H203.912z"/>
			<path fill="#093251" d="M241.311,183.067c0.482-1.231,0.658-1.451,0.922-1.451c0.396,0,0.529,0.526,0.922,1.362
				c0.705,1.583,6.902,17.009,9.275,22.678c1.406,3.34,2.461,3.824,3.297,4.088c0.57,0.177,1.141,0.219,1.537,0.219
				c0.221,0,0.484,0.088,0.484,0.309s-0.439,0.308-0.881,0.308c-0.57,0-3.426,0-6.107-0.087c-0.748-0.045-1.363-0.045-1.363-0.265
				c0-0.177,0.088-0.177,0.264-0.265c0.221-0.087,0.617-0.396,0.352-1.01l-3.471-8.57c-0.09-0.176-0.131-0.219-0.354-0.219h-8.92
				c-0.176,0-0.309,0.087-0.396,0.306l-2.197,5.977c-0.35,0.923-0.57,1.845-0.57,2.506c0,0.746,0.658,1.01,1.316,1.01h0.352
				c0.311,0,0.396,0.132,0.396,0.309c0,0.221-0.219,0.308-0.57,0.308c-0.924,0-3.031-0.132-3.473-0.132
				c-0.395,0-2.328,0.132-3.912,0.132c-0.482,0-0.746-0.087-0.746-0.308c0-0.177,0.176-0.309,0.352-0.309
				c0.264,0,0.836-0.042,1.143-0.087c1.758-0.219,2.504-1.539,3.252-3.429L241.311,183.067z M245.617,198.625
				c0.176,0,0.176-0.088,0.131-0.265l-3.822-10.238c-0.219-0.573-0.439-0.573-0.66,0l-3.604,10.238
				c-0.043,0.177,0,0.265,0.133,0.265H245.617z"/>
			<path fill="#093251" d="M262.844,193.131c0-5.802,0-6.856-0.088-8.043c-0.09-1.274-0.309-1.888-1.584-2.065
				c-0.307-0.044-0.967-0.087-1.318-0.087c-0.131,0-0.307-0.177-0.307-0.309c0-0.22,0.176-0.307,0.615-0.307
				c1.76,0,4.264,0.087,4.484,0.087c0.438,0,2.9-0.087,5.184-0.087c3.867,0,10.943-0.352,15.516,4.264
				c1.932,1.933,3.779,5.054,3.779,9.493c0,4.702-2.021,8.306-4.176,10.502c-1.67,1.713-5.143,4.307-11.734,4.307
				c-1.67,0-3.736-0.132-5.406-0.219c-1.67-0.132-2.988-0.22-3.162-0.22c-0.09,0-0.793,0.045-1.584,0.045
				c-0.791,0.043-1.713,0.087-2.328,0.087c-0.396,0-0.615-0.087-0.615-0.308c0-0.132,0.086-0.309,0.307-0.309
				c0.35,0,0.834-0.087,1.186-0.174c0.748-0.177,0.836-0.88,1.012-1.979c0.221-1.537,0.221-4.482,0.221-8.087V193.131z
				 M266.359,197.174c0,3.955,0,7.428,0.043,8.131c0.043,0.923,0.133,2.284,0.439,2.681c0.484,0.703,1.846,1.494,6.418,1.494
				c3.559,0,6.723-1.188,9.053-3.384c2.023-1.891,3.033-5.45,3.033-8.877c0-4.748-2.066-7.78-3.648-9.361
				c-3.648-3.693-7.91-4.176-12.525-4.176c-0.748,0-1.977,0.132-2.33,0.264c-0.352,0.132-0.482,0.307-0.482,0.748V197.174z"/>
			<path fill="#093251" d="M303.893,183.067c0.482-1.231,0.658-1.451,0.922-1.451c0.395,0,0.527,0.526,0.922,1.362
				c0.703,1.583,6.9,17.009,9.275,22.678c1.404,3.34,2.461,3.824,3.295,4.088c0.572,0.177,1.143,0.219,1.537,0.219
				c0.223,0,0.484,0.088,0.484,0.309s-0.439,0.308-0.879,0.308c-0.57,0-3.428,0-6.109-0.087c-0.746-0.045-1.361-0.045-1.361-0.265
				c0-0.177,0.088-0.177,0.262-0.265c0.223-0.087,0.615-0.396,0.354-1.01l-3.473-8.57c-0.088-0.176-0.133-0.219-0.352-0.219h-8.922
				c-0.176,0-0.307,0.087-0.396,0.306l-2.197,5.977c-0.352,0.923-0.57,1.845-0.57,2.506c0,0.746,0.658,1.01,1.318,1.01h0.352
				c0.307,0,0.395,0.132,0.395,0.309c0,0.221-0.219,0.308-0.57,0.308c-0.924,0-3.033-0.132-3.473-0.132
				c-0.396,0-2.328,0.132-3.912,0.132c-0.482,0-0.746-0.087-0.746-0.308c0-0.177,0.176-0.309,0.354-0.309
				c0.264,0,0.834-0.042,1.143-0.087c1.758-0.219,2.504-1.539,3.25-3.429L303.893,183.067z M308.197,198.625
				c0.176,0,0.176-0.088,0.133-0.265l-3.824-10.238c-0.221-0.573-0.439-0.573-0.658,0l-3.604,10.238
				c-0.045,0.177,0,0.265,0.133,0.265H308.197z"/>
			<path fill="#093251" d="M355.398,205.744c0.131,1.319,0.395,3.341,1.977,3.868c1.098,0.351,2.109,0.351,2.504,0.351
				c0.178,0,0.309,0.088,0.309,0.265c0,0.22-0.352,0.352-0.791,0.352c-0.879,0-5.186-0.087-6.592-0.22
				c-0.924-0.088-1.1-0.22-1.1-0.396c0-0.132,0.09-0.264,0.264-0.306c0.219-0.045,0.264-0.616,0.176-1.32l-1.846-18.897h-0.088
				l-9.318,19.074c-0.791,1.626-1.01,1.979-1.361,1.979s-0.572-0.353-1.318-1.715c-1.012-1.846-3.561-6.637-4.527-8.658
				c-1.141-2.375-4.262-8.658-4.922-10.197h-0.174l-1.496,16.876c-0.043,0.571-0.043,1.274-0.043,1.891
				c0,0.571,0.352,0.923,0.922,1.055c0.66,0.177,1.23,0.219,1.494,0.219c0.133,0,0.307,0.132,0.307,0.265
				c0,0.265-0.262,0.352-0.701,0.352c-1.451,0-3.295-0.132-3.605-0.132c-0.352,0-2.195,0.132-3.25,0.132
				c-0.396,0-0.66-0.087-0.66-0.352c0-0.133,0.176-0.265,0.395-0.265c0.309,0,0.57-0.042,1.143-0.132
				c1.275-0.219,1.32-1.581,1.496-2.987l2.813-24.392c0.043-0.396,0.219-0.659,0.439-0.659c0.264,0,0.57,0.131,0.791,0.571
				l11.689,23.205l11.25-23.162c0.178-0.352,0.352-0.614,0.615-0.614c0.266,0,0.484,0.307,0.572,1.01L355.398,205.744z"/>
			<path fill="#093251" d="M363.789,210.051c-0.527-0.262-0.572-0.394-0.572-1.405c0-1.847,0.176-3.34,0.221-3.956
				c0-0.395,0.088-0.615,0.307-0.615c0.221,0,0.354,0.132,0.354,0.441c0,0.306,0,0.833,0.131,1.361
				c0.615,2.725,3.516,3.69,6.109,3.69c3.822,0,5.801-2.153,5.801-4.965c0-2.681-1.449-3.956-4.879-6.506l-1.758-1.317
				c-4.176-3.121-5.537-5.406-5.537-7.999c0-4.396,3.471-7.032,8.57-7.032c1.539,0,3.076,0.219,4,0.439
				c0.746,0.176,1.055,0.176,1.361,0.176c0.309,0,0.396,0.043,0.396,0.263c0,0.176-0.178,1.406-0.178,3.957
				c0,0.571-0.043,0.835-0.307,0.835s-0.307-0.176-0.352-0.483c-0.045-0.441-0.352-1.451-0.572-1.847
				c-0.264-0.439-1.537-1.845-5.008-1.845c-2.814,0-5.145,1.406-5.145,4.044c0,2.372,1.188,3.735,5.012,6.329l1.098,0.746
				c4.703,3.208,6.328,5.803,6.328,9.009c0,2.199-0.832,4.571-3.604,6.374c-1.625,1.055-4.041,1.319-6.15,1.319
				C367.613,211.063,365.371,210.799,363.789,210.051z"/>
		</g>
		<path fill="#093251" d="M48.309,229.461c0-1.164-0.034-1.333-0.642-1.451c-0.118-0.017-0.371-0.034-0.507-0.034
			c-0.051,0-0.118-0.065-0.118-0.118c0-0.103,0.067-0.119,0.235-0.119c0.676,0,1.673,0.037,1.757,0.037
			c0.067,0,0.998-0.037,1.453-0.037c0.169,0,0.237,0.017,0.237,0.119c0,0.053-0.068,0.118-0.119,0.118c-0.101,0-0.202,0-0.371,0.034
			c-0.406,0.069-0.523,0.287-0.558,0.795c-0.017,0.456-0.017,0.879-0.017,1.485v1.604c0,0.66-0.017,0.677-0.202,0.78
			c-0.947,0.487-2.298,0.64-3.16,0.64c-1.131,0-3.243-0.135-4.899-1.538c-0.912-0.759-1.774-2.298-1.774-4.087
			c0-2.298,1.166-3.919,2.484-4.715c1.334-0.809,2.821-0.911,3.952-0.911c0.947,0,1.994,0.169,2.281,0.238
			c0.304,0.065,0.828,0.151,1.199,0.151c0.152,0,0.186,0.066,0.186,0.136c0,0.201-0.084,0.591-0.084,2.026
			c0,0.234-0.067,0.304-0.168,0.304c-0.084,0-0.102-0.086-0.102-0.221c-0.017-0.186-0.102-0.607-0.338-0.943
			c-0.371-0.542-1.504-1.117-3.429-1.117c-0.896,0-1.977,0.065-3.109,0.928c-0.86,0.66-1.469,1.944-1.469,3.615
			c0,2.03,1.047,3.482,1.571,3.972c1.183,1.099,2.433,1.502,3.801,1.502c0.523,0,1.216-0.049,1.604-0.267
			c0.186-0.103,0.305-0.172,0.305-0.44V229.461z"/>
		<path fill="#093251" d="M55.496,228.957c0,1.383,0,2.516,0.067,3.106c0.05,0.422,0.102,0.693,0.541,0.763
			c0.219,0.032,0.541,0.066,0.676,0.066c0.084,0,0.118,0.069,0.118,0.118c0,0.065-0.067,0.119-0.237,0.119
			c-0.827,0-1.79-0.054-1.858-0.054c-0.084,0-1.013,0.054-1.47,0.054c-0.152,0-0.236-0.036-0.236-0.119
			c0-0.049,0.034-0.118,0.118-0.118c0.135,0,0.321-0.034,0.456-0.066c0.288-0.069,0.338-0.341,0.388-0.763
			c0.068-0.591,0.085-1.724,0.085-3.106v-2.535c0-2.229,0-2.635-0.034-3.091c-0.034-0.491-0.152-0.709-0.473-0.778
			c-0.169-0.033-0.355-0.05-0.457-0.05c-0.067,0-0.118-0.066-0.118-0.119c0-0.082,0.067-0.119,0.236-0.119
			c0.49,0,1.419,0.037,1.503,0.037c0.068,0,1.031-0.037,1.486-0.037c0.169,0,0.237,0.037,0.237,0.119
			c0,0.053-0.068,0.119-0.119,0.119c-0.101,0-0.202,0-0.371,0.033c-0.406,0.086-0.49,0.287-0.523,0.795
			c-0.017,0.456-0.017,0.862-0.017,3.091V228.957z"/>
		<path fill="#093251" d="M60.381,226.422c0-2.229,0-2.635-0.034-3.091c-0.034-0.491-0.119-0.726-0.608-0.795
			c-0.118-0.017-0.372-0.033-0.507-0.033c-0.052,0-0.119-0.066-0.119-0.119c0-0.082,0.067-0.119,0.237-0.119
			c0.676,0,1.605,0.037,1.689,0.037c0.287,0,3.514,0.017,3.852,0c0.287-0.021,0.541-0.021,0.676-0.069
			c0.084-0.017,0.152-0.083,0.202-0.083c0.068,0,0.102,0.066,0.102,0.132c0,0.103-0.067,0.271-0.118,0.677
			c-0.018,0.136-0.034,0.779-0.068,0.947c-0.017,0.067-0.067,0.152-0.136,0.152c-0.067,0-0.118-0.069-0.118-0.168
			c0-0.119-0.051-0.357-0.135-0.542c-0.084-0.186-0.439-0.422-1.013-0.422l-2.434-0.033c-0.084,0-0.118,0.033-0.118,0.151v3.919
			c0,0.086,0,0.136,0.102,0.136l2.027-0.018c0.253,0,0.473,0,0.676-0.017c0.355-0.035,0.557-0.085,0.692-0.253
			c0.068-0.086,0.136-0.152,0.186-0.152c0.067,0,0.084,0.049,0.084,0.118c0,0.083-0.102,0.321-0.135,0.793
			c-0.034,0.287-0.05,0.861-0.05,0.964c0,0.136-0.034,0.287-0.136,0.287c-0.085,0-0.102-0.069-0.102-0.135
			c-0.016-0.152-0.034-0.356-0.101-0.525c-0.068-0.202-0.304-0.386-0.761-0.455c-0.371-0.05-2.128-0.034-2.381-0.034
			c-0.084,0-0.102,0.034-0.102,0.137v1.148c0,1.419,0,2.548,0.067,3.106c0.05,0.422,0.136,0.693,0.541,0.763
			c0.219,0.032,0.541,0.066,0.676,0.066c0.084,0,0.118,0.069,0.118,0.118c0,0.065-0.067,0.119-0.236,0.119
			c-0.827,0-1.791-0.054-1.858-0.054c-0.084,0-1.013,0.054-1.47,0.054c-0.152,0-0.236-0.036-0.236-0.119
			c0-0.049,0.033-0.118,0.118-0.118c0.136,0,0.321-0.051,0.457-0.066c0.286-0.054,0.32-0.341,0.387-0.763
			c0.085-0.591,0.085-1.724,0.085-3.106V226.422z"/>
		<path fill="#093251" d="M72.668,228.957c0,1.383,0,2.516,0.067,3.106c0.05,0.422,0.118,0.693,0.574,0.763
			c0.203,0.032,0.541,0.066,0.676,0.066c0.101,0,0.118,0.069,0.118,0.118c0,0.065-0.067,0.119-0.236,0.119
			c-0.811,0-1.756-0.054-1.841-0.054c-0.067,0-1.099,0.054-1.538,0.054c-0.168,0-0.235-0.036-0.235-0.119
			c0-0.049,0.033-0.102,0.118-0.102c0.135,0,0.304-0.034,0.439-0.067c0.305-0.069,0.389-0.356,0.439-0.778
			c0.068-0.591,0.068-1.724,0.068-3.106v-6.031l-2.145,0.032c-0.929,0.017-1.284,0.12-1.504,0.456
			c-0.169,0.255-0.186,0.356-0.237,0.459c-0.034,0.115-0.084,0.132-0.152,0.132c-0.034,0-0.102-0.032-0.102-0.115
			c0-0.152,0.305-1.437,0.321-1.556c0.034-0.085,0.102-0.271,0.152-0.271c0.102,0,0.254,0.118,0.66,0.169
			c0.422,0.049,0.996,0.069,1.166,0.069h5.609c0.489,0,0.828-0.037,1.064-0.069c0.219-0.033,0.355-0.066,0.423-0.066
			c0.067,0,0.067,0.083,0.067,0.168c0,0.439-0.051,1.47-0.051,1.639c0,0.118-0.066,0.184-0.135,0.184
			c-0.067,0-0.101-0.049-0.118-0.251l-0.017-0.15c-0.051-0.44-0.371-0.763-1.791-0.797l-1.858-0.032V228.957z"/>
		<path fill="#093251" d="M78.298,232.925c-0.203-0.099-0.219-0.152-0.219-0.537c0-0.711,0.067-1.284,0.083-1.522
			c0-0.152,0.034-0.238,0.119-0.238s0.135,0.053,0.135,0.173c0,0.114,0,0.319,0.052,0.521c0.235,1.046,1.351,1.419,2.348,1.419
			c1.47,0,2.229-0.828,2.229-1.908c0-1.03-0.558-1.522-1.875-2.502l-0.676-0.506c-1.605-1.198-2.129-2.076-2.129-3.073
			c0-1.69,1.335-2.704,3.294-2.704c0.591,0,1.183,0.083,1.537,0.169c0.288,0.065,0.405,0.065,0.523,0.065
			c0.119,0,0.153,0.021,0.153,0.103c0,0.069-0.067,0.542-0.067,1.521c0,0.219-0.018,0.32-0.119,0.32
			c-0.101,0-0.118-0.069-0.135-0.184c-0.017-0.169-0.136-0.559-0.219-0.711c-0.102-0.169-0.592-0.709-1.927-0.709
			c-1.081,0-1.977,0.54-1.977,1.555c0,0.911,0.456,1.437,1.927,2.43l0.422,0.287c1.807,1.234,2.432,2.231,2.432,3.466
			c0,0.842-0.321,1.757-1.385,2.447c-0.625,0.406-1.555,0.508-2.366,0.508C79.768,233.314,78.907,233.213,78.298,232.925z"/>
		<path fill="#093251" d="M104.65,230.81c-0.839,0-1.558-0.301-2.155-0.899c-0.599-0.598-0.898-1.316-0.898-2.155
			s0.302-1.558,0.908-2.155c0.605-0.601,1.32-0.898,2.146-0.898c0.826,0,1.54,0.298,2.146,0.898
			c0.605,0.598,0.908,1.316,0.908,2.155s-0.299,1.558-0.898,2.155C106.208,230.509,105.489,230.81,104.65,230.81z"/>
		<path fill="#093251" d="M128.375,222.553c0.187-0.473,0.255-0.559,0.355-0.559c0.153,0,0.203,0.205,0.355,0.525
			c0.271,0.607,2.653,6.536,3.564,8.719c0.541,1.284,0.946,1.469,1.267,1.568c0.22,0.068,0.439,0.086,0.591,0.086
			c0.084,0,0.186,0.032,0.186,0.118c0,0.083-0.169,0.119-0.338,0.119c-0.219,0-1.317,0-2.348-0.036
			c-0.287-0.018-0.523-0.018-0.523-0.1c0-0.069,0.034-0.069,0.102-0.102c0.084-0.034,0.236-0.152,0.134-0.39l-1.334-3.292
			c-0.034-0.069-0.05-0.086-0.136-0.086h-3.429c-0.067,0-0.118,0.032-0.152,0.118l-0.844,2.299
			c-0.135,0.353-0.219,0.709-0.219,0.961c0,0.286,0.253,0.39,0.507,0.39h0.135c0.118,0,0.152,0.049,0.152,0.118
			c0,0.083-0.085,0.119-0.219,0.119c-0.355,0-1.167-0.054-1.336-0.054c-0.152,0-0.895,0.054-1.502,0.054
			c-0.186,0-0.287-0.036-0.287-0.119c0-0.069,0.067-0.118,0.135-0.118c0.1,0,0.32-0.018,0.438-0.034
			c0.676-0.086,0.963-0.591,1.25-1.316L128.375,222.553z M130.031,228.534c0.067,0,0.067-0.033,0.051-0.103l-1.47-3.935
			c-0.084-0.221-0.169-0.221-0.253,0l-1.385,3.935c-0.018,0.069,0,0.103,0.05,0.103H130.031z"/>
		<path fill="#093251" d="M136.778,231.776c-1.452-1.248-1.808-2.889-1.808-4.256c0-0.964,0.355-2.635,1.672-3.918
			c0.896-0.862,2.247-1.539,4.528-1.539c0.591,0,1.436,0.05,2.162,0.169c0.557,0.102,1.03,0.204,1.52,0.221
			c0.152,0,0.187,0.066,0.187,0.152c0,0.118-0.035,0.287-0.068,0.809c-0.017,0.476-0.017,1.268-0.033,1.472
			c-0.017,0.218-0.085,0.304-0.169,0.304c-0.102,0-0.118-0.102-0.118-0.304c0-0.558-0.237-1.131-0.625-1.435
			c-0.522-0.44-1.604-0.797-2.922-0.797c-1.91,0-2.821,0.508-3.346,0.997c-1.097,1.014-1.334,2.298-1.334,3.751
			c0,2.753,2.18,5.203,5.355,5.203c1.115,0,1.858-0.083,2.45-0.677c0.322-0.321,0.524-0.929,0.574-1.198
			c0.035-0.152,0.05-0.202,0.152-0.202c0.068,0,0.136,0.099,0.136,0.202c0,0.102-0.203,1.35-0.355,1.841
			c-0.085,0.271-0.12,0.321-0.373,0.423c-0.606,0.234-1.722,0.32-2.685,0.32C139.447,233.314,137.943,232.789,136.778,231.776z"/>
		<path fill="#093251" d="M148.593,231.776c-1.453-1.248-1.808-2.889-1.808-4.256c0-0.964,0.355-2.635,1.673-3.918
			c0.896-0.862,2.247-1.539,4.527-1.539c0.591,0,1.437,0.05,2.162,0.169c0.558,0.102,1.03,0.204,1.52,0.221
			c0.152,0,0.187,0.066,0.187,0.152c0,0.118-0.035,0.287-0.068,0.809c-0.017,0.476-0.017,1.268-0.034,1.472
			c-0.017,0.218-0.085,0.304-0.168,0.304c-0.102,0-0.119-0.102-0.119-0.304c0-0.558-0.236-1.131-0.625-1.435
			c-0.524-0.44-1.605-0.797-2.923-0.797c-1.909,0-2.821,0.508-3.345,0.997c-1.098,1.014-1.335,2.298-1.335,3.751
			c0,2.753,2.18,5.203,5.356,5.203c1.115,0,1.857-0.083,2.449-0.677c0.32-0.321,0.522-0.929,0.574-1.198
			c0.035-0.152,0.05-0.202,0.152-0.202c0.068,0,0.135,0.099,0.135,0.202c0,0.102-0.202,1.35-0.354,1.841
			c-0.085,0.271-0.119,0.321-0.373,0.423c-0.607,0.234-1.722,0.32-2.685,0.32C151.262,233.314,149.757,232.789,148.593,231.776z"/>
		<path fill="#093251" d="M160.442,226.422c0-2.229,0-2.635-0.033-3.091c-0.035-0.491-0.12-0.726-0.609-0.795
			c-0.118-0.017-0.372-0.033-0.507-0.033c-0.051,0-0.119-0.066-0.119-0.119c0-0.082,0.067-0.119,0.237-0.119
			c0.676,0,1.638,0.037,1.723,0.037c0.102,0,3.21,0.017,3.547,0c0.287-0.021,0.558-0.069,0.675-0.086
			c0.068-0.017,0.136-0.066,0.204-0.066c0.05,0,0.068,0.066,0.068,0.132c0,0.103-0.085,0.271-0.12,0.677
			c-0.016,0.136-0.05,0.779-0.083,0.947c-0.018,0.067-0.068,0.152-0.135,0.152c-0.085,0-0.118-0.069-0.118-0.185
			c0-0.103-0.017-0.341-0.084-0.508c-0.102-0.238-0.253-0.338-1.065-0.439c-0.252-0.033-1.977-0.05-2.146-0.05
			c-0.067,0-0.083,0.05-0.083,0.151v3.902c0,0.1,0,0.151,0.083,0.151c0.187,0,2.146,0,2.484-0.032
			c0.354-0.036,0.574-0.054,0.727-0.205c0.101-0.102,0.167-0.185,0.219-0.185c0.05,0,0.085,0.032,0.085,0.118
			c0,0.083-0.085,0.321-0.118,0.793c-0.034,0.287-0.068,0.829-0.068,0.931c0,0.116-0.033,0.268-0.135,0.268
			c-0.067,0-0.102-0.05-0.102-0.133c0-0.135,0-0.287-0.067-0.475c-0.05-0.202-0.187-0.369-0.76-0.438
			c-0.406-0.051-1.994-0.066-2.247-0.066c-0.084,0-0.101,0.05-0.101,0.099v1.202c0,0.488-0.017,2.162,0,2.45
			c0.033,0.96,0.304,1.147,1.773,1.147c0.389,0,1.098,0,1.486-0.151c0.389-0.168,0.592-0.423,0.676-0.996
			c0.034-0.169,0.068-0.222,0.153-0.222c0.084,0,0.101,0.118,0.101,0.222c0,0.098-0.118,1.078-0.202,1.382
			c-0.102,0.373-0.253,0.373-0.828,0.373c-1.116,0-1.977-0.032-2.585-0.049c-0.624-0.037-1.014-0.037-1.233-0.037
			c-0.033,0-0.321,0-0.642,0.018c-0.287,0.02-0.624,0.036-0.862,0.036c-0.152,0-0.235-0.036-0.235-0.119
			c0-0.049,0.033-0.118,0.118-0.118c0.135,0,0.321-0.051,0.456-0.066c0.289-0.054,0.321-0.341,0.389-0.763
			c0.085-0.591,0.085-1.724,0.085-3.106V226.422z"/>
		<path fill="#093251" d="M168.504,232.925c-0.204-0.099-0.219-0.152-0.219-0.537c0-0.711,0.067-1.284,0.084-1.522
			c0-0.152,0.034-0.238,0.118-0.238c0.085,0,0.135,0.053,0.135,0.173c0,0.114,0,0.319,0.051,0.521
			c0.236,1.046,1.351,1.419,2.348,1.419c1.47,0,2.23-0.828,2.23-1.908c0-1.03-0.559-1.522-1.875-2.502l-0.675-0.506
			c-1.606-1.198-2.129-2.076-2.129-3.073c0-1.69,1.334-2.704,3.293-2.704c0.592,0,1.183,0.083,1.538,0.169
			c0.287,0.065,0.405,0.065,0.522,0.065c0.12,0,0.153,0.021,0.153,0.103c0,0.069-0.067,0.542-0.067,1.521
			c0,0.219-0.018,0.32-0.118,0.32c-0.102,0-0.119-0.069-0.135-0.184c-0.018-0.169-0.135-0.559-0.22-0.711
			c-0.102-0.169-0.592-0.709-1.927-0.709c-1.081,0-1.977,0.54-1.977,1.555c0,0.911,0.457,1.437,1.926,2.43l0.423,0.287
			c1.807,1.234,2.431,2.231,2.431,3.466c0,0.842-0.32,1.757-1.385,2.447c-0.625,0.406-1.555,0.508-2.365,0.508
			C169.974,233.314,169.113,233.213,168.504,232.925z"/>
		<path fill="#093251" d="M177.362,232.925c-0.204-0.099-0.219-0.152-0.219-0.537c0-0.711,0.067-1.284,0.084-1.522
			c0-0.152,0.034-0.238,0.118-0.238c0.085,0,0.135,0.053,0.135,0.173c0,0.114,0,0.319,0.051,0.521
			c0.236,1.046,1.352,1.419,2.348,1.419c1.47,0,2.23-0.828,2.23-1.908c0-1.03-0.559-1.522-1.875-2.502l-0.675-0.506
			c-1.606-1.198-2.129-2.076-2.129-3.073c0-1.69,1.334-2.704,3.293-2.704c0.592,0,1.183,0.083,1.538,0.169
			c0.287,0.065,0.405,0.065,0.523,0.065c0.119,0,0.152,0.021,0.152,0.103c0,0.069-0.067,0.542-0.067,1.521
			c0,0.219-0.018,0.32-0.118,0.32c-0.102,0-0.119-0.069-0.135-0.184c-0.018-0.169-0.135-0.559-0.22-0.711
			c-0.102-0.169-0.592-0.709-1.927-0.709c-1.081,0-1.977,0.54-1.977,1.555c0,0.911,0.457,1.437,1.926,2.43l0.423,0.287
			c1.807,1.234,2.431,2.231,2.431,3.466c0,0.842-0.32,1.757-1.385,2.447c-0.625,0.406-1.555,0.508-2.365,0.508
			C178.832,233.314,177.97,233.213,177.362,232.925z"/>
		<path fill="#093251" d="M191.675,222.063c3.345,0,5.88,2.044,5.88,5.388c0,3.212-2.383,5.863-5.964,5.863
			c-4.072,0-5.812-3.057-5.812-5.643C185.779,225.358,187.569,222.063,191.675,222.063z M192.013,232.724
			c1.334,0,4.021-0.71,4.021-4.866c0-3.446-2.095-5.252-4.443-5.252c-2.484,0-4.275,1.551-4.275,4.677
			C187.316,230.627,189.327,232.724,192.013,232.724z"/>
		<path fill="#093251" d="M200.67,226.422c0-2.229,0-2.635-0.033-3.091c-0.035-0.491-0.119-0.726-0.609-0.795
			c-0.117-0.017-0.372-0.033-0.507-0.033c-0.051,0-0.119-0.066-0.119-0.119c0-0.082,0.067-0.119,0.237-0.119
			c0.676,0,1.67,0.037,1.756,0.037c0.151,0,1.403-0.037,1.858-0.037c0.945,0,1.994,0.086,2.771,0.628
			c0.373,0.27,1.03,0.96,1.03,1.957c0,1.067-0.439,2.097-1.822,3.278c1.215,1.522,2.244,2.823,3.106,3.718
			c0.795,0.809,1.284,0.943,1.657,0.996c0.287,0.051,0.439,0.051,0.521,0.051c0.086,0,0.135,0.069,0.135,0.118
			c0,0.083-0.082,0.119-0.353,0.119h-0.932c-0.845,0-1.215-0.086-1.588-0.288c-0.64-0.339-1.182-1.029-2.026-2.111
			c-0.625-0.776-1.285-1.708-1.605-2.095c-0.066-0.069-0.102-0.085-0.201-0.085l-1.892-0.033c-0.069,0-0.103,0.033-0.103,0.118
			v0.338c0,1.386,0,2.499,0.066,3.09c0.053,0.422,0.135,0.693,0.591,0.763c0.204,0.032,0.524,0.066,0.66,0.066
			c0.103,0,0.12,0.069,0.12,0.118c0,0.065-0.07,0.119-0.238,0.119c-0.809,0-1.757-0.054-1.822-0.054
			c-0.021,0-1.015,0.054-1.473,0.054c-0.15,0-0.234-0.036-0.234-0.119c0-0.049,0.034-0.118,0.117-0.118
			c0.136,0,0.323-0.034,0.458-0.066c0.287-0.069,0.32-0.341,0.386-0.763c0.086-0.591,0.086-1.724,0.086-3.106V226.422z
			 M201.953,227.64c0,0.083,0.033,0.136,0.103,0.185c0.218,0.119,0.978,0.218,1.638,0.218c0.354,0,0.759-0.016,1.116-0.25
			c0.505-0.341,0.895-1.101,0.895-2.199c0-1.789-0.98-2.819-2.569-2.819c-0.438,0-0.91,0.05-1.063,0.082
			c-0.069,0.037-0.119,0.086-0.119,0.172V227.64z"/>
		<path fill="#093251" d="M213.38,228.957c0,1.383,0,2.516,0.065,3.106c0.053,0.422,0.102,0.693,0.541,0.763
			c0.223,0.032,0.541,0.066,0.677,0.066c0.083,0,0.12,0.069,0.12,0.118c0,0.065-0.07,0.119-0.238,0.119
			c-0.828,0-1.793-0.054-1.858-0.054c-0.086,0-1.015,0.054-1.47,0.054c-0.152,0-0.236-0.036-0.236-0.119
			c0-0.049,0.031-0.118,0.117-0.118c0.136,0,0.321-0.034,0.457-0.066c0.286-0.069,0.336-0.341,0.389-0.763
			c0.066-0.591,0.083-1.724,0.083-3.106v-2.535c0-2.229,0-2.635-0.034-3.091c-0.033-0.491-0.151-0.709-0.472-0.778
			c-0.167-0.033-0.356-0.05-0.456-0.05c-0.068,0-0.118-0.066-0.118-0.119c0-0.082,0.065-0.119,0.237-0.119
			c0.488,0,1.417,0.037,1.503,0.037c0.065,0,1.03-0.037,1.485-0.037c0.168,0,0.238,0.037,0.238,0.119c0,0.053-0.07,0.119-0.12,0.119
			c-0.102,0-0.2,0-0.37,0.033c-0.404,0.086-0.49,0.287-0.524,0.795c-0.016,0.456-0.016,0.862-0.016,3.091V228.957z"/>
		<path fill="#093251" d="M218.265,226.422c0-2.229,0-2.635-0.032-3.091c-0.037-0.491-0.118-0.726-0.611-0.795
			c-0.115-0.017-0.369-0.033-0.504-0.033c-0.051,0-0.12-0.066-0.12-0.119c0-0.082,0.069-0.119,0.238-0.119
			c0.673,0,1.638,0.037,1.724,0.037c0.099,0,3.209,0.017,3.545,0c0.287-0.021,0.559-0.069,0.678-0.086
			c0.064-0.017,0.135-0.066,0.201-0.066c0.053,0,0.068,0.066,0.068,0.132c0,0.103-0.084,0.271-0.119,0.677
			c-0.016,0.136-0.049,0.779-0.086,0.947c-0.016,0.067-0.064,0.152-0.131,0.152c-0.086,0-0.119-0.069-0.119-0.185
			c0-0.103-0.016-0.341-0.086-0.508c-0.102-0.238-0.254-0.338-1.063-0.439c-0.255-0.033-1.979-0.05-2.146-0.05
			c-0.069,0-0.086,0.05-0.086,0.151v3.902c0,0.1,0,0.151,0.086,0.151c0.186,0,2.146,0,2.482-0.032
			c0.357-0.036,0.575-0.054,0.727-0.205c0.102-0.102,0.168-0.185,0.223-0.185c0.049,0,0.082,0.032,0.082,0.118
			c0,0.083-0.082,0.321-0.119,0.793c-0.033,0.287-0.066,0.829-0.066,0.931c0,0.116-0.033,0.268-0.135,0.268
			c-0.066,0-0.104-0.05-0.104-0.133c0-0.135,0-0.287-0.065-0.475c-0.05-0.202-0.185-0.369-0.76-0.438
			c-0.405-0.051-1.993-0.066-2.248-0.066c-0.086,0-0.103,0.05-0.103,0.099v1.202c0,0.488-0.016,2.162,0,2.45
			c0.037,0.96,0.304,1.147,1.777,1.147c0.386,0,1.095,0,1.484-0.151c0.391-0.168,0.592-0.423,0.678-0.996
			c0.033-0.169,0.064-0.222,0.15-0.222c0.084,0,0.1,0.118,0.1,0.222c0,0.098-0.115,1.078-0.201,1.382
			c-0.102,0.373-0.254,0.373-0.829,0.373c-1.116,0-1.977-0.032-2.584-0.049c-0.624-0.037-1.015-0.037-1.231-0.037
			c-0.036,0-0.323,0-0.645,0.018c-0.286,0.02-0.623,0.036-0.861,0.036c-0.152,0-0.234-0.036-0.234-0.119
			c0-0.049,0.033-0.118,0.115-0.118c0.136,0,0.324-0.051,0.459-0.066c0.287-0.054,0.321-0.341,0.387-0.763
			c0.085-0.591,0.085-1.724,0.085-3.106V226.422z"/>
		<path fill="#093251" d="M226.326,232.925c-0.199-0.099-0.217-0.152-0.217-0.537c0-0.711,0.066-1.284,0.082-1.522
			c0-0.152,0.037-0.238,0.119-0.238c0.086,0,0.137,0.053,0.137,0.173c0,0.114,0,0.319,0.049,0.521
			c0.238,1.046,1.354,1.419,2.35,1.419c1.469,0,2.229-0.828,2.229-1.908c0-1.03-0.559-1.522-1.875-2.502l-0.676-0.506
			c-1.605-1.198-2.127-2.076-2.127-3.073c0-1.69,1.334-2.704,3.295-2.704c0.59,0,1.182,0.083,1.535,0.169
			c0.287,0.065,0.406,0.065,0.525,0.065c0.117,0,0.152,0.021,0.152,0.103c0,0.069-0.07,0.542-0.07,1.521
			c0,0.219-0.018,0.32-0.115,0.32c-0.102,0-0.119-0.069-0.137-0.184c-0.016-0.169-0.135-0.559-0.221-0.711
			c-0.102-0.169-0.59-0.709-1.924-0.709c-1.084,0-1.979,0.54-1.979,1.555c0,0.911,0.457,1.437,1.926,2.43l0.422,0.287
			c1.811,1.234,2.434,2.231,2.434,3.466c0,0.842-0.32,1.757-1.383,2.447c-0.629,0.406-1.555,0.508-2.369,0.508
			C227.797,233.314,226.936,233.213,226.326,232.925z"/>
		<path fill="#093251" d="M252.682,230.81c-0.838,0-1.559-0.301-2.156-0.899c-0.6-0.598-0.896-1.316-0.896-2.155
			s0.299-1.558,0.908-2.155c0.604-0.601,1.318-0.898,2.145-0.898s1.539,0.298,2.146,0.898c0.604,0.598,0.906,1.316,0.906,2.155
			s-0.301,1.558-0.896,2.155C254.24,230.509,253.52,230.81,252.682,230.81z"/>
		<path fill="#093251" d="M274.26,231.776c-1.453-1.248-1.807-2.889-1.807-4.256c0-0.964,0.354-2.635,1.672-3.918
			c0.896-0.862,2.248-1.539,4.527-1.539c0.592,0,1.438,0.05,2.162,0.169c0.559,0.102,1.031,0.204,1.52,0.221
			c0.152,0,0.189,0.066,0.189,0.152c0,0.118-0.037,0.287-0.07,0.809c-0.016,0.476-0.016,1.268-0.033,1.472
			c-0.018,0.218-0.086,0.304-0.168,0.304c-0.102,0-0.119-0.102-0.119-0.304c0-0.558-0.238-1.131-0.625-1.435
			c-0.523-0.44-1.605-0.797-2.924-0.797c-1.908,0-2.818,0.508-3.344,0.997c-1.1,1.014-1.334,2.298-1.334,3.751
			c0,2.753,2.178,5.203,5.354,5.203c1.117,0,1.859-0.083,2.449-0.677c0.32-0.321,0.525-0.929,0.576-1.198
			c0.031-0.152,0.049-0.202,0.152-0.202c0.064,0,0.135,0.099,0.135,0.202c0,0.102-0.205,1.35-0.357,1.841
			c-0.082,0.271-0.115,0.321-0.369,0.423c-0.607,0.234-1.723,0.32-2.688,0.32C276.93,233.314,275.424,232.789,274.26,231.776z"/>
		<path fill="#093251" d="M287.461,228.99c0,2.113,0.033,2.974,0.305,3.226c0.238,0.237,0.811,0.339,1.977,0.339
			c0.775,0,1.436-0.016,1.789-0.438c0.186-0.222,0.305-0.525,0.354-0.813c0.02-0.103,0.07-0.185,0.156-0.185
			c0.064,0,0.098,0.066,0.098,0.219c0,0.15-0.098,1.013-0.217,1.435c-0.104,0.341-0.152,0.39-0.947,0.39
			c-1.064,0-1.893-0.017-2.586-0.049c-0.672-0.02-1.182-0.037-1.621-0.037c-0.066,0-0.32,0-0.607,0.018
			c-0.305,0.02-0.627,0.036-0.861,0.036c-0.152,0-0.238-0.036-0.238-0.119c0-0.049,0.033-0.118,0.119-0.118
			c0.135,0,0.32-0.034,0.455-0.066c0.287-0.069,0.32-0.341,0.391-0.763c0.082-0.591,0.082-1.724,0.082-3.106v-2.535
			c0-2.229,0-2.635-0.033-3.091c-0.033-0.491-0.119-0.726-0.607-0.795c-0.119-0.017-0.373-0.033-0.508-0.033
			c-0.049,0-0.115-0.066-0.115-0.119c0-0.082,0.066-0.119,0.234-0.119c0.676,0,1.604,0.037,1.689,0.037
			c0.066,0,1.182-0.037,1.637-0.037c0.152,0,0.238,0.037,0.238,0.119c0,0.053-0.066,0.102-0.117,0.102
			c-0.104,0-0.322,0.018-0.49,0.034c-0.439,0.086-0.525,0.304-0.557,0.812c-0.018,0.456-0.018,0.862-0.018,3.091V228.99z"/>
		<path fill="#093251" d="M298.986,222.063c3.344,0,5.879,2.044,5.879,5.388c0,3.212-2.383,5.863-5.961,5.863
			c-4.074,0-5.814-3.057-5.814-5.643C293.09,225.358,294.883,222.063,298.986,222.063z M299.322,232.724
			c1.338,0,4.021-0.71,4.021-4.866c0-3.446-2.094-5.252-4.439-5.252c-2.486,0-4.277,1.551-4.277,4.677
			C294.627,230.627,296.639,232.724,299.322,232.724z"/>
		<path fill="#093251" d="M311.258,228.957c0,1.383,0,2.516,0.068,3.106c0.049,0.422,0.119,0.693,0.574,0.763
			c0.203,0.032,0.541,0.066,0.678,0.066c0.098,0,0.115,0.069,0.115,0.118c0,0.065-0.066,0.119-0.234,0.119
			c-0.813,0-1.758-0.054-1.842-0.054c-0.07,0-1.1,0.054-1.539,0.054c-0.168,0-0.234-0.036-0.234-0.119
			c0-0.049,0.033-0.102,0.115-0.102c0.137,0,0.307-0.034,0.443-0.067c0.303-0.069,0.387-0.356,0.439-0.778
			c0.064-0.591,0.064-1.724,0.064-3.106v-6.031l-2.145,0.032c-0.928,0.017-1.285,0.12-1.502,0.456
			c-0.17,0.255-0.189,0.356-0.238,0.459c-0.033,0.115-0.082,0.132-0.152,0.132c-0.033,0-0.102-0.032-0.102-0.115
			c0-0.152,0.303-1.437,0.322-1.556c0.033-0.085,0.1-0.271,0.152-0.271c0.1,0,0.25,0.118,0.656,0.169
			c0.424,0.049,0.998,0.069,1.166,0.069h5.609c0.492,0,0.828-0.037,1.066-0.069c0.219-0.033,0.354-0.066,0.42-0.066
			c0.068,0,0.068,0.083,0.068,0.168c0,0.439-0.049,1.47-0.049,1.639c0,0.118-0.07,0.184-0.135,0.184
			c-0.07,0-0.104-0.049-0.121-0.251l-0.016-0.15c-0.053-0.44-0.373-0.763-1.793-0.797l-1.857-0.032V228.957z"/>
		<path fill="#093251" d="M327.396,228.957c0,1.383,0.018,2.516,0.084,3.106c0.053,0.422,0.086,0.693,0.541,0.763
			c0.205,0.032,0.541,0.066,0.66,0.066c0.1,0,0.135,0.069,0.135,0.118c0,0.065-0.086,0.119-0.254,0.119
			c-0.813,0-1.756-0.054-1.842-0.054c-0.066,0-1.029,0.054-1.469,0.054c-0.168,0-0.238-0.036-0.238-0.119
			c0-0.049,0.035-0.118,0.119-0.118c0.135,0,0.303-0.034,0.439-0.066c0.303-0.069,0.355-0.357,0.406-0.779
			c0.064-0.591,0.064-1.671,0.064-3.057v-1.437c0-0.065-0.031-0.086-0.082-0.086h-6.199c-0.051,0-0.086,0.021-0.086,0.086v1.437
			c0,1.386,0,2.482,0.068,3.073c0.051,0.422,0.1,0.693,0.543,0.763c0.217,0.032,0.537,0.066,0.674,0.066
			c0.086,0,0.117,0.069,0.117,0.118c0,0.065-0.066,0.119-0.238,0.119c-0.824,0-1.771-0.054-1.838-0.054
			c-0.086,0-1.033,0.054-1.488,0.054c-0.152,0-0.234-0.036-0.234-0.119c0-0.049,0.031-0.118,0.115-0.118
			c0.135,0,0.324-0.034,0.459-0.066c0.287-0.069,0.32-0.341,0.387-0.763c0.086-0.591,0.086-1.724,0.086-3.106v-2.535
			c0-2.229,0-2.635-0.035-3.091c-0.035-0.491-0.117-0.726-0.609-0.795c-0.115-0.017-0.371-0.033-0.506-0.033
			c-0.049,0-0.117-0.066-0.117-0.119c0-0.082,0.068-0.119,0.236-0.119c0.674,0,1.621,0.037,1.707,0.037
			c0.066,0,1.014-0.037,1.469-0.037c0.168,0,0.234,0.037,0.234,0.119c0,0.053-0.066,0.119-0.115,0.119c-0.102,0-0.205,0-0.373,0.033
			c-0.406,0.086-0.488,0.287-0.523,0.795c-0.018,0.456-0.018,0.895-0.018,3.124v0.306c0,0.083,0.035,0.083,0.086,0.083h6.199
			c0.051,0,0.082,0,0.082-0.083v-0.306c0-2.229-0.016-2.668-0.031-3.124c-0.033-0.491-0.1-0.726-0.592-0.795
			c-0.119-0.017-0.371-0.033-0.506-0.033c-0.068,0-0.117-0.066-0.117-0.119c0-0.082,0.064-0.119,0.234-0.119
			c0.66,0,1.623,0.037,1.689,0.037c0.086,0,1.029-0.037,1.469-0.037c0.172,0,0.254,0.037,0.254,0.119
			c0,0.053-0.066,0.119-0.135,0.119c-0.104,0-0.186,0-0.369,0.033c-0.391,0.086-0.477,0.287-0.508,0.795
			c-0.035,0.456-0.035,0.862-0.035,3.091V228.957z"/>
		<path fill="#093251" d="M333.656,228.957c0,1.383,0,2.516,0.066,3.106c0.053,0.422,0.102,0.693,0.541,0.763
			c0.223,0.032,0.541,0.066,0.678,0.066c0.082,0,0.119,0.069,0.119,0.118c0,0.065-0.07,0.119-0.238,0.119
			c-0.828,0-1.793-0.054-1.859-0.054c-0.086,0-1.014,0.054-1.469,0.054c-0.15,0-0.236-0.036-0.236-0.119
			c0-0.049,0.031-0.118,0.117-0.118c0.135,0,0.32-0.034,0.455-0.066c0.287-0.069,0.338-0.341,0.391-0.763
			c0.066-0.591,0.082-1.724,0.082-3.106v-2.535c0-2.229,0-2.635-0.033-3.091c-0.031-0.491-0.152-0.709-0.473-0.778
			c-0.166-0.033-0.355-0.05-0.453-0.05c-0.07,0-0.121-0.066-0.121-0.119c0-0.082,0.066-0.119,0.238-0.119
			c0.488,0,1.416,0.037,1.502,0.037c0.066,0,1.031-0.037,1.486-0.037c0.168,0,0.238,0.037,0.238,0.119
			c0,0.053-0.07,0.119-0.119,0.119c-0.104,0-0.203,0-0.371,0.033c-0.404,0.086-0.49,0.287-0.525,0.795
			c-0.016,0.456-0.016,0.862-0.016,3.091V228.957z"/>
		<path fill="#093251" d="M339.166,231.169c0.033,1.182,0.168,1.538,0.576,1.638c0.27,0.068,0.607,0.086,0.742,0.086
			c0.066,0,0.117,0.049,0.117,0.118c0,0.083-0.102,0.119-0.27,0.119c-0.846,0-1.436-0.054-1.57-0.054
			c-0.137,0-0.76,0.054-1.438,0.054c-0.152,0-0.238-0.017-0.238-0.119c0-0.069,0.053-0.118,0.119-0.118
			c0.119,0,0.391-0.018,0.607-0.086c0.373-0.1,0.424-0.489,0.424-1.789v-8.228c0-0.574,0.086-0.727,0.203-0.727
			c0.17,0,0.424,0.287,0.574,0.439c0.234,0.237,2.396,2.535,4.695,4.899c1.469,1.521,3.057,3.225,3.516,3.701l-0.15-7.198
			c-0.021-0.931-0.104-1.251-0.559-1.337c-0.271-0.049-0.607-0.065-0.727-0.065c-0.104,0-0.119-0.086-0.119-0.136
			c0-0.086,0.119-0.103,0.287-0.103c0.678,0,1.383,0.037,1.555,0.037c0.17,0,0.656-0.037,1.266-0.037c0.15,0,0.27,0.017,0.27,0.103
			c0,0.05-0.064,0.136-0.168,0.136c-0.066,0-0.186,0-0.354,0.033c-0.492,0.102-0.523,0.39-0.523,1.251l-0.033,8.411
			c0,0.947-0.018,1.03-0.119,1.03c-0.152,0-0.305-0.115-1.133-0.878c-0.152-0.135-2.299-2.245-3.869-3.886
			c-1.725-1.806-3.395-3.563-3.85-4.07L339.166,231.169z"/>
	</g>
	<path fill="#093251" d="M359.377,229.461c0-1.164-0.031-1.333-0.641-1.451c-0.119-0.017-0.373-0.034-0.508-0.034
		c-0.049,0-0.115-0.065-0.115-0.118c0-0.103,0.066-0.119,0.234-0.119c0.676,0,1.674,0.037,1.756,0.037
		c0.068,0,0.996-0.037,1.455-0.037c0.17,0,0.234,0.017,0.234,0.119c0,0.053-0.064,0.118-0.117,0.118c-0.1,0-0.203,0-0.371,0.034
		c-0.406,0.069-0.525,0.287-0.557,0.795c-0.018,0.456-0.018,0.879-0.018,1.485v1.604c0,0.66-0.016,0.677-0.205,0.78
		c-0.943,0.487-2.297,0.64-3.158,0.64c-1.129,0-3.242-0.135-4.896-1.538c-0.914-0.759-1.775-2.298-1.775-4.087
		c0-2.298,1.164-3.919,2.482-4.715c1.336-0.809,2.822-0.911,3.955-0.911c0.943,0,1.992,0.169,2.281,0.238
		c0.305,0.065,0.826,0.151,1.199,0.151c0.15,0,0.184,0.066,0.184,0.136c0,0.201-0.082,0.591-0.082,2.026
		c0,0.234-0.07,0.304-0.168,0.304c-0.086,0-0.104-0.086-0.104-0.221c-0.016-0.186-0.102-0.607-0.34-0.943
		c-0.369-0.542-1.502-1.117-3.428-1.117c-0.896,0-1.977,0.065-3.107,0.928c-0.863,0.66-1.471,1.944-1.471,3.615
		c0,2.03,1.047,3.482,1.572,3.972c1.182,1.099,2.434,1.502,3.799,1.502c0.525,0,1.219-0.049,1.605-0.267
		c0.188-0.103,0.303-0.172,0.303-0.44V229.461z"/>
</g>
</svg>
