<?xml version="1.0" encoding="utf-8"?>
<!-- Generator: Adobe Illustrator 14.0.0, SVG Export Plug-In . SVG Version: 6.00 Build 43363)  -->
<!DOCTYPE svg PUBLIC "-//W3C//DTD SVG 1.1//EN" "http://www.w3.org/Graphics/SVG/1.1/DTD/svg11.dtd">
<svg version="1.1" id="Layer_1" xmlns="http://www.w3.org/2000/svg" xmlns:xlink="http://www.w3.org/1999/xlink" x="0px" y="0px"
	 width="400px" height="400px" viewBox="0 0 400 400" enable-background="new 0 0 400 400" xml:space="preserve">
<rect fill="#FFFFFF" stroke="#B3B3B3" stroke-width="4" width="400" height="400"/>
<g>
	<path fill="#253137" d="M299.582,211.224c-2.297,0-4.227-1.259-4.909-3.016l-4.951,1.529c1.457,3.464,5.325,5.981,9.86,5.981
		c5.74,0,10.44-4,10.44-8.997c0-4.944-4.7-8.991-10.44-8.991c-2.873,0-5.218-2.028-5.218-4.502c0-2.472,2.345-4.498,5.218-4.498
		c2.243,0,4.225,1.26,4.906,3.014l4.958-1.528c-1.464-3.462-5.321-5.981-9.864-5.981c-5.794,0-10.439,4.042-10.439,8.993
		c0,4.996,4.646,8.995,10.439,8.995c2.87,0,5.219,2.022,5.219,4.498S302.452,211.224,299.582,211.224z"/>
	<polygon fill="#253137" points="309.95,91.369 308.593,90.013 199.959,198.644 91.328,90.013 89.978,91.369 198.607,200 
		89.978,308.633 91.328,309.986 199.959,201.354 308.593,309.986 309.95,308.633 201.313,200 	"/>
	<path fill="#253137" d="M103.691,184.235H90.18v31.522h15.761c4.951,0,9.007-4.006,9.007-9.009c0-3.282-1.755-6.122-4.371-7.695
		c1.306-1.581,2.118-3.607,2.118-5.816C112.694,188.288,108.646,184.235,103.691,184.235z M94.681,188.737h9.011
		c2.472,0,4.505,2.026,4.505,4.5c0,2.484-2.033,4.508-4.505,4.508h-9.011V188.737z M105.94,211.254h-11.26v-9.006h11.26
		c2.482,0,4.502,2.031,4.502,4.501C110.442,209.229,108.423,211.254,105.94,211.254z"/>
	<path fill="#253137" d="M201.471,283.811c3.477,0,6.535,1.658,8.489,4.24l3.354-2.582c-2.723-3.566-7.009-5.896-11.843-5.896
		c-8.197,0-14.859,6.658-14.859,14.854c0,8.191,6.662,14.857,14.859,14.857c4.834,0,9.12-2.338,11.843-5.904l-3.354-2.582
		c-1.954,2.582-5.013,4.238-8.489,4.238c-5.863,0-10.615-4.756-10.615-10.609C190.855,288.566,195.607,283.811,201.471,283.811z"/>
	<polygon fill="#253137" points="199.149,110.228 200.774,110.228 200.774,91.695 208.496,91.695 208.496,90.07 191.429,90.07 
		191.429,91.695 199.149,91.695 	"/>
</g>
</svg>
