<?xml version="1.0" encoding="utf-8"?>
<!-- Generator: Adobe Illustrator 14.0.0, SVG Export Plug-In  -->
<!DOCTYPE svg PUBLIC "-//W3C//DTD SVG 1.1//EN" "http://www.w3.org/Graphics/SVG/1.1/DTD/svg11.dtd" [
	<!ENTITY ns_flows "http://ns.adobe.com/Flows/1.0/">
]>
<svg version="1.1"
	 xmlns="http://www.w3.org/2000/svg" xmlns:xlink="http://www.w3.org/1999/xlink" xmlns:a="http://ns.adobe.com/AdobeSVGViewerExtensions/3.0/"
	 x="0px" y="0px" width="252px" height="215px" viewBox="200.7 108 252 215" enable-background="new 200.7 108 252 215"
	 xml:space="preserve">
<defs>
</defs>
<rect fill="none" width="448" height="257.3"/>
<path fill="#002F50" d="M240.1,279.2l-0.8-1.8h-3.9l-0.8,1.8H234l3-6.6h0.5l3,6.6H240.1z M237.3,273.2l-1.7,3.8h3.4L237.3,273.2z"/>
<path fill="#002F50" d="M248.5,279.2v-6.5h0.5v6.1h3.8v0.4H248.5z"/>
<path fill="#002F50" d="M256.2,279.2v-6.5h0.5v6.5H256.2z"/>
<path fill="#002F50" d="M260.6,279.2v-6.5h0.5v6.1h3.8v0.4H260.6z"/>
<path fill="#002F50" d="M268.2,279.2v-6.5h0.5v6.1h3.8v0.4H268.2z"/>
<path fill="#002F50" d="M277.2,276.6v2.6h-0.5v-2.6l-2.8-3.9h0.6l2.4,3.5l2.5-3.5h0.6L277.2,276.6z"/>
<path fill="#002F50" d="M290.1,276.8h-1.8v2.4h-0.5v-6.5h2.4c1.4,0,2.4,0.7,2.4,2v0C292.6,276.1,291.5,276.8,290.1,276.8z
	 M292.1,274.7c0-1-0.8-1.6-2-1.6h-1.8v3.2h1.8C291.3,276.4,292.1,275.7,292.1,274.7L292.1,274.7z"/>
<path fill="#002F50" d="M298.5,279.3c-1.6,0-2.7-1-2.7-2.8v-3.8h0.5v3.8c0,1.5,0.8,2.4,2.2,2.4c1.3,0,2.2-0.8,2.2-2.4v-3.8h0.5v3.8
	C301.2,278.3,300.1,279.3,298.5,279.3z"/>
<path fill="#002F50" d="M304.9,279.2v-6.5h0.5v6.1h3.8v0.4H304.9z"/>
<path fill="#002F50" d="M312.6,279.2v-6.5h0.5v6.5H312.6z"/>
<path fill="#002F50" d="M319.2,273.2v6.1h-0.5v-6.1h-2.3v-0.4h5v0.4H319.2z"/>
<path fill="#002F50" d="M324.3,279.2V279l4.5-5.8h-4.3v-0.4h5v0.3l-4.5,5.8h4.5v0.4H324.3z"/>
<path fill="#002F50" d="M333,279.2v-6.5h4.6v0.4h-4.2v2.6h3.7v0.4h-3.7v2.6h4.2v0.4H333z"/>
<path fill="#002F50" d="M345.8,279.2l-2.1-2.7h-2.1v2.7h-0.5v-6.5h2.7c1.4,0,2.3,0.8,2.3,1.9v0c0,1.1-0.8,1.7-1.9,1.9l2.2,2.8H345.8
	z M345.7,274.6c0-0.9-0.7-1.4-1.9-1.4h-2.2v2.9h2.2C344.9,276.1,345.7,275.5,345.7,274.6L345.7,274.6z"/>
<path fill="#002F50" d="M351,276.2c-1.1,0-2-0.9-2-2c0-1.1,0.9-2,2-2c1.1,0,2,0.9,2,2C352.9,275.3,352.1,276.2,351,276.2z
	 M351,272.4c-1,0-1.8,0.8-1.8,1.8c0,1,0.8,1.8,1.8,1.8c1,0,1.8-0.8,1.8-1.8S352,272.4,351,272.4z M351.3,274.3l0.7,0.8h-0.3
	l-0.6-0.8h-0.6v0.8h-0.2v-2h0.9c0.4,0,0.7,0.2,0.7,0.6C351.8,274.1,351.6,274.3,351.3,274.3z M351.1,273.4h-0.6v0.8h0.6
	c0.3,0,0.5-0.1,0.5-0.4C351.6,273.5,351.4,273.4,351.1,273.4z"/>
<path fill="#002F50" d="M362.7,279.3h-0.4l-2.9-6.6h0.5l2.6,6l2.6-6h0.5L362.7,279.3z"/>
<path fill="#002F50" d="M368.9,279.2v-6.5h0.5v6.5H368.9z"/>
<path fill="#002F50" d="M378.7,279.2l-0.8-1.8H374l-0.8,1.8h-0.5l3-6.6h0.5l3,6.6H378.7z M375.9,273.2l-1.7,3.8h3.4L375.9,273.2z"/>
<path fill="#002F50" d="M389.3,279.3c-1,0-1.8-0.3-2.6-1l0.3-0.4c0.7,0.7,1.4,1,2.3,1c1,0,1.7-0.6,1.7-1.3v0c0-0.7-0.4-1.1-1.8-1.4
	c-1.6-0.3-2.2-0.8-2.2-1.8v0c0-1,0.9-1.7,2.1-1.7c1,0,1.6,0.3,2.2,0.8l-0.3,0.4c-0.6-0.5-1.2-0.7-1.9-0.7c-1,0-1.6,0.5-1.6,1.2v0
	c0,0.7,0.4,1.1,1.9,1.4c1.5,0.3,2.1,0.8,2.1,1.8v0C391.5,278.6,390.6,279.3,389.3,279.3z"/>
<path fill="#002F50" d="M399.6,279.2v-3.1h-4.2v3.1H395v-6.5h0.5v3h4.2v-3h0.5v6.5H399.6z"/>
<path fill="#002F50" d="M406.9,279.4c-2,0-3.3-1.6-3.3-3.4v0c0-1.8,1.3-3.4,3.3-3.4s3.3,1.6,3.3,3.4c0,0,0,0,0,0
	C410.2,277.8,408.9,279.4,406.9,279.4z M409.7,276c0-1.6-1.2-2.9-2.8-2.9c-1.6,0-2.8,1.3-2.8,2.9v0c0,1.6,1.2,2.9,2.8,2.9
	S409.7,277.6,409.7,276L409.7,276z"/>
<path fill="#002F50" d="M416,276.8h-1.8v2.4h-0.5v-6.5h2.4c1.4,0,2.4,0.7,2.4,2v0C418.5,276.1,417.3,276.8,416,276.8z M418,274.7
	c0-1-0.8-1.6-2-1.6h-1.8v3.2h1.8C417.2,276.4,418,275.7,418,274.7L418,274.7z"/>
<path fill="#002F50" d="M262.1,176.1c1.6,0.3,2.3,0.9,2.3,2c0,1.2-1,2-2.4,2c-1.1,0-2-0.4-2.9-1.1l0.5-0.6c0.7,0.7,1.4,1,2.4,1
	c0.9,0,1.6-0.5,1.6-1.2c0-0.7-0.4-1-1.8-1.4c-1.6-0.4-2.4-0.9-2.4-2.1c0-1.1,1-1.9,2.3-1.9c1,0,1.8,0.3,2.5,0.9l-0.5,0.6
	c-0.7-0.5-1.3-0.8-2-0.8c-0.9,0-1.5,0.5-1.5,1.2C260.1,175.4,260.5,175.8,262.1,176.1z"/>
<path fill="#002F50" d="M268.4,173v7.1h-0.8V173H268.4z"/>
<path fill="#002F50" d="M277.2,173h0.8v7.1h-0.6l-4.6-5.8v5.8H272V173h0.7l4.5,5.7V173z"/>
<path fill="#002F50" d="M284.7,180.2c-2,0-3.5-1.6-3.5-3.6c0-2,1.5-3.7,3.6-3.7c1.3,0,2,0.5,2.8,1.1l-0.5,0.6c-0.6-0.6-1.3-1-2.2-1
	c-1.6,0-2.7,1.3-2.7,2.9c0,1.6,1.2,2.9,2.7,2.9c1,0,1.6-0.4,2.3-1l0.5,0.5C286.8,179.7,286,180.2,284.7,180.2z"/>
<path fill="#002F50" d="M295.5,173.7h-4.3v2.4h3.9v0.7h-3.9v2.5h4.4v0.7h-5.2V173h5.1V173.7z"/>
<path fill="#002F50" d="M359.4,173.1h0.6v7.1h-0.9v-6.3l-1.5,0.4l-0.2-0.6L359.4,173.1z"/>
<path fill="#002F50" d="M368.1,180.3c-1,0-1.7-0.4-2.4-0.9l0.5-0.6c0.6,0.5,1.2,0.8,1.9,0.8c1.4,0,2.3-1.3,2.3-3.1
	c-0.4,0.6-1.1,1.1-2.2,1.1c-1.6,0-2.7-0.9-2.7-2.2c0-1.4,1.1-2.4,2.8-2.4c0.9,0,1.5,0.3,2,0.7c0.6,0.6,1,1.3,1,2.7
	C371.3,178.7,370,180.3,368.1,180.3z M368.2,173.7c-1.2,0-1.9,0.8-1.9,1.7c0,0.9,0.8,1.6,1.9,1.6c1.2,0,1.9-0.8,1.9-1.6
	C370.2,174.4,369.4,173.7,368.2,173.7z"/>
<path fill="#002F50" d="M378.9,180.3c-1,0-1.7-0.4-2.4-0.9l0.5-0.6c0.6,0.5,1.2,0.8,1.9,0.8c1.4,0,2.3-1.3,2.3-3.1
	c-0.4,0.6-1.1,1.1-2.2,1.1c-1.6,0-2.7-0.9-2.7-2.2c0-1.4,1.1-2.4,2.8-2.4c0.9,0,1.5,0.3,2,0.7c0.6,0.6,1,1.3,1,2.7
	C382.1,178.7,380.8,180.3,378.9,180.3z M379,173.7c-1.2,0-1.9,0.8-1.9,1.7c0,0.9,0.8,1.6,1.9,1.6c1.2,0,1.9-0.8,1.9-1.6
	C381,174.4,380.2,173.7,379,173.7z"/>
<path fill="#002F50" d="M386.9,173.1h5.3v0.6l-3.5,6.5h-1l3.5-6.3h-4.3V173.1z"/>
<path fill="#002F50" d="M211.2,226.3h-1.9c-0.4,0-0.6,0.2-0.6,0.6v26.4c0,0.8,0.1,0.9,0.7,0.9h1.9c0.6,0,0.7-0.1,0.7-0.7v-26.5
	C212,226.4,211.8,226.3,211.2,226.3z M210.3,218.5c-1,0-1.9,0.8-1.9,1.8c0,1,0.8,1.8,1.9,1.8s1.9-0.8,1.9-1.8
	C212.2,219.3,211.3,218.5,210.3,218.5z M288.5,225.7c-3.6,0-8,1.6-10.1,5c0-1,0-13,0-13c0-0.4-0.1-0.6-0.6-0.6h-2.2
	c-0.5,0-0.5,0.3-0.5,0.6v35.5c0,0.6,0,0.9,0.6,0.9h2.1c0.5,0,0.6-0.2,0.6-0.7v-17.2c1.1-4.7,4.8-7.5,9.8-7.5c4.8,0,7.4,2.5,7.4,7.1
	v17.4c0,0.6,0.1,0.9,0.6,0.9h2c0.6,0,0.7-0.3,0.7-0.9v-17.5C298.9,227,292.4,225.7,288.5,225.7z M271.5,251.6l-0.1-0.4
	c-0.1-0.4-0.2-0.6-0.4-0.6c-0.1,0-0.2,0-0.4,0.1c-0.6,0.4-2.1,0.9-3.6,0.9c-1.7,0-3.6-0.7-3.6-4.1c0,0,0-17.9,0-18.2
	c0.3,0,5.5,0,5.5,0c0.3,0,0.8-0.2,0.8-0.6v-2c0-0.4-0.3-0.4-0.7-0.4c0,0-5.2,0-5.5,0c0-0.3,0-6.2,0-6.2c0-0.7-0.1-0.8-0.8-0.8h-1.8
	c-0.5,0-0.6,0.2-0.6,0.7c0,0,0,6,0,6.3c-0.3,0-3.5,0-3.5,0c-0.3,0-0.5,0.2-0.5,0.6v1.7c0,0.5,0.1,0.7,0.6,0.7c0,0,3.1,0,3.4,0
	c0,0.3,0,18.7,0,18.7c0,4.4,3.3,6.7,6.5,6.7c1.5,0,2.9-0.3,4.7-1c0.4-0.1,0.5-0.2,0.5-0.4c0-0.1,0-0.2-0.1-0.4
	C271.8,252.7,271.5,251.6,271.5,251.6z M231.8,225.7c-4.1,0-7.8,1.9-9.9,5c0-0.8,0-3.8,0-3.8c0-0.6-0.1-0.6-0.7-0.6h-2
	c-0.4,0-0.6,0.1-0.6,0.5v26.5c0,0.6,0,0.8,0.6,0.8h2.3c0.4,0,0.4-0.3,0.4-0.7v-17.2c1-4.5,4.8-7.5,9.7-7.5c4.9,0,7.5,2.4,7.5,7.1
	v17.5c0,0.6,0.2,0.7,0.7,0.7h2.1c0.6,0,0.6-0.3,0.6-0.9v-17.8C242.4,229.2,238.5,225.7,231.8,225.7z M361.4,225.7
	c-4.7,0-8.5,1.9-10.7,5.1c0-0.8,0-3.9,0-3.9c0-0.5,0-0.7-0.5-0.7H348c-0.4,0-0.5,0.2-0.5,0.6v34.6c0,0.4,0,0.7,0.5,0.7h2.1
	c0.6,0,0.6-0.3,0.6-0.8c0,0,0-11.1,0-11.9c2.5,3.3,6.2,5.2,10.5,5.2c8.7,0,14.5-5.9,14.5-14.8C375.7,231.5,369.8,225.7,361.4,225.7z
	 M361.4,251.7c-6.3,0-10.8-4.9-10.8-11.7c0-7.1,4-11.3,10.8-11.3c6.2,0,11,4.9,11,11.2C372.4,247.1,368.1,251.7,361.4,251.7z
	 M444.9,253.2c0,0-12.2-15.5-13.1-16.6c0.9-0.9,8.2-8.9,8.8-9.7c0,0,0.1-0.1,0.1-0.1l0.1-0.2c0-0.3-0.3-0.3-0.4-0.3h-2.6
	c-0.3,0-0.5,0.1-0.9,0.4c-3.8,4.1-10.6,11.4-12.9,13.9c0-0.8,0-22.8,0-22.8c0-0.5-0.1-0.7-0.6-0.7h-2.2c-0.4,0-0.5,0.2-0.5,0.6v35.5
	c0,0.6,0.1,0.9,0.6,0.9h2.1c0.6,0,0.6-0.3,0.6-0.7c0,0,0-8.4,0-8.5c0.1-0.1,5.2-5.6,5.4-5.8c0.2,0.3,11.3,14.1,11.3,14.1
	c0.2,0.3,0.8,0.9,1.2,0.9h2.6c0.3,0,0.6,0,0.6-0.2c0,0,0-0.1,0-0.1C445.2,253.7,445.1,253.5,444.9,253.2z M404.2,225.7
	c-4.1,0-7.8,1.9-9.9,5c0-0.8,0-3.8,0-3.8c0-0.6-0.1-0.6-0.7-0.6h-2c-0.4,0-0.6,0.1-0.6,0.5v26.5c0,0.6,0,0.8,0.6,0.8h2.3
	c0.4,0,0.4-0.3,0.4-0.7v-17.2c1-4.5,4.8-7.5,9.7-7.5c4.9,0,7.5,2.4,7.5,7.1v17.5c0,0.6,0.2,0.7,0.7,0.7h2.1c0.6,0,0.6-0.3,0.6-0.9
	v-17.8C414.8,229.2,411,225.7,404.2,225.7z M382.9,218.6c-1,0-1.9,0.8-1.9,1.8c0,1,0.8,1.8,1.9,1.8s1.9-0.8,1.9-1.8
	C384.8,219.4,383.9,218.6,382.9,218.6z M318.5,225.5c-9,0-15,5.9-15,14.8c0,9,6,14.7,15.4,14.7c3.8,0,6.8-1,9.8-3.4
	c0,0,0.2-0.2,0.2-0.2l-0.2-0.4l-0.1-0.1c-0.5-0.8-0.7-1-1.3-1.6l-0.1-0.1c-0.2-0.2-0.5-0.2-0.7-0.1c-0.7,0.7-3.5,2.9-7.6,2.9
	c-8,0-11.9-5.6-12.1-10.8c0.3,0,23.6,0,23.6,0c0.4,0,0.8,0,1-0.3l0,0c0.6-0.8,0.6-1.3,0.6-2.6C332.1,233.2,327.8,225.5,318.5,225.5z
	 M306.9,238.4c0.5-5.7,5.5-10.1,11.5-10.1c6.4,0,10,5.1,10.4,10.1H306.9z M383.7,226.3h-1.9c-0.4,0-0.6,0.2-0.6,0.6v26.4
	c0,0.8,0.1,0.9,0.7,0.9h1.9c0.6,0,0.7-0.1,0.7-0.7v-26.5C384.4,226.4,384.2,226.3,383.7,226.3z"/>
<path fill="#FF7FAA" d="M324.3,172.4c0,0,0.1-0.1,0.1-0.1c0.8-1.9,1.4-4,1.5-6.3c0-0.3,0-0.5,0-0.8c-2.3-3.1-2.7-7.3,0.8-7.3
	c3.4,0,2.4,5.6,0.7,7.9c0,0,0,0.1,0,0.1c0.2,2,0.7,4,1.5,5.7c1.4-1.6,2.9-3.3,4.6-4.8c2.7-2.3,5.5-4.2,8.3-5.6
	c-3.8-3.9-9.2-6.4-15-6.4c-6,0-11.4,2.5-15.2,6.5c2.6,1.3,5.3,3.1,7.8,5.4C321.3,168.5,322.9,170.4,324.3,172.4z M342.9,162.3
	c-1.8,2.6-4,5.2-6.7,7.5c-1.7,1.4-3.4,2.7-5.1,3.8c0,0,0,0.1,0,0.1c1.8,0.8,3.8,1.4,5.9,1.6c0.1,0,0.1,0,0.2,0
	c3.1-2.3,7.4-2.8,7.4,0.7c0,3.3-5.4,2.4-7.7,0.8c-2.1,0.1-4.1,0.6-5.9,1.3c1.8,1.1,3.6,2.4,5.3,4c2.5,2.3,4.6,4.9,6.3,7.5
	c3.3-3.7,5.2-8.5,5.2-13.9C347.8,170.7,346,166,342.9,162.3z M328.7,179.8L328.7,179.8c-0.7,1.7-1.1,3.5-1.3,5.4
	c0,0.4-0.1,0.7-0.1,1.1c2.2,3.1,2.6,7.3-0.9,7.3c-3.5,0-2.3-5.8-0.6-8c0-0.1,0-0.3,0-0.4c-0.1-2.1-0.6-4-1.3-5.8
	c-1.5,2-3.3,4-5.4,5.9c-2.4,2.1-5,3.8-7.5,5.1c3.8,4,9.2,6.6,15.2,6.6c5.7,0,10.9-2.3,14.7-6c-2.7-1.3-5.3-3.1-7.9-5.4
	C331.8,183.6,330.1,181.7,328.7,179.8z M316.6,182.3c2.2-1.9,4.4-3.5,6.7-4.7c0,0,0-0.1-0.1-0.1c-1.6-0.6-3.3-0.9-5.1-1
	c-0.6,0-1.1,0-1.7,0c-3.1,2.3-7.5,2.8-7.5-0.7c0-3.4,5.5-2.4,7.8-0.8c0.4,0,0.8,0,1.2-0.1c1.4-0.1,2.8-0.4,4.1-0.8
	c-1.8-1.1-3.6-2.5-5.4-4.1c-2.5-2.3-4.6-4.8-6.2-7.4c-2.9,3.6-4.7,8.2-4.7,13.2c0,5,1.8,9.6,4.7,13.2
	C312.2,186.7,314.2,184.4,316.6,182.3z"/>
<path fill="#FF7FAA" d="M302.3,176c0,13.4,10.9,24.4,24.4,24.4s24.4-10.9,24.4-24.4c0-13.4-10.9-24.4-24.4-24.4
	S302.3,162.5,302.3,176z M303.8,176c0-12.6,10.3-22.9,22.9-22.9c12.6,0,22.9,10.3,22.9,22.9c0,12.6-10.3,22.9-22.9,22.9
	C314.1,198.9,303.8,188.6,303.8,176z"/>
</svg>
