<?xml version="1.0" encoding="utf-8"?>
<!-- Generator: Adobe Illustrator 14.0.0, SVG Export Plug-In  -->
<!DOCTYPE svg PUBLIC "-//W3C//DTD SVG 1.1//EN" "http://www.w3.org/Graphics/SVG/1.1/DTD/svg11.dtd" [
	<!ENTITY ns_flows "http://ns.adobe.com/Flows/1.0/">
]>
<svg version="1.1"
	 xmlns="http://www.w3.org/2000/svg" xmlns:xlink="http://www.w3.org/1999/xlink" xmlns:a="http://ns.adobe.com/AdobeSVGViewerExtensions/3.0/"
	 x="0px" y="0px" width="252px" height="215px" viewBox="-10.4 -75.8 252 215" enable-background="new -10.4 -75.8 252 215"
	 xml:space="preserve">
<defs>
</defs>
<g>
	<g>
		<path fill="#96D798" d="M115.1,26.9c0,3.1-1.5,6.7-4.5,10.7c-3,4-5.7,6-8.2,6h-4c-0.9,0-1.9-0.5-3-1.4c-1.5-1.2-2.2-2.7-2.2-4.4
			c0-1.8,0.4-3.1,1.1-4c0.7-0.9,1.8-1.3,3.3-1.3v1.8c-0.7,0.5-1.4,1-2,1.5c-0.1,0.1-0.2,0.6-0.2,1.5c0,1.4,0.4,2.3,1.2,2.8
			c0.8,0.5,1.9,0.8,3.2,0.8c1.9,0,3.8-1.1,5.4-3.2c1.9-2.5,2.9-5.5,2.9-9.1v-11c-0.6-1.3-1.2-2.6-1.8-4c-1.7-3-3.7-5.5-6-7.4
			c-3.2-2.7-6.8-4-10.7-4c-4,0-7.9,1.3-11.7,3.8c-4.5,3-6.7,6.5-6.7,10.7c0,1.5,0.5,2.9,1.6,4.1c1.3,1.4,2.9,2.1,4.9,2.1
			c1.2,0,1.9,0,2-0.1c0.3-0.1,1-0.5,1.9-1.3h1.8v2.2c-1.1,1.6-2.4,2.9-3.9,3.8c-1.5,1-3.1,1.4-4.9,1.4c-1.8,0-3.7-0.8-5.8-2.3
			c-2.3-1.7-3.5-3.6-3.5-5.6v-3.9c0-3.5,2.5-7.1,7.4-11C78,2.1,83.5,0,89.1,0h4.4c4.9,0,9.6,1.8,14.2,5.5c4.9,3.9,7.3,8.4,7.3,13.4
			V26.9z M97.9,8.4c-0.2,0-0.7,0.9-1.6,2.7c-1.2,2.5-2.2,5.5-3,8.8c-1.1,4.8-1.6,10.2-1.6,16.2v4c-0.3,2-0.6,4-0.8,6
			c-0.8,4.9-1.5,8.6-2.3,11.2c-1.2,4.1-2.5,6.1-3.9,6.1h-4.4c-0.8,0-1.4-0.2-1.7-0.6s-0.5-0.8-0.5-1.1c0.7-1.9,1.4-4.4,2.1-7.4
			c1.5-6.1,3-13,4.5-20.7c0.8-4.3,1.6-7.6,2.3-10.1c1.3-4.5,2.7-8.1,4.2-10.8c2-3.5,4.2-5.4,6.7-6V8.4z"/>
		<path fill="#96D798" d="M166.6,12.3c0,0.5-0.1,1.1-0.4,1.8c-0.3,0.7-0.6,1.5-1.1,2.3h-2c0.3-2.4,0.7-4.2,1-5.1
			c0.3-0.7,0.7-1.4,1-2c-0.4-0.9-0.8-1.6-1.1-2.1c-2.2-3-5.2-4.6-9.1-4.6c-6.6,0-12.6,3.4-18,10.1c-4.1,5.2-7.6,11.9-10.4,20
			c-2.2,6.4-3.3,11-3.3,13.8v6.1c0,2.4,1,4.4,3.1,6.1c1.7,1.4,3.3,2.1,4.6,2.1c6.3,0,11.1-4,14.4-11.9c1.3-3,3.2-10.6,5.8-22.9
			c1.9-8.8,4.2-13.7,6.8-14.8h3.6c-0.2,1.5-1,5.6-2.5,12.3c-1.5,6.7-2.6,12.3-3.4,16.8c-1.2,6.6-1.8,11.6-1.8,14.9
			c0,0.8,0.2,1.7,0.6,2.7c0.4,0.9,0.9,1.4,1.5,1.4c1.1,0,2.3-0.8,3.7-2.4c3.6-4,5.7-6.1,6.5-6.3v2.1c-1.8,3-3.7,5.3-5.9,7.1
			c-2.2,1.8-4.3,2.6-6.3,2.6c-2.7,0-4.6-1.5-5.8-4.4c-0.8-2.1-1.6-4.2-2.3-6.3c-4.4,5.5-7.2,8.7-8.3,9.5c-2.1,1.5-4.4,2.2-7,2.2
			c-4.4,0-8.1-1.8-11.2-5.5c-2.8-3.3-4.2-6.8-4.2-10.4v-7.2c0-4.2,1.9-9.4,5.6-15.7c4-6.8,8.8-12.4,14.5-16.8
			c6.7-5.2,13.5-7.9,20.3-7.9c2.9,0,5.5,0.9,7.8,2.6s3.5,3.6,3.5,5.6V12.3z"/>
	</g>
</g>
<path fill="#093251" d="M2.1,31.1c0-3.8,0-4.4-0.1-5.2c-0.1-0.8-0.2-1.2-1-1.3c-0.2,0-0.6-0.1-0.9-0.1c-0.1,0-0.2-0.1-0.2-0.2
	c0-0.1,0.1-0.2,0.4-0.2c1.1,0,2.7,0.1,2.9,0.1c0.5,0,2.4-0.1,3.6-0.1c3.2,0,4.3,1,4.8,1.4c0.6,0.5,1.2,1.6,1.2,2.9
	c0,3.5-2.6,5.8-6.4,5.8c-0.1,0-0.6,0-0.7,0c-0.1,0-0.3-0.1-0.3-0.2c0-0.2,0.1-0.3,0.7-0.3c2.7,0,4.6-1.7,4.6-3.9
	c0-0.8-0.1-2.4-1.4-3.7c-1.3-1.3-2.8-1.2-3.4-1.2c-0.4,0-1.1,0.1-1.4,0.2c-0.1,0-0.2,0.2-0.2,0.5v9.8c0,2.3,0,4.2,0.1,5.2
	c0.1,0.7,0.2,1.2,1,1.3C5.8,41.9,6.3,42,6.6,42c0.1,0,0.2,0.1,0.2,0.2c0,0.1-0.1,0.2-0.4,0.2c-1.4,0-3-0.1-3.1-0.1
	c-0.1,0-1.7,0.1-2.5,0.1c-0.3,0-0.4-0.1-0.4-0.2c0-0.1,0.1-0.2,0.2-0.2c0.2,0,0.5-0.1,0.8-0.1c0.5-0.1,0.5-0.6,0.7-1.3
	c0.1-1,0.1-2.9,0.1-5.2V31.1z"/>
<path fill="#093251" d="M21.4,24.6c0.3-0.8,0.4-0.9,0.6-0.9c0.3,0,0.3,0.3,0.6,0.9c0.5,1,4.5,11,6,14.7c0.9,2.2,1.6,2.5,2.1,2.6
	c0.4,0.1,0.7,0.1,1,0.1c0.1,0,0.3,0.1,0.3,0.2s-0.3,0.2-0.6,0.2c-0.4,0-2.2,0-3.9-0.1c-0.5,0-0.9,0-0.9-0.2c0-0.1,0.1-0.1,0.2-0.2
	c0.1-0.1,0.4-0.3,0.2-0.7l-2.2-5.5c-0.1-0.1-0.1-0.1-0.2-0.1h-5.8c-0.1,0-0.2,0.1-0.3,0.2l-1.4,3.9c-0.2,0.6-0.4,1.2-0.4,1.6
	c0,0.5,0.4,0.7,0.9,0.7h0.2c0.2,0,0.3,0.1,0.3,0.2c0,0.1-0.1,0.2-0.4,0.2c-0.6,0-2-0.1-2.2-0.1c-0.3,0-1.5,0.1-2.5,0.1
	c-0.3,0-0.5-0.1-0.5-0.2c0-0.1,0.1-0.2,0.2-0.2c0.2,0,0.5,0,0.7-0.1c1.1-0.1,1.6-1,2.1-2.2L21.4,24.6z M24.2,34.6
	c0.1,0,0.1-0.1,0.1-0.2l-2.5-6.6c-0.1-0.4-0.3-0.4-0.4,0l-2.3,6.6c0,0.1,0,0.2,0.1,0.2H24.2z"/>
<path fill="#093251" d="M39,35.3c0,2.3,0,4.2,0.1,5.2c0.1,0.7,0.2,1.2,1,1.3c0.3,0.1,0.9,0.1,1.1,0.1c0.2,0,0.2,0.1,0.2,0.2
	c0,0.1-0.1,0.2-0.4,0.2c-1.4,0-3-0.1-3.1-0.1c-0.1,0-1.8,0.1-2.6,0.1c-0.3,0-0.4-0.1-0.4-0.2c0-0.1,0.1-0.2,0.2-0.2
	c0.2,0,0.5-0.1,0.7-0.1c0.5-0.1,0.7-0.6,0.7-1.3c0.1-1,0.1-2.9,0.1-5.2V25.2l-3.6,0.1c-1.6,0-2.2,0.2-2.5,0.8
	c-0.3,0.4-0.3,0.6-0.4,0.8C30.1,27,30,27,29.9,27c-0.1,0-0.2-0.1-0.2-0.2c0-0.3,0.5-2.4,0.5-2.6c0.1-0.1,0.2-0.5,0.3-0.5
	c0.2,0,0.4,0.2,1.1,0.3c0.7,0.1,1.7,0.1,2,0.1H43c0.8,0,1.4-0.1,1.8-0.1c0.4-0.1,0.6-0.1,0.7-0.1c0.1,0,0.1,0.1,0.1,0.3
	c0,0.7-0.1,2.5-0.1,2.8c0,0.2-0.1,0.3-0.2,0.3c-0.1,0-0.2-0.1-0.2-0.4l0-0.3c-0.1-0.7-0.6-1.3-3-1.3L39,25.2V35.3z"/>
<path fill="#093251" d="M50.8,31.1c0-3.8,0-4.4-0.1-5.2c-0.1-0.8-0.2-1.2-1-1.3c-0.2,0-0.6-0.1-0.9-0.1c-0.1,0-0.2-0.1-0.2-0.2
	c0-0.1,0.1-0.2,0.4-0.2c1.1,0,2.8,0.1,3,0.1c0.3,0,2.4-0.1,3.1-0.1c1.6,0,3.3,0.1,4.7,1.1c0.6,0.5,1.7,1.6,1.7,3.3
	c0,1.8-0.7,3.5-3.1,5.5c2,2.6,3.8,4.7,5.2,6.2c1.3,1.4,2.2,1.6,2.8,1.7C67,42,67.2,42,67.4,42c0.1,0,0.2,0.1,0.2,0.2
	c0,0.1-0.1,0.2-0.6,0.2h-1.6c-1.4,0-2-0.1-2.7-0.5c-1.1-0.6-2-1.7-3.4-3.5c-1-1.3-2.2-2.9-2.7-3.5c-0.1-0.1-0.2-0.1-0.3-0.1
	l-3.2-0.1c-0.1,0-0.2,0.1-0.2,0.2v0.6c0,2.3,0,4.2,0.1,5.2c0.1,0.7,0.2,1.2,1,1.3c0.3,0.1,0.9,0.1,1.1,0.1c0.2,0,0.2,0.1,0.2,0.2
	c0,0.1-0.1,0.2-0.4,0.2c-1.4,0-3-0.1-3.1-0.1c0,0-1.7,0.1-2.5,0.1c-0.3,0-0.4-0.1-0.4-0.2c0-0.1,0.1-0.2,0.2-0.2
	c0.2,0,0.5-0.1,0.8-0.1c0.5-0.1,0.5-0.6,0.7-1.3c0.1-1,0.1-2.9,0.1-5.2V31.1z M53,33.1c0,0.1,0.1,0.2,0.2,0.3
	c0.4,0.2,1.6,0.4,2.8,0.4c0.6,0,1.3,0,1.9-0.4c0.9-0.6,1.5-1.8,1.5-3.7c0-3-1.6-4.7-4.3-4.7c-0.7,0-1.5,0.1-1.8,0.1
	c-0.1,0.1-0.2,0.1-0.2,0.3V33.1z"/>
<path fill="#093251" d="M72.2,35.3c0,2.3,0,4.2,0.1,5.2c0.1,0.7,0.2,1.2,0.9,1.3c0.4,0.1,0.9,0.1,1.1,0.1c0.1,0,0.2,0.1,0.2,0.2
	c0,0.1-0.1,0.2-0.4,0.2c-1.4,0-3-0.1-3.1-0.1c-0.1,0-1.7,0.1-2.5,0.1c-0.3,0-0.4-0.1-0.4-0.2c0-0.1,0.1-0.2,0.2-0.2
	c0.2,0,0.5-0.1,0.8-0.1c0.5-0.1,0.6-0.6,0.7-1.3c0.1-1,0.1-2.9,0.1-5.2v-4.3c0-3.8,0-4.4-0.1-5.2c-0.1-0.8-0.3-1.2-0.8-1.3
	c-0.3-0.1-0.6-0.1-0.8-0.1c-0.1,0-0.2-0.1-0.2-0.2c0-0.1,0.1-0.2,0.4-0.2c0.8,0,2.4,0.1,2.5,0.1c0.1,0,1.7-0.1,2.5-0.1
	c0.3,0,0.4,0.1,0.4,0.2c0,0.1-0.1,0.2-0.2,0.2c-0.2,0-0.3,0-0.6,0.1c-0.7,0.1-0.8,0.5-0.9,1.3c0,0.8,0,1.4,0,5.2V35.3z"/>
<path fill="#093251" d="M80.8,40.1c-2.4-2.1-3-4.9-3-7.2c0-1.6,0.6-4.4,2.8-6.6c1.5-1.5,3.8-2.6,7.6-2.6c1,0,2.4,0.1,3.6,0.3
	c0.9,0.2,1.7,0.3,2.6,0.4c0.3,0,0.3,0.1,0.3,0.3c0,0.2-0.1,0.5-0.1,1.4c0,0.8,0,2.1-0.1,2.5c0,0.4-0.1,0.5-0.3,0.5
	C94,29,94,28.8,94,28.5c0-0.9-0.4-1.9-1-2.4c-0.9-0.7-2.7-1.3-4.9-1.3c-3.2,0-4.7,0.9-5.6,1.7c-1.8,1.7-2.2,3.9-2.2,6.3
	c0,4.6,3.7,8.7,9,8.7c1.9,0,3.1-0.1,4.1-1.1c0.5-0.5,0.9-1.6,1-2c0.1-0.3,0.1-0.3,0.3-0.3c0.1,0,0.2,0.2,0.2,0.3
	c0,0.2-0.3,2.3-0.6,3.1c-0.1,0.5-0.2,0.5-0.6,0.7c-1,0.4-2.9,0.5-4.5,0.5C85.3,42.7,82.7,41.8,80.8,40.1z"/>
<path fill="#093251" d="M102.9,35.3c0,2.3,0,4.2,0.1,5.2c0.1,0.7,0.2,1.2,0.9,1.3c0.4,0.1,0.9,0.1,1.1,0.1c0.1,0,0.2,0.1,0.2,0.2
	c0,0.1-0.1,0.2-0.4,0.2c-1.4,0-3-0.1-3.1-0.1c-0.1,0-1.7,0.1-2.5,0.1c-0.3,0-0.4-0.1-0.4-0.2c0-0.1,0.1-0.2,0.2-0.2
	c0.2,0,0.5-0.1,0.8-0.1c0.5-0.1,0.6-0.6,0.7-1.3c0.1-1,0.1-2.9,0.1-5.2v-4.3c0-3.8,0-4.4-0.1-5.2c-0.1-0.8-0.3-1.2-0.8-1.3
	c-0.3-0.1-0.6-0.1-0.8-0.1c-0.1,0-0.2-0.1-0.2-0.2c0-0.1,0.1-0.2,0.4-0.2c0.8,0,2.4,0.1,2.5,0.1c0.1,0,1.7-0.1,2.5-0.1
	c0.3,0,0.4,0.1,0.4,0.2c0,0.1-0.1,0.2-0.2,0.2c-0.2,0-0.3,0-0.6,0.1c-0.7,0.1-0.8,0.5-0.9,1.3c0,0.8,0,1.4,0,5.2V35.3z"/>
<path fill="#093251" d="M115.5,24.6c0.3-0.8,0.4-0.9,0.6-0.9c0.3,0,0.3,0.3,0.6,0.9c0.5,1,4.5,11,6,14.7c0.9,2.2,1.6,2.5,2.1,2.6
	c0.4,0.1,0.7,0.1,1,0.1c0.1,0,0.3,0.1,0.3,0.2s-0.3,0.2-0.6,0.2c-0.4,0-2.2,0-3.9-0.1c-0.5,0-0.9,0-0.9-0.2c0-0.1,0.1-0.1,0.2-0.2
	c0.1-0.1,0.4-0.3,0.2-0.7l-2.2-5.5c-0.1-0.1-0.1-0.1-0.2-0.1h-5.8c-0.1,0-0.2,0.1-0.3,0.2l-1.4,3.9c-0.2,0.6-0.4,1.2-0.4,1.6
	c0,0.5,0.4,0.7,0.9,0.7h0.2c0.2,0,0.3,0.1,0.3,0.2c0,0.1-0.1,0.2-0.4,0.2c-0.6,0-2-0.1-2.2-0.1c-0.3,0-1.5,0.1-2.5,0.1
	c-0.3,0-0.5-0.1-0.5-0.2c0-0.1,0.1-0.2,0.2-0.2c0.2,0,0.5,0,0.7-0.1c1.1-0.1,1.6-1,2.1-2.2L115.5,24.6z M118.3,34.6
	c0.1,0,0.1-0.1,0.1-0.2l-2.5-6.6c-0.1-0.4-0.3-0.4-0.4,0l-2.3,6.6c0,0.1,0,0.2,0.1,0.2H118.3z"/>
<path fill="#093251" d="M142.5,24.6c0.3-0.8,0.4-0.9,0.6-0.9c0.3,0,0.3,0.3,0.6,0.9c0.5,1,4.5,11,6,14.7c0.9,2.2,1.6,2.5,2.1,2.6
	c0.4,0.1,0.7,0.1,1,0.1c0.1,0,0.3,0.1,0.3,0.2s-0.3,0.2-0.6,0.2c-0.4,0-2.2,0-3.9-0.1c-0.5,0-0.9,0-0.9-0.2c0-0.1,0.1-0.1,0.2-0.2
	c0.1-0.1,0.4-0.3,0.2-0.7l-2.2-5.5c-0.1-0.1-0.1-0.1-0.2-0.1h-5.8c-0.1,0-0.2,0.1-0.3,0.2l-1.4,3.9c-0.2,0.6-0.4,1.2-0.4,1.6
	c0,0.5,0.4,0.7,0.8,0.7h0.2c0.2,0,0.3,0.1,0.3,0.2c0,0.1-0.1,0.2-0.4,0.2c-0.6,0-2-0.1-2.2-0.1c-0.3,0-1.5,0.1-2.5,0.1
	c-0.3,0-0.5-0.1-0.5-0.2c0-0.1,0.1-0.2,0.2-0.2c0.2,0,0.5,0,0.7-0.1c1.1-0.1,1.6-1,2.1-2.2L142.5,24.6z M145.3,34.6
	c0.1,0,0.1-0.1,0.1-0.2l-2.5-6.6c-0.1-0.4-0.3-0.4-0.4,0l-2.3,6.6c0,0.1,0,0.2,0.1,0.2H145.3z"/>
<path fill="#093251" d="M156.4,31.1c0-3.8,0-4.4-0.1-5.2c-0.1-0.8-0.2-1.2-1-1.3c-0.2,0-0.6-0.1-0.9-0.1c-0.1,0-0.2-0.1-0.2-0.2
	c0-0.1,0.1-0.2,0.4-0.2c1.1,0,2.8,0.1,2.9,0.1c0.3,0,1.9-0.1,3.3-0.1c2.5,0,7.1-0.2,10,2.8c1.3,1.2,2.4,3.3,2.4,6.1
	c0,3-1.3,5.4-2.7,6.8c-1.1,1.1-3.3,2.8-7.6,2.8c-1.1,0-2.4-0.1-3.5-0.1c-1.1-0.1-1.9-0.1-2-0.1c-0.1,0-0.5,0-1,0
	c-0.5,0-1.1,0.1-1.5,0.1c-0.3,0-0.4-0.1-0.4-0.2c0-0.1,0.1-0.2,0.2-0.2c0.2,0,0.5-0.1,0.8-0.1c0.5-0.1,0.5-0.6,0.7-1.3
	c0.1-1,0.1-2.9,0.1-5.2V31.1z M158.7,33.7c0,2.6,0,4.8,0,5.3c0,0.6,0.1,1.5,0.3,1.7c0.3,0.5,1.2,1,4.1,1c2.3,0,4.3-0.8,5.8-2.2
	c1.3-1.2,2-3.5,2-5.7c0-3.1-1.3-5-2.4-6c-2.4-2.4-5.1-2.7-8.1-2.7c-0.5,0-1.3,0.1-1.5,0.2c-0.2,0.1-0.3,0.2-0.3,0.5V33.7z"/>
<path fill="#093251" d="M182.9,24.6c0.3-0.8,0.4-0.9,0.6-0.9c0.3,0,0.3,0.3,0.6,0.9c0.5,1,4.5,11,6,14.7c0.9,2.2,1.6,2.5,2.1,2.6
	c0.4,0.1,0.7,0.1,1,0.1c0.1,0,0.3,0.1,0.3,0.2s-0.3,0.2-0.6,0.2c-0.4,0-2.2,0-3.9-0.1c-0.5,0-0.9,0-0.9-0.2c0-0.1,0.1-0.1,0.2-0.2
	c0.1-0.1,0.4-0.3,0.2-0.7l-2.2-5.5c-0.1-0.1-0.1-0.1-0.2-0.1h-5.8c-0.1,0-0.2,0.1-0.3,0.2l-1.4,3.9c-0.2,0.6-0.4,1.2-0.4,1.6
	c0,0.5,0.4,0.7,0.9,0.7h0.2c0.2,0,0.3,0.1,0.3,0.2c0,0.1-0.1,0.2-0.4,0.2c-0.6,0-2-0.1-2.2-0.1c-0.3,0-1.5,0.1-2.5,0.1
	c-0.3,0-0.5-0.1-0.5-0.2c0-0.1,0.1-0.2,0.2-0.2c0.2,0,0.5,0,0.7-0.1c1.1-0.1,1.6-1,2.1-2.2L182.9,24.6z M185.7,34.6
	c0.1,0,0.1-0.1,0.1-0.2l-2.5-6.6c-0.1-0.4-0.3-0.4-0.4,0l-2.3,6.6c0,0.1,0,0.2,0.1,0.2H185.7z"/>
<path fill="#093251" d="M216.2,39.2c0.1,0.9,0.3,2.2,1.3,2.5c0.7,0.2,1.4,0.2,1.6,0.2c0.1,0,0.2,0.1,0.2,0.2c0,0.1-0.2,0.2-0.5,0.2
	c-0.6,0-3.4-0.1-4.3-0.1c-0.6-0.1-0.7-0.1-0.7-0.3c0-0.1,0.1-0.2,0.2-0.2c0.1,0,0.2-0.4,0.1-0.9l-1.2-12.2h-0.1l-6,12.3
	c-0.5,1-0.7,1.3-0.9,1.3c-0.2,0-0.4-0.2-0.9-1.1c-0.7-1.2-2.3-4.3-2.9-5.6c-0.7-1.5-2.8-5.6-3.2-6.6h-0.1l-1,10.9c0,0.4,0,0.8,0,1.2
	c0,0.4,0.2,0.6,0.6,0.7c0.4,0.1,0.8,0.1,1,0.1c0.1,0,0.2,0.1,0.2,0.2c0,0.2-0.2,0.2-0.5,0.2c-0.9,0-2.1-0.1-2.3-0.1
	c-0.2,0-1.4,0.1-2.1,0.1c-0.3,0-0.4-0.1-0.4-0.2c0-0.1,0.1-0.2,0.3-0.2c0.2,0,0.4,0,0.7-0.1c0.8-0.1,0.9-1,1-1.9l1.8-15.8
	c0-0.3,0.1-0.4,0.3-0.4c0.2,0,0.4,0.1,0.5,0.4l7.6,15l7.3-15c0.1-0.2,0.2-0.4,0.4-0.4s0.3,0.2,0.4,0.7L216.2,39.2z"/>
<path fill="#093251" d="M221.6,42c-0.3-0.2-0.4-0.3-0.4-0.9c0-1.2,0.1-2.2,0.1-2.6c0-0.3,0.1-0.4,0.2-0.4s0.2,0.1,0.2,0.3
	c0,0.2,0,0.5,0.1,0.9c0.4,1.8,2.3,2.4,3.9,2.4c2.5,0,3.7-1.4,3.7-3.2c0-1.7-0.9-2.6-3.2-4.2l-1.1-0.9c-2.7-2-3.6-3.5-3.6-5.2
	c0-2.8,2.2-4.5,5.5-4.5c1,0,2,0.1,2.6,0.3c0.5,0.1,0.7,0.1,0.9,0.1c0.2,0,0.3,0,0.3,0.2c0,0.1-0.1,0.9-0.1,2.6c0,0.4,0,0.5-0.2,0.5
	s-0.2-0.1-0.2-0.3c0-0.3-0.2-0.9-0.4-1.2c-0.2-0.3-1-1.2-3.2-1.2c-1.8,0-3.3,0.9-3.3,2.6c0,1.5,0.8,2.4,3.2,4.1l0.7,0.5
	c3,2.1,4.1,3.8,4.1,5.8c0,1.4-0.5,3-2.3,4.1c-1,0.7-2.6,0.9-4,0.9C224.1,42.7,222.6,42.5,221.6,42z"/>
<path fill="#093251" d="M17.8,54.6c0-0.8,0-0.9-0.4-0.9c-0.1,0-0.2,0-0.3,0c0,0-0.1,0-0.1-0.1c0-0.1,0-0.1,0.2-0.1
	c0.4,0,1.1,0,1.1,0c0,0,0.6,0,0.9,0c0.1,0,0.2,0,0.2,0.1c0,0,0,0.1-0.1,0.1c-0.1,0-0.1,0-0.2,0c-0.3,0-0.3,0.2-0.4,0.5
	c0,0.3,0,0.6,0,1v1c0,0.4,0,0.4-0.1,0.5c-0.6,0.3-1.5,0.4-2,0.4c-0.7,0-2.1-0.1-3.2-1c-0.6-0.5-1.1-1.5-1.1-2.6c0-1.5,0.8-2.5,1.6-3
	c0.9-0.5,1.8-0.6,2.6-0.6c0.6,0,1.3,0.1,1.5,0.2c0.2,0,0.5,0.1,0.8,0.1c0.1,0,0.1,0,0.1,0.1c0,0.1-0.1,0.4-0.1,1.3
	c0,0.2,0,0.2-0.1,0.2c-0.1,0-0.1-0.1-0.1-0.1c0-0.1-0.1-0.4-0.2-0.6c-0.2-0.3-1-0.7-2.2-0.7c-0.6,0-1.3,0-2,0.6
	c-0.6,0.4-1,1.3-1,2.3c0,1.3,0.7,2.3,1,2.6c0.8,0.7,1.6,1,2.5,1c0.3,0,0.8,0,1-0.2c0.1-0.1,0.2-0.1,0.2-0.3V54.6z"/>
<path fill="#093251" d="M22.4,54.2c0,0.9,0,1.6,0,2c0,0.3,0.1,0.4,0.3,0.5c0.1,0,0.3,0,0.4,0c0.1,0,0.1,0,0.1,0.1c0,0,0,0.1-0.2,0.1
	c-0.5,0-1.2,0-1.2,0c-0.1,0-0.7,0-1,0c-0.1,0-0.2,0-0.2-0.1c0,0,0-0.1,0.1-0.1c0.1,0,0.2,0,0.3,0c0.2,0,0.2-0.2,0.3-0.5
	c0-0.4,0.1-1.1,0.1-2v-1.6c0-1.4,0-1.7,0-2c0-0.3-0.1-0.5-0.3-0.5c-0.1,0-0.2,0-0.3,0c0,0-0.1,0-0.1-0.1c0-0.1,0-0.1,0.2-0.1
	c0.3,0,0.9,0,1,0c0,0,0.7,0,1,0c0.1,0,0.2,0,0.2,0.1c0,0,0,0.1-0.1,0.1c-0.1,0-0.1,0-0.2,0c-0.3,0.1-0.3,0.2-0.3,0.5
	c0,0.3,0,0.6,0,2V54.2z"/>
<path fill="#093251" d="M25.6,52.6c0-1.4,0-1.7,0-2c0-0.3-0.1-0.5-0.4-0.5c-0.1,0-0.2,0-0.3,0c0,0-0.1,0-0.1-0.1
	c0-0.1,0-0.1,0.2-0.1c0.4,0,1,0,1.1,0c0.2,0,2.3,0,2.5,0c0.2,0,0.3,0,0.4,0c0.1,0,0.1-0.1,0.1-0.1c0,0,0.1,0,0.1,0.1
	c0,0.1,0,0.2-0.1,0.4c0,0.1,0,0.5,0,0.6c0,0,0,0.1-0.1,0.1c0,0-0.1,0-0.1-0.1c0-0.1,0-0.2-0.1-0.3c-0.1-0.1-0.3-0.3-0.7-0.3l-1.6,0
	c-0.1,0-0.1,0-0.1,0.1v2.5c0,0.1,0,0.1,0.1,0.1l1.3,0c0.2,0,0.3,0,0.4,0c0.2,0,0.4-0.1,0.4-0.2c0-0.1,0.1-0.1,0.1-0.1
	c0,0,0.1,0,0.1,0.1c0,0.1-0.1,0.2-0.1,0.5c0,0.2,0,0.6,0,0.6c0,0.1,0,0.2-0.1,0.2c-0.1,0-0.1,0-0.1-0.1c0-0.1,0-0.2-0.1-0.3
	c0-0.1-0.2-0.3-0.5-0.3c-0.2,0-1.4,0-1.5,0c-0.1,0-0.1,0-0.1,0.1v0.7c0,0.9,0,1.6,0,2c0,0.3,0.1,0.4,0.3,0.5c0.1,0,0.3,0,0.4,0
	c0.1,0,0.1,0,0.1,0.1c0,0,0,0.1-0.2,0.1c-0.5,0-1.2,0-1.2,0c-0.1,0-0.7,0-0.9,0c-0.1,0-0.2,0-0.2-0.1c0,0,0-0.1,0.1-0.1
	c0.1,0,0.2,0,0.3,0c0.2,0,0.2-0.2,0.3-0.5c0.1-0.4,0.1-1.1,0.1-2V52.6z"/>
<path fill="#093251" d="M33.5,54.2c0,0.9,0,1.6,0,2c0,0.3,0.1,0.4,0.4,0.5c0.1,0,0.3,0,0.4,0c0.1,0,0.1,0,0.1,0.1c0,0,0,0.1-0.2,0.1
	c-0.5,0-1.1,0-1.2,0c0,0-0.7,0-1,0c-0.1,0-0.2,0-0.2-0.1c0,0,0-0.1,0.1-0.1c0.1,0,0.2,0,0.3,0c0.2,0,0.3-0.2,0.3-0.5
	c0-0.4,0-1.1,0-2v-3.9l-1.4,0c-0.6,0-0.8,0.1-1,0.3c-0.1,0.2-0.1,0.2-0.2,0.3c0,0.1-0.1,0.1-0.1,0.1c0,0-0.1,0-0.1-0.1
	c0-0.1,0.2-0.9,0.2-1c0-0.1,0.1-0.2,0.1-0.2c0.1,0,0.2,0.1,0.4,0.1c0.3,0,0.6,0,0.8,0h3.6c0.3,0,0.5,0,0.7,0c0.1,0,0.2,0,0.3,0
	c0,0,0,0.1,0,0.1c0,0.3,0,1,0,1.1c0,0.1,0,0.1-0.1,0.1c0,0-0.1,0-0.1-0.2l0-0.1c0-0.3-0.2-0.5-1.2-0.5l-1.2,0V54.2z"/>
<path fill="#093251" d="M37.1,56.8C37,56.7,37,56.7,37,56.5c0-0.5,0-0.8,0.1-1c0-0.1,0-0.2,0.1-0.2c0.1,0,0.1,0,0.1,0.1
	c0,0.1,0,0.2,0,0.3c0.2,0.7,0.9,0.9,1.5,0.9c0.9,0,1.4-0.5,1.4-1.2c0-0.7-0.4-1-1.2-1.6l-0.4-0.3c-1-0.8-1.4-1.3-1.4-2
	c0-1.1,0.9-1.7,2.1-1.7c0.4,0,0.8,0.1,1,0.1c0.2,0,0.3,0,0.3,0c0.1,0,0.1,0,0.1,0.1c0,0,0,0.3,0,1c0,0.1,0,0.2-0.1,0.2
	c-0.1,0-0.1,0-0.1-0.1c0-0.1-0.1-0.4-0.1-0.5c-0.1-0.1-0.4-0.5-1.2-0.5c-0.7,0-1.3,0.3-1.3,1c0,0.6,0.3,0.9,1.2,1.6l0.3,0.2
	c1.2,0.8,1.6,1.4,1.6,2.2c0,0.5-0.2,1.1-0.9,1.6c-0.4,0.3-1,0.3-1.5,0.3C38.1,57.1,37.5,57,37.1,56.8z"/>
<path fill="#093251" d="M54.2,55.4c-0.5,0-1-0.2-1.4-0.6c-0.4-0.4-0.6-0.8-0.6-1.4c0-0.5,0.2-1,0.6-1.4c0.4-0.4,0.9-0.6,1.4-0.6
	c0.5,0,1,0.2,1.4,0.6c0.4,0.4,0.6,0.9,0.6,1.4c0,0.5-0.2,1-0.6,1.4C55.2,55.2,54.7,55.4,54.2,55.4z"/>
<path fill="#093251" d="M69.5,50.1c0.1-0.3,0.2-0.4,0.2-0.4c0.1,0,0.1,0.1,0.2,0.3c0.2,0.4,1.7,4.2,2.3,5.6c0.3,0.8,0.6,1,0.8,1
	c0.1,0,0.3,0.1,0.4,0.1c0.1,0,0.1,0,0.1,0.1c0,0.1-0.1,0.1-0.2,0.1c-0.1,0-0.9,0-1.5,0c-0.2,0-0.3,0-0.3-0.1c0,0,0,0,0.1-0.1
	c0.1,0,0.2-0.1,0.1-0.3l-0.9-2.1c0,0,0-0.1-0.1-0.1h-2.2c0,0-0.1,0-0.1,0.1l-0.5,1.5c-0.1,0.2-0.1,0.5-0.1,0.6
	c0,0.2,0.2,0.3,0.3,0.3h0.1c0.1,0,0.1,0,0.1,0.1c0,0.1-0.1,0.1-0.1,0.1c-0.2,0-0.8,0-0.9,0c-0.1,0-0.6,0-1,0c-0.1,0-0.2,0-0.2-0.1
	c0,0,0-0.1,0.1-0.1c0.1,0,0.2,0,0.3,0c0.4-0.1,0.6-0.4,0.8-0.9L69.5,50.1z M70.6,54C70.6,54,70.6,53.9,70.6,54l-0.9-2.6
	c-0.1-0.1-0.1-0.1-0.2,0l-0.9,2.5c0,0,0,0.1,0,0.1H70.6z"/>
<path fill="#093251" d="M74.9,56.1c-0.9-0.8-1.2-1.9-1.2-2.8c0-0.6,0.2-1.7,1.1-2.5c0.6-0.6,1.5-1,2.9-1c0.4,0,0.9,0,1.4,0.1
	c0.4,0.1,0.7,0.1,1,0.1c0.1,0,0.1,0,0.1,0.1c0,0.1,0,0.2,0,0.5c0,0.3,0,0.8,0,1c0,0.1-0.1,0.2-0.1,0.2c-0.1,0-0.1-0.1-0.1-0.2
	c0-0.4-0.2-0.7-0.4-0.9c-0.3-0.3-1-0.5-1.9-0.5c-1.2,0-1.8,0.3-2.2,0.6c-0.7,0.7-0.9,1.5-0.9,2.4c0,1.8,1.4,3.4,3.5,3.4
	c0.7,0,1.2-0.1,1.6-0.4c0.2-0.2,0.3-0.6,0.4-0.8c0-0.1,0-0.1,0.1-0.1c0,0,0.1,0.1,0.1,0.1c0,0.1-0.1,0.9-0.2,1.2
	c-0.1,0.2-0.1,0.2-0.2,0.3c-0.4,0.2-1.1,0.2-1.7,0.2C76.7,57.1,75.7,56.7,74.9,56.1z"/>
<path fill="#093251" d="M82.6,56.1c-0.9-0.8-1.2-1.9-1.2-2.8c0-0.6,0.2-1.7,1.1-2.5c0.6-0.6,1.5-1,2.9-1c0.4,0,0.9,0,1.4,0.1
	c0.4,0.1,0.7,0.1,1,0.1c0.1,0,0.1,0,0.1,0.1c0,0.1,0,0.2,0,0.5c0,0.3,0,0.8,0,1c0,0.1-0.1,0.2-0.1,0.2c-0.1,0-0.1-0.1-0.1-0.2
	c0-0.4-0.2-0.7-0.4-0.9c-0.3-0.3-1-0.5-1.9-0.5c-1.2,0-1.8,0.3-2.2,0.6c-0.7,0.7-0.9,1.5-0.9,2.4c0,1.8,1.4,3.4,3.5,3.4
	c0.7,0,1.2-0.1,1.6-0.4c0.2-0.2,0.3-0.6,0.4-0.8c0-0.1,0-0.1,0.1-0.1c0,0,0.1,0.1,0.1,0.1c0,0.1-0.1,0.9-0.2,1.2
	c-0.1,0.2-0.1,0.2-0.2,0.3c-0.4,0.2-1.1,0.2-1.7,0.2C84.3,57.1,83.3,56.7,82.6,56.1z"/>
<path fill="#093251" d="M90.2,52.6c0-1.4,0-1.7,0-2c0-0.3-0.1-0.5-0.4-0.5c-0.1,0-0.2,0-0.3,0c0,0-0.1,0-0.1-0.1
	c0-0.1,0-0.1,0.2-0.1c0.4,0,1.1,0,1.1,0c0.1,0,2.1,0,2.3,0c0.2,0,0.4,0,0.4-0.1c0,0,0.1,0,0.1,0c0,0,0,0,0,0.1
	c0,0.1-0.1,0.2-0.1,0.4c0,0.1,0,0.5-0.1,0.6c0,0,0,0.1-0.1,0.1c-0.1,0-0.1,0-0.1-0.1c0-0.1,0-0.2-0.1-0.3c-0.1-0.2-0.2-0.2-0.7-0.3
	c-0.2,0-1.3,0-1.4,0c0,0-0.1,0-0.1,0.1v2.5c0,0.1,0,0.1,0.1,0.1c0.1,0,1.4,0,1.6,0c0.2,0,0.4,0,0.5-0.1c0.1-0.1,0.1-0.1,0.1-0.1
	c0,0,0.1,0,0.1,0.1c0,0.1-0.1,0.2-0.1,0.5c0,0.2,0,0.5,0,0.6c0,0.1,0,0.2-0.1,0.2c0,0-0.1,0-0.1-0.1c0-0.1,0-0.2,0-0.3
	c0-0.1-0.1-0.2-0.5-0.3c-0.3,0-1.3,0-1.5,0c-0.1,0-0.1,0-0.1,0.1v0.8c0,0.3,0,1.4,0,1.6c0,0.6,0.2,0.7,1.1,0.7c0.3,0,0.7,0,1-0.1
	c0.3-0.1,0.4-0.3,0.4-0.6c0-0.1,0-0.1,0.1-0.1c0.1,0,0.1,0.1,0.1,0.1c0,0.1-0.1,0.7-0.1,0.9C93.6,57,93.5,57,93.1,57
	c-0.7,0-1.3,0-1.7,0c-0.4,0-0.7,0-0.8,0c0,0-0.2,0-0.4,0c-0.2,0-0.4,0-0.6,0c-0.1,0-0.2,0-0.2-0.1c0,0,0-0.1,0.1-0.1
	c0.1,0,0.2,0,0.3,0c0.2,0,0.2-0.2,0.3-0.5c0.1-0.4,0.1-1.1,0.1-2V52.6z"/>
<path fill="#093251" d="M95.4,56.8c-0.1-0.1-0.1-0.1-0.1-0.3c0-0.5,0-0.8,0.1-1c0-0.1,0-0.2,0.1-0.2c0.1,0,0.1,0,0.1,0.1
	c0,0.1,0,0.2,0,0.3c0.2,0.7,0.9,0.9,1.5,0.9c0.9,0,1.4-0.5,1.4-1.2c0-0.7-0.4-1-1.2-1.6l-0.4-0.3c-1-0.8-1.4-1.3-1.4-2
	c0-1.1,0.9-1.7,2.1-1.7c0.4,0,0.8,0.1,1,0.1c0.2,0,0.3,0,0.3,0c0.1,0,0.1,0,0.1,0.1c0,0,0,0.3,0,1c0,0.1,0,0.2-0.1,0.2
	c-0.1,0-0.1,0-0.1-0.1c0-0.1-0.1-0.4-0.1-0.5c-0.1-0.1-0.4-0.5-1.2-0.5c-0.7,0-1.3,0.3-1.3,1c0,0.6,0.3,0.9,1.2,1.6l0.3,0.2
	c1.2,0.8,1.6,1.4,1.6,2.2c0,0.5-0.2,1.1-0.9,1.6c-0.4,0.3-1,0.3-1.5,0.3C96.4,57.1,95.8,57,95.4,56.8z"/>
<path fill="#093251" d="M101.1,56.8c-0.1-0.1-0.1-0.1-0.1-0.3c0-0.5,0-0.8,0.1-1c0-0.1,0-0.2,0.1-0.2c0.1,0,0.1,0,0.1,0.1
	c0,0.1,0,0.2,0,0.3c0.2,0.7,0.9,0.9,1.5,0.9c1,0,1.4-0.5,1.4-1.2c0-0.7-0.4-1-1.2-1.6l-0.4-0.3c-1-0.8-1.4-1.3-1.4-2
	c0-1.1,0.9-1.7,2.1-1.7c0.4,0,0.8,0.1,1,0.1c0.2,0,0.3,0,0.3,0c0.1,0,0.1,0,0.1,0.1c0,0,0,0.3,0,1c0,0.1,0,0.2-0.1,0.2
	c-0.1,0-0.1,0-0.1-0.1c0-0.1-0.1-0.4-0.1-0.5c-0.1-0.1-0.4-0.5-1.2-0.5c-0.7,0-1.3,0.3-1.3,1c0,0.6,0.3,0.9,1.2,1.6l0.3,0.2
	c1.2,0.8,1.6,1.4,1.6,2.2c0,0.5-0.2,1.1-0.9,1.6c-0.4,0.3-1,0.3-1.5,0.3C102.1,57.1,101.5,57,101.1,56.8z"/>
<path fill="#093251" d="M110.4,49.8c2.2,0,3.8,1.3,3.8,3.5c0,2.1-1.5,3.8-3.9,3.8c-2.6,0-3.8-2-3.8-3.6
	C106.6,51.9,107.7,49.8,110.4,49.8z M110.6,56.7c0.9,0,2.6-0.5,2.6-3.1c0-2.2-1.4-3.4-2.9-3.4c-1.6,0-2.8,1-2.8,3
	C107.6,55.3,108.9,56.7,110.6,56.7z"/>
<path fill="#093251" d="M116.2,52.6c0-1.4,0-1.7,0-2c0-0.3-0.1-0.5-0.4-0.5c-0.1,0-0.2,0-0.3,0c0,0-0.1,0-0.1-0.1
	c0-0.1,0-0.1,0.2-0.1c0.4,0,1.1,0,1.1,0c0.1,0,0.9,0,1.2,0c0.6,0,1.3,0.1,1.8,0.4c0.2,0.2,0.7,0.6,0.7,1.3c0,0.7-0.3,1.4-1.2,2.1
	c0.8,1,1.5,1.8,2,2.4c0.5,0.5,0.8,0.6,1.1,0.6c0.2,0,0.3,0,0.3,0c0.1,0,0.1,0,0.1,0.1c0,0.1-0.1,0.1-0.2,0.1h-0.6
	c-0.5,0-0.8-0.1-1-0.2c-0.4-0.2-0.8-0.7-1.3-1.4c-0.4-0.5-0.8-1.1-1-1.4c0,0-0.1-0.1-0.1-0.1l-1.2,0c0,0-0.1,0-0.1,0.1v0.2
	c0,0.9,0,1.6,0,2c0,0.3,0.1,0.4,0.4,0.5c0.1,0,0.3,0,0.4,0c0.1,0,0.1,0,0.1,0.1c0,0,0,0.1-0.2,0.1c-0.5,0-1.1,0-1.2,0c0,0-0.7,0-1,0
	c-0.1,0-0.2,0-0.2-0.1c0,0,0-0.1,0.1-0.1c0.1,0,0.2,0,0.3,0c0.2,0,0.2-0.2,0.3-0.5c0.1-0.4,0.1-1.1,0.1-2V52.6z M117,53.4
	c0,0.1,0,0.1,0.1,0.1c0.1,0.1,0.6,0.1,1.1,0.1c0.2,0,0.5,0,0.7-0.2c0.3-0.2,0.6-0.7,0.6-1.4c0-1.2-0.6-1.8-1.7-1.8
	c-0.3,0-0.6,0-0.7,0.1c0,0-0.1,0.1-0.1,0.1V53.4z"/>
<path fill="#093251" d="M124.4,54.2c0,0.9,0,1.6,0,2c0,0.3,0.1,0.4,0.3,0.5c0.1,0,0.4,0,0.4,0c0.1,0,0.1,0,0.1,0.1
	c0,0,0,0.1-0.2,0.1c-0.5,0-1.2,0-1.2,0c-0.1,0-0.7,0-1,0c-0.1,0-0.2,0-0.2-0.1c0,0,0-0.1,0.1-0.1c0.1,0,0.2,0,0.3,0
	c0.2,0,0.2-0.2,0.3-0.5c0-0.4,0.1-1.1,0.1-2v-1.6c0-1.4,0-1.7,0-2c0-0.3-0.1-0.5-0.3-0.5c-0.1,0-0.2,0-0.3,0c0,0-0.1,0-0.1-0.1
	c0-0.1,0-0.1,0.2-0.1c0.3,0,0.9,0,1,0c0,0,0.7,0,1,0c0.1,0,0.2,0,0.2,0.1c0,0,0,0.1-0.1,0.1c-0.1,0-0.1,0-0.2,0
	c-0.3,0.1-0.3,0.2-0.3,0.5c0,0.3,0,0.6,0,2V54.2z"/>
<path fill="#093251" d="M127.6,52.6c0-1.4,0-1.7,0-2c0-0.3-0.1-0.5-0.4-0.5c-0.1,0-0.2,0-0.3,0c0,0-0.1,0-0.1-0.1
	c0-0.1,0-0.1,0.2-0.1c0.4,0,1.1,0,1.1,0c0.1,0,2.1,0,2.3,0c0.2,0,0.4,0,0.4-0.1c0,0,0.1,0,0.1,0c0,0,0,0,0,0.1
	c0,0.1-0.1,0.2-0.1,0.4c0,0.1,0,0.5-0.1,0.6c0,0,0,0.1-0.1,0.1c-0.1,0-0.1,0-0.1-0.1c0-0.1,0-0.2-0.1-0.3c-0.1-0.2-0.2-0.2-0.7-0.3
	c-0.2,0-1.3,0-1.4,0c0,0-0.1,0-0.1,0.1v2.5c0,0.1,0,0.1,0.1,0.1c0.1,0,1.4,0,1.6,0c0.2,0,0.4,0,0.5-0.1c0.1-0.1,0.1-0.1,0.1-0.1
	s0.1,0,0.1,0.1c0,0.1-0.1,0.2-0.1,0.5c0,0.2,0,0.5,0,0.6c0,0.1,0,0.2-0.1,0.2c0,0-0.1,0-0.1-0.1c0-0.1,0-0.2,0-0.3
	c0-0.1-0.1-0.2-0.5-0.3c-0.3,0-1.3,0-1.5,0c-0.1,0-0.1,0-0.1,0.1v0.8c0,0.3,0,1.4,0,1.6c0,0.6,0.2,0.7,1.1,0.7c0.3,0,0.7,0,1-0.1
	c0.3-0.1,0.4-0.3,0.4-0.6c0-0.1,0-0.1,0.1-0.1c0.1,0,0.1,0.1,0.1,0.1c0,0.1-0.1,0.7-0.1,0.9c-0.1,0.2-0.2,0.2-0.5,0.2
	c-0.7,0-1.3,0-1.7,0c-0.4,0-0.7,0-0.8,0c0,0-0.2,0-0.4,0c-0.2,0-0.4,0-0.6,0c-0.1,0-0.2,0-0.2-0.1c0,0,0-0.1,0.1-0.1
	c0.1,0,0.2,0,0.3,0c0.2,0,0.2-0.2,0.2-0.5c0.1-0.4,0.1-1.1,0.1-2V52.6z"/>
<path fill="#093251" d="M132.8,56.8c-0.1-0.1-0.1-0.1-0.1-0.3c0-0.5,0-0.8,0.1-1c0-0.1,0-0.2,0.1-0.2c0.1,0,0.1,0,0.1,0.1
	c0,0.1,0,0.2,0,0.3c0.2,0.7,0.9,0.9,1.5,0.9c1,0,1.4-0.5,1.4-1.2c0-0.7-0.4-1-1.2-1.6l-0.4-0.3c-1-0.8-1.4-1.3-1.4-2
	c0-1.1,0.9-1.7,2.1-1.7c0.4,0,0.8,0.1,1,0.1c0.2,0,0.3,0,0.3,0c0.1,0,0.1,0,0.1,0.1c0,0,0,0.3,0,1c0,0.1,0,0.2-0.1,0.2
	c-0.1,0-0.1,0-0.1-0.1c0-0.1-0.1-0.4-0.1-0.5c-0.1-0.1-0.4-0.5-1.2-0.5c-0.7,0-1.3,0.3-1.3,1c0,0.6,0.3,0.9,1.2,1.6l0.3,0.2
	c1.2,0.8,1.6,1.4,1.6,2.2c0,0.5-0.2,1.1-0.9,1.6c-0.4,0.3-1,0.3-1.5,0.3C133.7,57.1,133.2,57,132.8,56.8z"/>
<path fill="#093251" d="M149.8,55.4c-0.5,0-1-0.2-1.4-0.6c-0.4-0.4-0.6-0.8-0.6-1.4c0-0.5,0.2-1,0.6-1.4c0.4-0.4,0.9-0.6,1.4-0.6
	c0.5,0,1,0.2,1.4,0.6c0.4,0.4,0.6,0.9,0.6,1.4c0,0.5-0.2,1-0.6,1.4C150.8,55.2,150.4,55.4,149.8,55.4z"/>
<path fill="#093251" d="M163.8,56.1c-0.9-0.8-1.2-1.9-1.2-2.8c0-0.6,0.2-1.7,1.1-2.5c0.6-0.6,1.5-1,2.9-1c0.4,0,0.9,0,1.4,0.1
	c0.4,0.1,0.7,0.1,1,0.1c0.1,0,0.1,0,0.1,0.1c0,0.1,0,0.2,0,0.5c0,0.3,0,0.8,0,1c0,0.1-0.1,0.2-0.1,0.2c-0.1,0-0.1-0.1-0.1-0.2
	c0-0.4-0.2-0.7-0.4-0.9c-0.3-0.3-1-0.5-1.9-0.5c-1.2,0-1.8,0.3-2.2,0.6c-0.7,0.7-0.9,1.5-0.9,2.4c0,1.8,1.4,3.4,3.5,3.4
	c0.7,0,1.2-0.1,1.6-0.4c0.2-0.2,0.3-0.6,0.4-0.8c0-0.1,0-0.1,0.1-0.1c0,0,0.1,0.1,0.1,0.1c0,0.1-0.1,0.9-0.2,1.2
	c-0.1,0.2-0.1,0.2-0.2,0.3c-0.4,0.2-1.1,0.2-1.7,0.2C165.5,57.1,164.5,56.7,163.8,56.1z"/>
<path fill="#093251" d="M172.3,54.3c0,1.4,0,1.9,0.2,2.1c0.2,0.2,0.5,0.2,1.3,0.2c0.5,0,0.9,0,1.2-0.3c0.1-0.1,0.2-0.3,0.2-0.5
	c0-0.1,0-0.1,0.1-0.1c0,0,0.1,0,0.1,0.1c0,0.1-0.1,0.7-0.1,0.9c-0.1,0.2-0.1,0.3-0.6,0.3c-0.7,0-1.2,0-1.7,0c-0.4,0-0.8,0-1,0
	c0,0-0.2,0-0.4,0c-0.2,0-0.4,0-0.6,0c-0.1,0-0.2,0-0.2-0.1c0,0,0-0.1,0.1-0.1c0.1,0,0.2,0,0.3,0c0.2,0,0.2-0.2,0.3-0.5
	c0.1-0.4,0.1-1.1,0.1-2v-1.6c0-1.4,0-1.7,0-2c0-0.3-0.1-0.5-0.4-0.5c-0.1,0-0.2,0-0.3,0c0,0-0.1,0-0.1-0.1c0-0.1,0-0.1,0.2-0.1
	c0.4,0,1,0,1.1,0c0,0,0.8,0,1.1,0c0.1,0,0.2,0,0.2,0.1c0,0,0,0.1-0.1,0.1c-0.1,0-0.2,0-0.3,0c-0.3,0.1-0.3,0.2-0.4,0.5
	c0,0.3,0,0.6,0,2V54.3z"/>
<path fill="#093251" d="M179.7,49.8c2.2,0,3.8,1.3,3.8,3.5c0,2.1-1.5,3.8-3.9,3.8c-2.6,0-3.8-2-3.8-3.6
	C175.9,51.9,177.1,49.8,179.7,49.8z M180,56.7c0.9,0,2.6-0.5,2.6-3.1c0-2.2-1.4-3.4-2.9-3.4c-1.6,0-2.8,1-2.8,3
	C176.9,55.3,178.2,56.7,180,56.7z"/>
<path fill="#093251" d="M187.7,54.2c0,0.9,0,1.6,0,2c0,0.3,0.1,0.4,0.4,0.5c0.1,0,0.3,0,0.4,0c0.1,0,0.1,0,0.1,0.1
	c0,0,0,0.1-0.2,0.1c-0.5,0-1.1,0-1.2,0c0,0-0.7,0-1,0c-0.1,0-0.2,0-0.2-0.1c0,0,0-0.1,0.1-0.1c0.1,0,0.2,0,0.3,0
	c0.2,0,0.2-0.2,0.3-0.5c0-0.4,0-1.1,0-2v-3.9l-1.4,0c-0.6,0-0.8,0.1-1,0.3c-0.1,0.2-0.1,0.2-0.2,0.3c0,0.1-0.1,0.1-0.1,0.1
	c0,0-0.1,0-0.1-0.1c0-0.1,0.2-0.9,0.2-1c0-0.1,0.1-0.2,0.1-0.2c0.1,0,0.2,0.1,0.4,0.1c0.3,0,0.6,0,0.8,0h3.6c0.3,0,0.5,0,0.7,0
	c0.1,0,0.2,0,0.3,0c0,0,0,0.1,0,0.1c0,0.3,0,1,0,1.1c0,0.1,0,0.1-0.1,0.1c0,0-0.1,0-0.1-0.2l0-0.1c0-0.3-0.2-0.5-1.2-0.5l-1.2,0
	V54.2z"/>
<path fill="#093251" d="M198.1,54.2c0,0.9,0,1.6,0.1,2c0,0.3,0.1,0.4,0.3,0.5c0.1,0,0.3,0,0.4,0c0.1,0,0.1,0,0.1,0.1
	c0,0-0.1,0.1-0.2,0.1c-0.5,0-1.1,0-1.2,0c0,0-0.7,0-0.9,0c-0.1,0-0.2,0-0.2-0.1c0,0,0-0.1,0.1-0.1c0.1,0,0.2,0,0.3,0
	c0.2,0,0.2-0.2,0.3-0.5c0-0.4,0-1.1,0-2v-0.9c0,0,0-0.1-0.1-0.1h-4c0,0-0.1,0-0.1,0.1v0.9c0,0.9,0,1.6,0,2c0,0.3,0.1,0.4,0.3,0.5
	c0.1,0,0.3,0,0.4,0c0.1,0,0.1,0,0.1,0.1c0,0,0,0.1-0.2,0.1c-0.5,0-1.1,0-1.2,0c-0.1,0-0.7,0-1,0c-0.1,0-0.2,0-0.2-0.1
	c0,0,0-0.1,0.1-0.1c0.1,0,0.2,0,0.3,0c0.2,0,0.2-0.2,0.3-0.5c0.1-0.4,0.1-1.1,0.1-2v-1.6c0-1.4,0-1.7,0-2c0-0.3-0.1-0.5-0.4-0.5
	c-0.1,0-0.2,0-0.3,0c0,0-0.1,0-0.1-0.1c0-0.1,0-0.1,0.2-0.1c0.4,0,1,0,1.1,0c0,0,0.7,0,0.9,0c0.1,0,0.2,0,0.2,0.1c0,0,0,0.1-0.1,0.1
	c-0.1,0-0.1,0-0.2,0c-0.3,0.1-0.3,0.2-0.3,0.5c0,0.3,0,0.6,0,2v0.2c0,0.1,0,0.1,0.1,0.1h4c0,0,0.1,0,0.1-0.1v-0.2c0-1.4,0-1.7,0-2
	c0-0.3-0.1-0.5-0.4-0.5c-0.1,0-0.2,0-0.3,0c0,0-0.1,0-0.1-0.1c0-0.1,0-0.1,0.2-0.1c0.4,0,1,0,1.1,0c0.1,0,0.7,0,1,0
	c0.1,0,0.2,0,0.2,0.1c0,0,0,0.1-0.1,0.1c-0.1,0-0.1,0-0.2,0c-0.3,0.1-0.3,0.2-0.3,0.5c0,0.3,0,0.6,0,2V54.2z"/>
<path fill="#093251" d="M202.2,54.2c0,0.9,0,1.6,0,2c0,0.3,0.1,0.4,0.4,0.5c0.1,0,0.3,0,0.4,0c0.1,0,0.1,0,0.1,0.1
	c0,0,0,0.1-0.2,0.1c-0.5,0-1.2,0-1.2,0c-0.1,0-0.7,0-0.9,0c-0.1,0-0.2,0-0.2-0.1c0,0,0-0.1,0.1-0.1c0.1,0,0.2,0,0.3,0
	c0.2,0,0.2-0.2,0.3-0.5c0-0.4,0.1-1.1,0.1-2v-1.6c0-1.4,0-1.7,0-2c0-0.3-0.1-0.5-0.3-0.5c-0.1,0-0.2,0-0.3,0c0,0-0.1,0-0.1-0.1
	c0-0.1,0-0.1,0.2-0.1c0.3,0,0.9,0,1,0c0,0,0.7,0,1,0c0.1,0,0.2,0,0.2,0.1c0,0,0,0.1-0.1,0.1c-0.1,0-0.1,0-0.2,0
	c-0.3,0.1-0.3,0.2-0.3,0.5c0,0.3,0,0.6,0,2V54.2z"/>
<path fill="#093251" d="M205.7,55.7c0,0.8,0.1,1,0.4,1.1c0.2,0,0.4,0.1,0.5,0.1c0,0,0.1,0,0.1,0.1c0,0.1-0.1,0.1-0.2,0.1
	c-0.5,0-0.9,0-1,0c-0.1,0-0.5,0-0.9,0c-0.1,0-0.2,0-0.2-0.1c0,0,0-0.1,0.1-0.1c0.1,0,0.3,0,0.4-0.1c0.2-0.1,0.3-0.3,0.3-1.2v-5.3
	c0-0.4,0.1-0.5,0.1-0.5c0.1,0,0.3,0.2,0.4,0.3c0.2,0.2,1.5,1.6,3,3.2c0.9,1,2,2.1,2.3,2.4l-0.1-4.7c0-0.6-0.1-0.8-0.4-0.9
	c-0.2,0-0.4,0-0.5,0c-0.1,0-0.1-0.1-0.1-0.1c0-0.1,0.1-0.1,0.2-0.1c0.4,0,0.9,0,1,0c0.1,0,0.4,0,0.8,0c0.1,0,0.2,0,0.2,0.1
	c0,0,0,0.1-0.1,0.1c0,0-0.1,0-0.2,0c-0.3,0.1-0.3,0.3-0.3,0.8l0,5.4c0,0.6,0,0.7-0.1,0.7c-0.1,0-0.2-0.1-0.7-0.6
	c-0.1-0.1-1.5-1.5-2.5-2.5c-1.1-1.2-2.2-2.3-2.5-2.6L205.7,55.7z"/>
<path fill="#093251" d="M218.8,54.6c0-0.8,0-0.9-0.4-0.9c-0.1,0-0.2,0-0.3,0c0,0-0.1,0-0.1-0.1c0-0.1,0-0.1,0.2-0.1
	c0.4,0,1.1,0,1.1,0c0,0,0.6,0,0.9,0c0.1,0,0.2,0,0.2,0.1c0,0,0,0.1-0.1,0.1c-0.1,0-0.1,0-0.2,0c-0.3,0-0.3,0.2-0.4,0.5
	c0,0.3,0,0.6,0,1v1c0,0.4,0,0.4-0.1,0.5c-0.6,0.3-1.5,0.4-2,0.4c-0.7,0-2.1-0.1-3.2-1c-0.6-0.5-1.1-1.5-1.1-2.6c0-1.5,0.8-2.5,1.6-3
	c0.9-0.5,1.8-0.6,2.6-0.6c0.6,0,1.3,0.1,1.5,0.2c0.2,0,0.5,0.1,0.8,0.1c0.1,0,0.1,0,0.1,0.1c0,0.1-0.1,0.4-0.1,1.3
	c0,0.2,0,0.2-0.1,0.2c-0.1,0-0.1-0.1-0.1-0.1c0-0.1-0.1-0.4-0.2-0.6c-0.2-0.3-1-0.7-2.2-0.7c-0.6,0-1.3,0-2,0.6
	c-0.6,0.4-1,1.3-1,2.3c0,1.3,0.7,2.3,1,2.6c0.8,0.7,1.6,1,2.5,1c0.3,0,0.8,0,1-0.2c0.1-0.1,0.2-0.1,0.2-0.3V54.6z"/>
</svg>
