<?xml version="1.0" encoding="utf-8"?>
<!-- Generator: Adobe Illustrator 14.0.0, SVG Export Plug-In  -->
<!DOCTYPE svg PUBLIC "-//W3C//DTD SVG 1.1//EN" "http://www.w3.org/Graphics/SVG/1.1/DTD/svg11.dtd" [
	<!ENTITY ns_flows "http://ns.adobe.com/Flows/1.0/">
]>
<svg version="1.1"
	 xmlns="http://www.w3.org/2000/svg" xmlns:xlink="http://www.w3.org/1999/xlink" xmlns:a="http://ns.adobe.com/AdobeSVGViewerExtensions/3.0/"
	 x="0px" y="0px" width="252px" height="215px" viewBox="-53.8 -35.2 252 215" enable-background="new -53.8 -35.2 252 215"
	 xml:space="preserve">
<defs>
</defs>
<path fill="#253138" d="M137.8,79.7c-1.5,0-2.8-0.8-3.2-2l-3.3,1c1,2.3,3.5,3.9,6.5,3.9c3.8,0,6.9-2.6,6.9-5.9
	c0-3.3-3.1-5.9-6.9-5.9c-1.9,0-3.4-1.3-3.4-3c0-1.6,1.5-3,3.4-3c1.5,0,2.8,0.8,3.2,2l3.3-1c-1-2.3-3.5-3.9-6.5-3.9
	c-3.8,0-6.9,2.7-6.9,5.9c0,3.3,3.1,5.9,6.9,5.9c1.9,0,3.4,1.3,3.4,3C141.2,78.4,139.7,79.7,137.8,79.7z"/>
<polygon fill="#253138" points="144.6,0.9 143.7,0 72.3,71.4 0.9,0 0,0.9 71.4,72.3 0,143.7 0.9,144.6 72.3,73.2 143.7,144.6 
	144.6,143.7 73.2,72.3 "/>
<path fill="#253138" d="M9,61.9H0.1v20.7h10.4c3.3,0,5.9-2.6,5.9-5.9c0-2.2-1.2-4-2.9-5.1c0.9-1,1.4-2.4,1.4-3.8
	C14.9,64.6,12.3,61.9,9,61.9z M3.1,64.9H9c1.6,0,3,1.3,3,3c0,1.6-1.3,3-3,3H3.1V64.9z M10.5,79.7H3.1v-5.9h7.4c1.6,0,3,1.3,3,3
	C13.5,78.4,12.1,79.7,10.5,79.7z"/>
<path fill="#253138" d="M73.3,127.4c2.3,0,4.3,1.1,5.6,2.8l2.2-1.7c-1.8-2.3-4.6-3.9-7.8-3.9c-5.4,0-9.8,4.4-9.8,9.8
	c0,5.4,4.4,9.8,9.8,9.8c3.2,0,6-1.5,7.8-3.9l-2.2-1.7c-1.3,1.7-3.3,2.8-5.6,2.8c-3.9,0-7-3.1-7-7C66.3,130.5,69.4,127.4,73.3,127.4z
	"/>
<polygon fill="#253138" points="71.8,13.3 72.8,13.3 72.8,1.1 77.9,1.1 77.9,0 66.7,0 66.7,1.1 71.8,1.1 "/>
</svg>
