<?xml version="1.0" encoding="utf-8"?>
<!-- Generator: Adobe Illustrator 14.0.0, SVG Export Plug-In . SVG Version: 6.00 Build 43363)  -->
<!DOCTYPE svg PUBLIC "-//W3C//DTD SVG 1.1//EN" "http://www.w3.org/Graphics/SVG/1.1/DTD/svg11.dtd">
<svg version="1.1" id="Layer_1" xmlns="http://www.w3.org/2000/svg" xmlns:xlink="http://www.w3.org/1999/xlink" x="0px" y="0px"
	 width="339.945px" height="36.552px" viewBox="0 0 339.945 36.552" enable-background="new 0 0 339.945 36.552"
	 xml:space="preserve">
<g>
	<path d="M9.4,36.452c-4.25,0-6.9-1.15-9.4-2.949l2.15-5.852c2.9,1.351,4.55,1.801,7.15,1.801c2.9,0,3.75-2.551,3.75-4
		c0-4.951-12.251-4.5-12.251-15.301c0-6.701,5.9-9.901,10-9.901c3,0,5.101,0.25,8.951,2.25l-2.15,5.7c-2.7-0.85-3.85-1.2-6.25-1.2
		c-2.3,0-3.05,1.8-3.05,3.3c0,4,12.451,5.15,12.451,15.051C20.751,33.103,14.5,36.452,9.4,36.452z"/>
	<path d="M41.4,35.902l-2.2-10.45h-7.65l-2.6,10.45h-7.65L31,0.55h9.851l8.4,35.352H41.4z M36.6,12.351L35.8,6.25h-0.5l-0.75,6.101
		l-1.45,7h4.75L36.6,12.351z"/>
	<path d="M63.85,36.402c-9.701,0-14.651-6.501-14.651-17.951C49.199,7.65,55.1,0.15,63.75,0.15c3.7,0,6.1,1,8.7,2.3l-1.6,6
		C67.75,7.351,66.45,7,63.75,7c-4.55,0-6.851,4.15-6.851,10.951c0,7.05,2.55,11.45,7.601,11.45h0.95v-9.9h7.3v14.701
		C69.65,35.702,67.2,36.402,63.85,36.402z"/>
	<path d="M94.699,35.902l-2.2-10.45h-7.65l-2.6,10.45h-7.65L84.299,0.55h9.851l8.4,35.352H94.699z M89.899,12.351l-0.8-6.101h-0.5
		l-0.75,6.101l-1.45,7h4.75L89.899,12.351z"/>
	<path d="M127.999,35.902V22.602l0.4-7.101h-0.2l-5.05,20.401h-6.65l-4.5-21.501h-0.2l0.45,8.201v13.301h-7.55V0.55h9.5l5.8,25.452
		h0.2l6.35-25.452h9.051v35.352H127.999z"/>
	<path d="M153.099,36.503c-9.401,0-13.901-6.751-13.901-18.352C139.198,6.351,144.748,0,153.798,0c9.701,0,13.801,7.4,13.801,18.251
		C167.599,30.151,162.549,36.503,153.099,36.503z M153.148,6.4c-4.6,0-6.4,5.101-6.4,11.701c0,7,2.5,11.8,6.851,11.8
		c4.9,0,6.3-4.9,6.3-11.7C159.899,10.851,157.599,6.4,153.148,6.4z"/>
	<path d="M195.148,36.552c-5.3-0.299-9.101-4.05-11.4-8.25l-2.5-4.6h-2.45v12.2h-7.601V0.55h10.5c6.05,0,10.5,3.8,10.5,11.801
		c0,3.75-1.8,7.1-4.25,8.951l2.801,3.75c1.299,1.75,2.949,3.551,6.25,5.551L195.148,36.552z M180.948,7.25h-2.15v10.501h1.3
		c3.2,0,4.3-2.4,4.3-5.201C184.398,9.5,183.648,7.25,180.948,7.25z"/>
	<path d="M198.647,35.902V0.55h18v6.65h-10.45v7.851h9.7v6.2h-9.7v8.001h11.251v6.65H198.647z"/>
	<path d="M249.696,36.452c-1-0.1-4.149-0.449-6.25-4.85l-4.95-10.301c-1.101,0.25-2.2,0.3-3.3,0.3c-0.85,0-1.7-0.05-2.5-0.05v14.351
		h-2.9V0.55h8.101c4.899,0,8.2,3.3,8.2,10.25c0,4.05-1.35,7.8-4.801,9.65l4.15,8.551c1.101,2.3,2.4,3.95,4.701,4.95L249.696,36.452z
		 M237.146,3.25h-4.449v15.5h3.6c3.801,0,6.701-1.9,6.701-7.65C242.997,5.5,240.847,3.25,237.146,3.25z"/>
	<path d="M254.296,35.902V0.55h14.25v2.6h-11.301v13.651h10.501v2.7h-10.501v13.701h12.102v2.7H254.296z"/>
	<path d="M281.995,3.351v32.552h-2.95V3.351h-8.801v-2.8h20.501v2.8H281.995z"/>
	<path d="M308.296,35.902l-3.7-13.901h-9.4l-4.05,13.901h-2.951L298.445,0.55h3.601l9.45,35.352H308.296z M300.745,6.4l-0.55-2.7
		h-0.1l-0.601,2.7l-3.6,12.851h8.051L300.745,6.4z"/>
	<path d="M315.395,35.902V0.55h2.95v35.352H315.395z"/>
	<path d="M326.145,35.902V0.55h2.95v32.501h10.851v2.851H326.145z"/>
</g>
</svg>
