<?xml version="1.0" encoding="utf-8"?>
<!-- Generator: Adobe Illustrator 14.0.0, SVG Export Plug-In  -->
<!DOCTYPE svg PUBLIC "-//W3C//DTD SVG 1.1//EN" "http://www.w3.org/Graphics/SVG/1.1/DTD/svg11.dtd" [
	<!ENTITY ns_flows "http://ns.adobe.com/Flows/1.0/">
]>
<svg version="1.1"
	 xmlns="http://www.w3.org/2000/svg" xmlns:xlink="http://www.w3.org/1999/xlink" xmlns:a="http://ns.adobe.com/AdobeSVGViewerExtensions/3.0/"
	 x="0px" y="0px" width="340px" height="37px" viewBox="0 0 340 37" enable-background="new 0 0 340 37" xml:space="preserve">
<defs>
</defs>
<path fill="#FFFFFF" d="M9.4,36.5c-4.3,0-6.9-1.2-9.4-2.9l2.1-5.9c2.9,1.4,4.6,1.8,7.2,1.8c2.9,0,3.8-2.6,3.8-4
	c0-5-12.3-4.5-12.3-15.3c0-6.7,5.9-9.9,10-9.9c3,0,5.1,0.3,9,2.3l-2.2,5.7C14.9,7.4,13.8,7,11.4,7c-2.3,0-3.1,1.8-3.1,3.3
	c0,4,12.5,5.2,12.5,15.1C20.8,33.1,14.5,36.5,9.4,36.5z"/>
<path fill="#FFFFFF" d="M41.4,35.9l-2.2-10.5h-7.7l-2.6,10.5h-7.7L31,0.6h9.9l8.4,35.4H41.4z M36.6,12.4l-0.8-6.1h-0.5l-0.8,6.1
	l-1.4,7h4.8L36.6,12.4z"/>
<path fill="#FFFFFF" d="M63.9,36.4c-9.7,0-14.7-6.5-14.7-18c0-10.8,5.9-18.3,14.6-18.3c3.7,0,6.1,1,8.7,2.3l-1.6,6
	C67.8,7.4,66.5,7,63.8,7c-4.6,0-6.9,4.2-6.9,11c0,7,2.6,11.5,7.6,11.5h1v-9.9h7.3v14.7C69.7,35.7,67.2,36.4,63.9,36.4z"/>
<path fill="#FFFFFF" d="M94.7,35.9l-2.2-10.5h-7.7l-2.6,10.5h-7.7l9.7-35.4h9.9l8.4,35.4H94.7z M89.9,12.4l-0.8-6.1h-0.5l-0.8,6.1
	l-1.4,7h4.8L89.9,12.4z"/>
<path fill="#FFFFFF" d="M128,35.9V22.6l0.4-7.1h-0.2l-5.1,20.4h-6.7L112,14.4h-0.2l0.5,8.2v13.3h-7.6V0.6h9.5L120,26h0.2l6.4-25.5
	h9.1v35.4H128z"/>
<path fill="#FFFFFF" d="M153.1,36.5c-9.4,0-13.9-6.8-13.9-18.4c0-11.8,5.6-18.2,14.6-18.2c9.7,0,13.8,7.4,13.8,18.3
	C167.6,30.2,162.5,36.5,153.1,36.5z M153.1,6.4c-4.6,0-6.4,5.1-6.4,11.7c0,7,2.5,11.8,6.9,11.8c4.9,0,6.3-4.9,6.3-11.7
	C159.9,10.9,157.6,6.4,153.1,6.4z"/>
<path fill="#FFFFFF" d="M195.1,36.6c-5.3-0.3-9.1-4-11.4-8.3l-2.5-4.6h-2.4v12.2h-7.6V0.6h10.5c6.1,0,10.5,3.8,10.5,11.8
	c0,3.8-1.8,7.1-4.3,9l2.8,3.8c1.3,1.8,2.9,3.6,6.3,5.6L195.1,36.6z M180.9,7.3h-2.1v10.5h1.3c3.2,0,4.3-2.4,4.3-5.2
	C184.4,9.5,183.6,7.3,180.9,7.3z"/>
<path fill="#FFFFFF" d="M198.6,35.9V0.6h18v6.7h-10.5v7.9h9.7v6.2h-9.7v8h11.3v6.7H198.6z"/>
<path fill="#FFFFFF" d="M249.7,36.5c-1-0.1-4.1-0.4-6.3-4.8l-5-10.3c-1.1,0.3-2.2,0.3-3.3,0.3c-0.8,0-1.7,0-2.5,0v14.4h-2.9V0.6h8.1
	c4.9,0,8.2,3.3,8.2,10.3c0,4.1-1.3,7.8-4.8,9.7l4.2,8.6c1.1,2.3,2.4,4,4.7,5L249.7,36.5z M237.1,3.3h-4.4v15.5h3.6
	c3.8,0,6.7-1.9,6.7-7.6C243,5.5,240.8,3.3,237.1,3.3z"/>
<path fill="#FFFFFF" d="M254.3,35.9V0.6h14.3v2.6h-11.3v13.7h10.5v2.7h-10.5v13.7h12.1v2.7H254.3z"/>
<path fill="#FFFFFF" d="M282,3.4v32.6h-3V3.4h-8.8V0.6h20.5v2.8H282z"/>
<path fill="#FFFFFF" d="M308.3,35.9L304.6,22h-9.4l-4,13.9h-3l10.3-35.4h3.6l9.5,35.4H308.3z M300.7,6.4l-0.5-2.7h-0.1l-0.6,2.7
	l-3.6,12.9h8.1L300.7,6.4z"/>
<path fill="#FFFFFF" d="M315.4,35.9V0.6h3v35.4H315.4z"/>
<path fill="#FFFFFF" d="M326.1,35.9V0.6h3v32.5h10.9v2.9H326.1z"/>
</svg>
